<?xml version="1.0" encoding="UTF-8" standalone="no"?>
<!DOCTYPE svg PUBLIC "-//W3C//DTD SVG 1.1//EN"
 "http://www.w3.org/Graphics/SVG/1.1/DTD/svg11.dtd">
<!-- Generated by graphviz version 2.28.0 (20111211.2114)
 -->
<!-- Title: classes_coupling Pages: 1 -->
<svg width="630pt" height="416pt"
 viewBox="0.00 0.00 630.00 416.00" xmlns="http://www.w3.org/2000/svg" xmlns:xlink="http://www.w3.org/1999/xlink">
<g id="graph1" class="graph" transform="scale(1 1) rotate(0) translate(4 412)">
<title>classes_coupling</title>
<polygon fill="white" stroke="white" points="-4,5 -4,-412 627,-412 627,5 -4,5"/>
<!-- 2 -->
<g id="node1" class="node"><title>2</title>
<polygon fill="none" stroke="black" points="-0.5,-153 -0.5,-297 136.5,-297 136.5,-153 -0.5,-153"/>
<text text-anchor="middle" x="68" y="-281.8" font-family="Times,serif" font-size="14.00">Sigmoidal</text>
<polyline fill="none" stroke="black" points="-0.5,-274 136.5,-274 "/>
<text text-anchor="start" x="7.5" y="-258.8" font-family="Times,serif" font-size="14.00">pi_on_sqrt3</text>
<text text-anchor="start" x="7.5" y="-243.8" font-family="Times,serif" font-size="14.00">sigma : FloatArray</text>
<text text-anchor="start" x="7.5" y="-228.8" font-family="Times,serif" font-size="14.00">device_info</text>
<text text-anchor="start" x="7.5" y="-213.8" font-family="Times,serif" font-size="14.00">cmax : FloatArray</text>
<text text-anchor="start" x="7.5" y="-198.8" font-family="Times,serif" font-size="14.00">midpoint : FloatArray</text>
<text text-anchor="start" x="7.5" y="-183.8" font-family="Times,serif" font-size="14.00">cmin : FloatArray</text>
<polyline fill="none" stroke="black" points="-0.5,-176 136.5,-176 "/>
<text text-anchor="middle" x="68" y="-160.8" font-family="Times,serif" font-size="14.00"> </text>
</g>
<!-- 8 -->
<g id="node7" class="node"><title>8</title>
<polygon fill="none" stroke="black" points="299.5,-337 299.5,-407 366.5,-407 366.5,-337 299.5,-337"/>
<text text-anchor="middle" x="333" y="-391.8" font-family="Times,serif" font-size="14.00">Coupling</text>
<polyline fill="none" stroke="black" points="299.5,-384 366.5,-384 "/>
<polyline fill="none" stroke="black" points="299.5,-360 366.5,-360 "/>
<text text-anchor="middle" x="333" y="-344.8" font-family="Times,serif" font-size="14.00"> </text>
</g>
<!-- 2&#45;&gt;8 -->
<g id="edge2" class="edge"><title>2&#45;&gt;8</title>
<path fill="none" stroke="black" d="M136.678,-291.768C139.762,-293.958 142.875,-296.046 146,-298 191.669,-326.556 250.35,-347.238 289.688,-359.147"/>
<polygon fill="none" stroke="black" points="288.917,-362.569 299.5,-362.056 290.908,-355.858 288.917,-362.569"/>
</g>
<!-- 3 -->
<g id="node2" class="node"><title>3</title>
<polygon fill="none" stroke="black" points="155,-175.5 155,-274.5 249,-274.5 249,-175.5 155,-175.5"/>
<text text-anchor="middle" x="202" y="-259.3" font-family="Times,serif" font-size="14.00">Linear</text>
<polyline fill="none" stroke="black" points="155,-251.5 249,-251.5 "/>
<text text-anchor="start" x="163" y="-236.3" font-family="Times,serif" font-size="14.00">a : FloatArray</text>
<text text-anchor="start" x="163" y="-221.3" font-family="Times,serif" font-size="14.00">device_info</text>
<text text-anchor="start" x="163" y="-206.3" font-family="Times,serif" font-size="14.00">b : FloatArray</text>
<polyline fill="none" stroke="black" points="155,-198.5 249,-198.5 "/>
<text text-anchor="middle" x="202" y="-183.3" font-family="Times,serif" font-size="14.00"> </text>
</g>
<!-- 3&#45;&gt;8 -->
<g id="edge4" class="edge"><title>3&#45;&gt;8</title>
<path fill="none" stroke="black" d="M238.457,-274.771C244.792,-282.688 251.453,-290.684 258,-298 268.536,-309.774 280.567,-321.971 291.863,-332.946"/>
<polygon fill="none" stroke="black" points="289.524,-335.553 299.156,-339.965 294.378,-330.509 289.524,-335.553"/>
</g>
<!-- 4 -->
<g id="node3" class="node"><title>4</title>
<polygon fill="none" stroke="black" points="266,-0.5 266,-99.5 400,-99.5 400,-0.5 266,-0.5"/>
<text text-anchor="middle" x="333" y="-84.3" font-family="Times,serif" font-size="14.00">coupling_device_info</text>
<polyline fill="none" stroke="black" points="266,-76.5 400,-76.5 "/>
<text text-anchor="start" x="274" y="-61.3" font-family="Times,serif" font-size="14.00">inst</text>
<polyline fill="none" stroke="black" points="266,-53.5 400,-53.5 "/>
<text text-anchor="start" x="274" y="-38.3" font-family="Times,serif" font-size="14.00">cfpr()</text>
<text text-anchor="start" x="274" y="-23.3" font-family="Times,serif" font-size="14.00">n_cfpr()</text>
<text text-anchor="start" x="274" y="-8.3" font-family="Times,serif" font-size="14.00">kernel()</text>
</g>
<!-- 4&#45;&gt;2 -->
<g id="edge12" class="edge"><title>4&#45;&gt;2</title>
<path fill="none" stroke="black" d="M265.881,-77.856C240.733,-88.9806 212.368,-102.835 188,-118 167.61,-130.69 164.167,-136.291 146,-152 145.904,-152.083 145.808,-152.166 145.712,-152.249"/>
<polygon fill="black" stroke="black" points="145.714,-152.248 143.833,-159.209 136.684,-160.151 138.564,-153.189 145.714,-152.248"/>
<text text-anchor="middle" x="220" y="-122.3" font-family="Times,serif" font-size="14.00" fill="green">device_info</text>
</g>
<!-- 4&#45;&gt;3 -->
<g id="edge14" class="edge"><title>4&#45;&gt;3</title>
<path fill="none" stroke="black" d="M280.64,-99.7931C275.135,-105.729 269.804,-111.868 265,-118 253.737,-132.377 242.984,-148.944 233.653,-164.644"/>
<polygon fill="black" stroke="black" points="233.466,-164.966 233.905,-172.163 227.43,-175.338 226.991,-168.14 233.466,-164.966"/>
<text text-anchor="middle" x="297" y="-122.3" font-family="Times,serif" font-size="14.00" fill="green">device_info</text>
</g>
<!-- 5 -->
<g id="node4" class="node"><title>5</title>
<polygon fill="none" stroke="black" points="267,-183 267,-267 399,-267 399,-183 267,-183"/>
<text text-anchor="middle" x="333" y="-251.8" font-family="Times,serif" font-size="14.00">Scaling</text>
<polyline fill="none" stroke="black" points="267,-244 399,-244 "/>
<text text-anchor="start" x="275" y="-228.8" font-family="Times,serif" font-size="14.00">device_info</text>
<text text-anchor="start" x="275" y="-213.8" font-family="Times,serif" font-size="14.00">scaling_factor : Float</text>
<polyline fill="none" stroke="black" points="267,-206 399,-206 "/>
<text text-anchor="middle" x="333" y="-190.8" font-family="Times,serif" font-size="14.00"> </text>
</g>
<!-- 4&#45;&gt;5 -->
<g id="edge16" class="edge"><title>4&#45;&gt;5</title>
<path fill="none" stroke="black" d="M333,-99.6505C333,-121.743 333,-147.94 333,-170.577"/>
<polygon fill="black" stroke="black" points="333,-170.739 337,-176.739 333,-182.739 329,-176.739 333,-170.739"/>
<text text-anchor="middle" x="365" y="-122.3" font-family="Times,serif" font-size="14.00" fill="green">device_info</text>
</g>
<!-- 6 -->
<g id="node5" class="node"><title>6</title>
<polygon fill="none" stroke="black" points="417.5,-183 417.5,-267 510.5,-267 510.5,-183 417.5,-183"/>
<text text-anchor="middle" x="464" y="-251.8" font-family="Times,serif" font-size="14.00">Kuramoto</text>
<polyline fill="none" stroke="black" points="417.5,-244 510.5,-244 "/>
<text text-anchor="start" x="425.5" y="-228.8" font-family="Times,serif" font-size="14.00">a : FloatArray</text>
<text text-anchor="start" x="425.5" y="-213.8" font-family="Times,serif" font-size="14.00">device_info</text>
<polyline fill="none" stroke="black" points="417.5,-206 510.5,-206 "/>
<text text-anchor="middle" x="464" y="-190.8" font-family="Times,serif" font-size="14.00"> </text>
</g>
<!-- 4&#45;&gt;6 -->
<g id="edge18" class="edge"><title>4&#45;&gt;6</title>
<path fill="none" stroke="black" d="M385.36,-99.7931C390.865,-105.729 396.196,-111.868 401,-118 414.126,-134.756 426.56,-154.486 436.858,-172.352"/>
<polygon fill="black" stroke="black" points="436.918,-172.458 443.353,-175.713 442.823,-182.905 436.388,-179.65 436.918,-172.458"/>
<text text-anchor="middle" x="443" y="-122.3" font-family="Times,serif" font-size="14.00" fill="green">device_info</text>
</g>
<!-- 7 -->
<g id="node6" class="node"><title>7</title>
<polygon fill="none" stroke="black" points="528.5,-183 528.5,-267 621.5,-267 621.5,-183 528.5,-183"/>
<text text-anchor="middle" x="575" y="-251.8" font-family="Times,serif" font-size="14.00">Difference</text>
<polyline fill="none" stroke="black" points="528.5,-244 621.5,-244 "/>
<text text-anchor="start" x="536.5" y="-228.8" font-family="Times,serif" font-size="14.00">a : FloatArray</text>
<text text-anchor="start" x="536.5" y="-213.8" font-family="Times,serif" font-size="14.00">device_info</text>
<polyline fill="none" stroke="black" points="528.5,-206 621.5,-206 "/>
<text text-anchor="middle" x="575" y="-190.8" font-family="Times,serif" font-size="14.00"> </text>
</g>
<!-- 4&#45;&gt;7 -->
<g id="edge20" class="edge"><title>4&#45;&gt;7</title>
<path fill="none" stroke="black" d="M400.055,-77.1661C425.582,-88.2981 454.422,-102.338 479,-118 498.677,-130.539 502.864,-135.147 519,-152 525.249,-158.527 531.495,-165.721 537.428,-172.962"/>
<polygon fill="black" stroke="black" points="537.804,-173.431 544.674,-175.62 545.296,-182.805 538.425,-180.615 537.804,-173.431"/>
<text text-anchor="middle" x="533" y="-122.3" font-family="Times,serif" font-size="14.00" fill="green">device_info</text>
</g>
<!-- 5&#45;&gt;8 -->
<g id="edge6" class="edge"><title>5&#45;&gt;8</title>
<path fill="none" stroke="black" d="M333,-267.163C333,-285.672 333,-307.555 333,-326.449"/>
<polygon fill="none" stroke="black" points="329.5,-326.597 333,-336.597 336.5,-326.597 329.5,-326.597"/>
</g>
<!-- 6&#45;&gt;8 -->
<g id="edge8" class="edge"><title>6&#45;&gt;8</title>
<path fill="none" stroke="black" d="M433.557,-267.16C425.517,-277.459 416.659,-288.323 408,-298 397.464,-309.774 385.433,-321.971 374.137,-332.946"/>
<polygon fill="none" stroke="black" points="371.622,-330.509 366.844,-339.965 376.476,-335.553 371.622,-330.509"/>
</g>
<!-- 7&#45;&gt;8 -->
<g id="edge10" class="edge"><title>7&#45;&gt;8</title>
<path fill="none" stroke="black" d="M549.011,-267.172C540.497,-278.289 530.289,-289.562 519,-298 475.711,-330.357 416.223,-350.367 376.285,-361.075"/>
<polygon fill="none" stroke="black" points="375.373,-357.696 366.575,-363.599 377.134,-364.471 375.373,-357.696"/>
</g>
</g>
</svg>
