<?xml version="1.0" encoding="UTF-8" standalone="no"?>
<!DOCTYPE svg PUBLIC "-//W3C//DTD SVG 1.1//EN"
 "http://www.w3.org/Graphics/SVG/1.1/DTD/svg11.dtd">
<!-- Generated by graphviz version 2.28.0 (20111028.1807)
 -->
<!-- Title: classes_models Pages: 1 -->
<svg width="2226pt" height="1184pt"
 viewBox="0.00 0.00 2226.00 1184.00" xmlns="http://www.w3.org/2000/svg" xmlns:xlink="http://www.w3.org/1999/xlink">
<g id="graph1" class="graph" transform="scale(1 1) rotate(0) translate(4 1180)">
<title>classes_models</title>
<polygon fill="white" stroke="white" points="-4,5 -4,-1180 2223,-1180 2223,5 -4,5"/>
<!-- 0 -->
<g id="node1" class="node"><title>0</title>
<polygon fill="none" stroke="black" points="-0.699219,-314.4 -0.699219,-825.6 210.699,-825.6 210.699,-314.4 -0.699219,-314.4"/>
<text text-anchor="middle" x="105" y="-807.6" font-family="Times,serif" font-size="14.00">BreakspearRobinsonRennieWright</text>
<polyline fill="none" stroke="black" points="-0.699219,-800.8 210.699,-800.8 "/>
<text text-anchor="start" x="7.30078" y="-782.8" font-family="Times,serif" font-size="14.00">cvar</text>
<text text-anchor="start" x="7.30078" y="-766" font-family="Times,serif" font-size="14.00">nu_ii : FloatArray</text>
<text text-anchor="start" x="7.30078" y="-749.2" font-family="Times,serif" font-size="14.00">nu_sr : FloatArray</text>
<text text-anchor="start" x="7.30078" y="-732.4" font-family="Times,serif" font-size="14.00">nu_ss : FloatArray</text>
<text text-anchor="start" x="7.30078" y="-715.6" font-family="Times,serif" font-size="14.00">nu_ie : FloatArray</text>
<text text-anchor="start" x="7.30078" y="-698.8" font-family="Times,serif" font-size="14.00">nu_sn : FloatArray</text>
<text text-anchor="start" x="7.30078" y="-682" font-family="Times,serif" font-size="14.00">nu_is : FloatArray</text>
<text text-anchor="start" x="7.30078" y="-665.2" font-family="Times,serif" font-size="14.00">nu_se : FloatArray</text>
<text text-anchor="start" x="7.30078" y="-648.4" font-family="Times,serif" font-size="14.00">nu_ei : FloatArray</text>
<text text-anchor="start" x="7.30078" y="-631.6" font-family="Times,serif" font-size="14.00">gamma_e : FloatArray</text>
<text text-anchor="start" x="7.30078" y="-614.8" font-family="Times,serif" font-size="14.00">chi : FloatArray</text>
<text text-anchor="start" x="7.30078" y="-598" font-family="Times,serif" font-size="14.00">sigma_n : FloatArray</text>
<text text-anchor="start" x="7.30078" y="-581.2" font-family="Times,serif" font-size="14.00">variables_of_interest : Enumerate</text>
<text text-anchor="start" x="7.30078" y="-564.4" font-family="Times,serif" font-size="14.00">theta : FloatArray</text>
<text text-anchor="start" x="7.30078" y="-547.6" font-family="Times,serif" font-size="14.00">nu_es : FloatArray</text>
<text text-anchor="start" x="7.30078" y="-530.8" font-family="Times,serif" font-size="14.00">nu_rs : FloatArray</text>
<text text-anchor="start" x="7.30078" y="-514" font-family="Times,serif" font-size="14.00">nu_rr : FloatArray</text>
<text text-anchor="start" x="7.30078" y="-497.2" font-family="Times,serif" font-size="14.00">beta : FloatArray</text>
<text text-anchor="start" x="7.30078" y="-480.4" font-family="Times,serif" font-size="14.00">alpha : FloatArray</text>
<text text-anchor="start" x="7.30078" y="-463.6" font-family="Times,serif" font-size="14.00">nu_re : FloatArray</text>
<text text-anchor="start" x="7.30078" y="-446.8" font-family="Times,serif" font-size="14.00">ui_configurable_parameters : list</text>
<text text-anchor="start" x="7.30078" y="-430" font-family="Times,serif" font-size="14.00">state_variable_range : Dict</text>
<text text-anchor="start" x="7.30078" y="-413.2" font-family="Times,serif" font-size="14.00">Q_max : FloatArray</text>
<text text-anchor="start" x="7.30078" y="-396.4" font-family="Times,serif" font-size="14.00">nu_ee : FloatArray</text>
<text text-anchor="start" x="7.30078" y="-379.6" font-family="Times,serif" font-size="14.00">t_0 : FloatArray</text>
<text text-anchor="start" x="7.30078" y="-362.8" font-family="Times,serif" font-size="14.00">sigma : FloatArray</text>
<polyline fill="none" stroke="black" points="-0.699219,-356 210.699,-356 "/>
<text text-anchor="start" x="7.30078" y="-338" font-family="Times,serif" font-size="14.00">dfun()</text>
<text text-anchor="start" x="7.30078" y="-321.2" font-family="Times,serif" font-size="14.00">sigma_fun()</text>
</g>
<!-- 7 -->
<g id="node8" class="node"><title>7</title>
<polygon fill="none" stroke="black" points="1066.86,-949.2 1066.86,-1174.8 1267.14,-1174.8 1267.14,-949.2 1066.86,-949.2"/>
<text text-anchor="middle" x="1167" y="-1156.8" font-family="Times,serif" font-size="14.00">Model</text>
<polyline fill="none" stroke="black" points="1066.86,-1150 1267.14,-1150 "/>
<text text-anchor="start" x="1074.86" y="-1132" font-family="Times,serif" font-size="14.00">number_of_modes : int</text>
<text text-anchor="start" x="1074.86" y="-1115.2" font-family="Times,serif" font-size="14.00">noise : Noise</text>
<text text-anchor="start" x="1074.86" y="-1098.4" font-family="Times,serif" font-size="14.00">ui_configurable_parameters : list</text>
<polyline fill="none" stroke="black" points="1066.86,-1091.6 1267.14,-1091.6 "/>
<text text-anchor="start" x="1074.86" y="-1073.6" font-family="Times,serif" font-size="14.00">dfun()</text>
<text text-anchor="start" x="1074.86" y="-1056.8" font-family="Times,serif" font-size="14.00">configure_initial()</text>
<text text-anchor="start" x="1074.86" y="-1040" font-family="Times,serif" font-size="14.00">configure()</text>
<text text-anchor="start" x="1074.86" y="-1023.2" font-family="Times,serif" font-size="14.00">stationary_trajectory()</text>
<text text-anchor="start" x="1074.86" y="-1006.4" font-family="Times,serif" font-size="14.00">nvar()</text>
<text text-anchor="start" x="1074.86" y="-989.6" font-family="Times,serif" font-size="14.00">initial()</text>
<text text-anchor="start" x="1074.86" y="-972.8" font-family="Times,serif" font-size="14.00">state_variables()</text>
<text text-anchor="start" x="1074.86" y="-956" font-family="Times,serif" font-size="14.00">update_derived_parameters()</text>
</g>
<!-- 0&#45;&gt;7 -->
<g id="edge2" class="edge"><title>0&#45;&gt;7</title>
<path fill="none" stroke="black" d="M156.358,-825.65C172.209,-857.675 192.927,-887.154 220,-910 344.84,-1015.35 834.731,-1047.92 1056.67,-1057.38"/>
<polygon fill="none" stroke="black" points="1056.57,-1060.88 1066.71,-1057.8 1056.86,-1053.88 1056.57,-1060.88"/>
</g>
<!-- 1 -->
<g id="node2" class="node"><title>1</title>
<polygon fill="none" stroke="black" points="2012.54,-490.8 2012.54,-649.2 2217.46,-649.2 2217.46,-490.8 2012.54,-490.8"/>
<text text-anchor="middle" x="2115" y="-631.2" font-family="Times,serif" font-size="14.00">ContinuousHopfield</text>
<polyline fill="none" stroke="black" points="2012.54,-624.4 2217.46,-624.4 "/>
<text text-anchor="start" x="2020.54" y="-606.4" font-family="Times,serif" font-size="14.00">cvar</text>
<text text-anchor="start" x="2020.54" y="-589.6" font-family="Times,serif" font-size="14.00">state_variable_range : Dict</text>
<text text-anchor="start" x="2020.54" y="-572.8" font-family="Times,serif" font-size="14.00">ui_configurable_parameters : list</text>
<text text-anchor="start" x="2020.54" y="-556" font-family="Times,serif" font-size="14.00">device_info</text>
<text text-anchor="start" x="2020.54" y="-539.2" font-family="Times,serif" font-size="14.00">variables_of_interest : Enumerate</text>
<text text-anchor="start" x="2020.54" y="-522.4" font-family="Times,serif" font-size="14.00">taux : FloatArray</text>
<polyline fill="none" stroke="black" points="2012.54,-515.6 2217.46,-515.6 "/>
<text text-anchor="start" x="2020.54" y="-497.6" font-family="Times,serif" font-size="14.00">dfun()</text>
</g>
<!-- 1&#45;&gt;7 -->
<g id="edge4" class="edge"><title>1&#45;&gt;7</title>
<path fill="none" stroke="black" d="M2111.3,-649.368C2103.21,-727.348 2078.34,-844.559 2003,-910 1896.03,-1002.91 1478.73,-1041.41 1277.17,-1054.84"/>
<polygon fill="none" stroke="black" points="1276.9,-1051.35 1267.15,-1055.5 1277.36,-1058.34 1276.9,-1051.35"/>
</g>
<!-- 2 -->
<g id="node3" class="node"><title>2</title>
<polygon fill="none" stroke="black" points="451.538,-398.4 451.538,-741.6 656.462,-741.6 656.462,-398.4 451.538,-398.4"/>
<text text-anchor="middle" x="554" y="-723.6" font-family="Times,serif" font-size="14.00">Generic2dOscillator</text>
<polyline fill="none" stroke="black" points="451.538,-716.8 656.462,-716.8 "/>
<text text-anchor="start" x="459.538" y="-698.8" font-family="Times,serif" font-size="14.00">derivative</text>
<text text-anchor="start" x="459.538" y="-682" font-family="Times,serif" font-size="14.00">cvar</text>
<text text-anchor="start" x="459.538" y="-665.2" font-family="Times,serif" font-size="14.00">a : FloatArray</text>
<text text-anchor="start" x="459.538" y="-648.4" font-family="Times,serif" font-size="14.00">tau : FloatArray</text>
<text text-anchor="start" x="459.538" y="-631.6" font-family="Times,serif" font-size="14.00">c : FloatArray</text>
<text text-anchor="start" x="459.538" y="-614.8" font-family="Times,serif" font-size="14.00">b : FloatArray</text>
<text text-anchor="start" x="459.538" y="-598" font-family="Times,serif" font-size="14.00">e : FloatArray</text>
<text text-anchor="start" x="459.538" y="-581.2" font-family="Times,serif" font-size="14.00">d : FloatArray</text>
<text text-anchor="start" x="459.538" y="-564.4" font-family="Times,serif" font-size="14.00">g : FloatArray</text>
<text text-anchor="start" x="459.538" y="-547.6" font-family="Times,serif" font-size="14.00">f : FloatArray</text>
<text text-anchor="start" x="459.538" y="-530.8" font-family="Times,serif" font-size="14.00">I : FloatArray</text>
<text text-anchor="start" x="459.538" y="-514" font-family="Times,serif" font-size="14.00">ui_configurable_parameters : list</text>
<text text-anchor="start" x="459.538" y="-497.2" font-family="Times,serif" font-size="14.00">beta : FloatArray</text>
<text text-anchor="start" x="459.538" y="-480.4" font-family="Times,serif" font-size="14.00">state_variable_range : Dict</text>
<text text-anchor="start" x="459.538" y="-463.6" font-family="Times,serif" font-size="14.00">device_info</text>
<text text-anchor="start" x="459.538" y="-446.8" font-family="Times,serif" font-size="14.00">variables_of_interest : Enumerate</text>
<text text-anchor="start" x="459.538" y="-430" font-family="Times,serif" font-size="14.00">alpha : FloatArray</text>
<polyline fill="none" stroke="black" points="451.538,-423.2 656.462,-423.2 "/>
<text text-anchor="start" x="459.538" y="-405.2" font-family="Times,serif" font-size="14.00">dfun()</text>
</g>
<!-- 2&#45;&gt;7 -->
<g id="edge6" class="edge"><title>2&#45;&gt;7</title>
<path fill="none" stroke="black" d="M577.19,-741.794C593.202,-801.878 620.266,-865.455 666,-910 771.495,-1012.75 944.277,-1045.92 1056.83,-1056.43"/>
<polygon fill="none" stroke="black" points="1056.58,-1059.92 1066.85,-1057.32 1057.2,-1052.95 1056.58,-1059.92"/>
</g>
<!-- 3 -->
<g id="node4" class="node"><title>3</title>
<polygon fill="none" stroke="black" points="249.91,-17.2 249.91,-158.8 412.09,-158.8 412.09,-17.2 249.91,-17.2"/>
<text text-anchor="middle" x="331" y="-140.8" font-family="Times,serif" font-size="14.00">JRFast</text>
<polyline fill="none" stroke="black" points="249.91,-134 412.09,-134 "/>
<text text-anchor="start" x="257.91" y="-116" font-family="Times,serif" font-size="14.00">dfunlocals : dict</text>
<text text-anchor="start" x="257.91" y="-99.2" font-family="Times,serif" font-size="14.00">invalid_dfun_cache : bool</text>
<text text-anchor="start" x="257.91" y="-82.4" font-family="Times,serif" font-size="14.00">dfunglobals : dict</text>
<text text-anchor="start" x="257.91" y="-65.6" font-family="Times,serif" font-size="14.00">dy</text>
<text text-anchor="start" x="257.91" y="-48.8" font-family="Times,serif" font-size="14.00">invalid_dfun_cache : bool</text>
<polyline fill="none" stroke="black" points="249.91,-42 412.09,-42 "/>
<text text-anchor="start" x="257.91" y="-24" font-family="Times,serif" font-size="14.00">dfun()</text>
</g>
<!-- 4 -->
<g id="node5" class="node"><title>4</title>
<polygon fill="none" stroke="black" points="228.538,-373.2 228.538,-766.8 433.462,-766.8 433.462,-373.2 228.538,-373.2"/>
<text text-anchor="middle" x="331" y="-748.8" font-family="Times,serif" font-size="14.00">JansenRit</text>
<polyline fill="none" stroke="black" points="228.538,-742 433.462,-742 "/>
<text text-anchor="start" x="236.538" y="-724" font-family="Times,serif" font-size="14.00">cvar</text>
<text text-anchor="start" x="236.538" y="-707.2" font-family="Times,serif" font-size="14.00">A : FloatArray</text>
<text text-anchor="start" x="236.538" y="-690.4" font-family="Times,serif" font-size="14.00">v0 : FloatArray</text>
<text text-anchor="start" x="236.538" y="-673.6" font-family="Times,serif" font-size="14.00">r : FloatArray</text>
<text text-anchor="start" x="236.538" y="-656.8" font-family="Times,serif" font-size="14.00">a_4 : FloatArray</text>
<text text-anchor="start" x="236.538" y="-640" font-family="Times,serif" font-size="14.00">a_3 : FloatArray</text>
<text text-anchor="start" x="236.538" y="-623.2" font-family="Times,serif" font-size="14.00">a_2 : FloatArray</text>
<text text-anchor="start" x="236.538" y="-606.4" font-family="Times,serif" font-size="14.00">a_1 : FloatArray</text>
<text text-anchor="start" x="236.538" y="-589.6" font-family="Times,serif" font-size="14.00">ui_configurable_parameters : list</text>
<text text-anchor="start" x="236.538" y="-572.8" font-family="Times,serif" font-size="14.00">state_variable_range : Dict</text>
<text text-anchor="start" x="236.538" y="-556" font-family="Times,serif" font-size="14.00">nu_max : FloatArray</text>
<text text-anchor="start" x="236.538" y="-539.2" font-family="Times,serif" font-size="14.00">J : FloatArray</text>
<text text-anchor="start" x="236.538" y="-522.4" font-family="Times,serif" font-size="14.00">p_min : FloatArray</text>
<text text-anchor="start" x="236.538" y="-505.6" font-family="Times,serif" font-size="14.00">mu : FloatArray</text>
<text text-anchor="start" x="236.538" y="-488.8" font-family="Times,serif" font-size="14.00">device_info</text>
<text text-anchor="start" x="236.538" y="-472" font-family="Times,serif" font-size="14.00">B : FloatArray</text>
<text text-anchor="start" x="236.538" y="-455.2" font-family="Times,serif" font-size="14.00">a : FloatArray</text>
<text text-anchor="start" x="236.538" y="-438.4" font-family="Times,serif" font-size="14.00">variables_of_interest : Enumerate</text>
<text text-anchor="start" x="236.538" y="-421.6" font-family="Times,serif" font-size="14.00">b : FloatArray</text>
<text text-anchor="start" x="236.538" y="-404.8" font-family="Times,serif" font-size="14.00">p_max : FloatArray</text>
<polyline fill="none" stroke="black" points="228.538,-398 433.462,-398 "/>
<text text-anchor="start" x="236.538" y="-380" font-family="Times,serif" font-size="14.00">dfun()</text>
</g>
<!-- 3&#45;&gt;4 -->
<g id="edge8" class="edge"><title>3&#45;&gt;4</title>
<path fill="none" stroke="black" d="M331,-159.053C331,-212.795 331,-289.887 331,-362.746"/>
<polygon fill="none" stroke="black" points="327.5,-362.995 331,-372.995 334.5,-362.995 327.5,-362.995"/>
</g>
<!-- 4&#45;&gt;7 -->
<g id="edge10" class="edge"><title>4&#45;&gt;7</title>
<path fill="none" stroke="black" d="M358.706,-766.907C375.182,-819.928 401.381,-872.855 443,-910 532.492,-989.873 877.017,-1033.59 1056.63,-1051.38"/>
<polygon fill="none" stroke="black" points="1056.34,-1054.87 1066.64,-1052.36 1057.03,-1047.9 1056.34,-1054.87"/>
</g>
<!-- 5 -->
<g id="node6" class="node"><title>5</title>
<polygon fill="none" stroke="black" points="674.538,-482.4 674.538,-657.6 879.462,-657.6 879.462,-482.4 674.538,-482.4"/>
<text text-anchor="middle" x="777" y="-639.6" font-family="Times,serif" font-size="14.00">Kuramoto</text>
<polyline fill="none" stroke="black" points="674.538,-632.8 879.462,-632.8 "/>
<text text-anchor="start" x="682.538" y="-614.8" font-family="Times,serif" font-size="14.00">derivative</text>
<text text-anchor="start" x="682.538" y="-598" font-family="Times,serif" font-size="14.00">cvar</text>
<text text-anchor="start" x="682.538" y="-581.2" font-family="Times,serif" font-size="14.00">state_variable_range : Dict</text>
<text text-anchor="start" x="682.538" y="-564.4" font-family="Times,serif" font-size="14.00">ui_configurable_parameters : list</text>
<text text-anchor="start" x="682.538" y="-547.6" font-family="Times,serif" font-size="14.00">device_info</text>
<text text-anchor="start" x="682.538" y="-530.8" font-family="Times,serif" font-size="14.00">variables_of_interest : Enumerate</text>
<text text-anchor="start" x="682.538" y="-514" font-family="Times,serif" font-size="14.00">omega : FloatArray</text>
<polyline fill="none" stroke="black" points="674.538,-507.2 879.462,-507.2 "/>
<text text-anchor="start" x="682.538" y="-489.2" font-family="Times,serif" font-size="14.00">dfun()</text>
</g>
<!-- 5&#45;&gt;7 -->
<g id="edge12" class="edge"><title>5&#45;&gt;7</title>
<path fill="none" stroke="black" d="M787.585,-657.96C800.52,-732.101 828.682,-837.827 889,-910 932.873,-962.497 999.871,-999.657 1057.1,-1023.98"/>
<polygon fill="none" stroke="black" points="1055.99,-1027.3 1066.56,-1027.92 1058.68,-1020.84 1055.99,-1027.3"/>
</g>
<!-- 6 -->
<g id="node7" class="node"><title>6</title>
<polygon fill="none" stroke="black" points="1120.54,-247.2 1120.54,-892.8 1325.46,-892.8 1325.46,-247.2 1120.54,-247.2"/>
<text text-anchor="middle" x="1223" y="-874.8" font-family="Times,serif" font-size="14.00">LarterBreakspear</text>
<polyline fill="none" stroke="black" points="1120.54,-868 1325.46,-868 "/>
<text text-anchor="start" x="1128.54" y="-850" font-family="Times,serif" font-size="14.00">cvar</text>
<text text-anchor="start" x="1128.54" y="-833.2" font-family="Times,serif" font-size="14.00">ane : FloatArray</text>
<text text-anchor="start" x="1128.54" y="-816.4" font-family="Times,serif" font-size="14.00">tau_K : FloatArray</text>
<text text-anchor="start" x="1128.54" y="-799.6" font-family="Times,serif" font-size="14.00">VNa : FloatArray</text>
<text text-anchor="start" x="1128.54" y="-782.8" font-family="Times,serif" font-size="14.00">phi : FloatArray</text>
<text text-anchor="start" x="1128.54" y="-766" font-family="Times,serif" font-size="14.00">QZ_max : FloatArray</text>
<text text-anchor="start" x="1128.54" y="-749.2" font-family="Times,serif" font-size="14.00">gNa : FloatArray</text>
<text text-anchor="start" x="1128.54" y="-732.4" font-family="Times,serif" font-size="14.00">gCa : FloatArray</text>
<text text-anchor="start" x="1128.54" y="-715.6" font-family="Times,serif" font-size="14.00">TCa : FloatArray</text>
<text text-anchor="start" x="1128.54" y="-698.8" font-family="Times,serif" font-size="14.00">d_Na : FloatArray</text>
<text text-anchor="start" x="1128.54" y="-682" font-family="Times,serif" font-size="14.00">rNMDA : FloatArray</text>
<text text-anchor="start" x="1128.54" y="-665.2" font-family="Times,serif" font-size="14.00">state_variable_range : Dict</text>
<text text-anchor="start" x="1128.54" y="-648.4" font-family="Times,serif" font-size="14.00">TK : FloatArray</text>
<text text-anchor="start" x="1128.54" y="-631.6" font-family="Times,serif" font-size="14.00">variables_of_interest : Enumerate</text>
<text text-anchor="start" x="1128.54" y="-614.8" font-family="Times,serif" font-size="14.00">TNa : FloatArray</text>
<text text-anchor="start" x="1128.54" y="-598" font-family="Times,serif" font-size="14.00">gL : FloatArray</text>
<text text-anchor="start" x="1128.54" y="-581.2" font-family="Times,serif" font-size="14.00">gK : FloatArray</text>
<text text-anchor="start" x="1128.54" y="-564.4" font-family="Times,serif" font-size="14.00">d_Z : FloatArray</text>
<text text-anchor="start" x="1128.54" y="-547.6" font-family="Times,serif" font-size="14.00">C : FloatArray</text>
<text text-anchor="start" x="1128.54" y="-530.8" font-family="Times,serif" font-size="14.00">d_V : FloatArray</text>
<text text-anchor="start" x="1128.54" y="-514" font-family="Times,serif" font-size="14.00">VK : FloatArray</text>
<text text-anchor="start" x="1128.54" y="-497.2" font-family="Times,serif" font-size="14.00">VL : FloatArray</text>
<text text-anchor="start" x="1128.54" y="-480.4" font-family="Times,serif" font-size="14.00">ani : FloatArray</text>
<text text-anchor="start" x="1128.54" y="-463.6" font-family="Times,serif" font-size="14.00">d_K : FloatArray</text>
<text text-anchor="start" x="1128.54" y="-446.8" font-family="Times,serif" font-size="14.00">VT : FloatArray</text>
<text text-anchor="start" x="1128.54" y="-430" font-family="Times,serif" font-size="14.00">ZT : FloatArray</text>
<text text-anchor="start" x="1128.54" y="-413.2" font-family="Times,serif" font-size="14.00">VCa : FloatArray</text>
<text text-anchor="start" x="1128.54" y="-396.4" font-family="Times,serif" font-size="14.00">b : FloatArray</text>
<text text-anchor="start" x="1128.54" y="-379.6" font-family="Times,serif" font-size="14.00">d_Ca : FloatArray</text>
<text text-anchor="start" x="1128.54" y="-362.8" font-family="Times,serif" font-size="14.00">aee : FloatArray</text>
<text text-anchor="start" x="1128.54" y="-346" font-family="Times,serif" font-size="14.00">Iext : FloatArray</text>
<text text-anchor="start" x="1128.54" y="-329.2" font-family="Times,serif" font-size="14.00">ui_configurable_parameters : list</text>
<text text-anchor="start" x="1128.54" y="-312.4" font-family="Times,serif" font-size="14.00">aie : FloatArray</text>
<text text-anchor="start" x="1128.54" y="-295.6" font-family="Times,serif" font-size="14.00">aei : FloatArray</text>
<text text-anchor="start" x="1128.54" y="-278.8" font-family="Times,serif" font-size="14.00">QV_max : FloatArray</text>
<polyline fill="none" stroke="black" points="1120.54,-272 1325.46,-272 "/>
<text text-anchor="start" x="1128.54" y="-254" font-family="Times,serif" font-size="14.00">dfun()</text>
</g>
<!-- 6&#45;&gt;7 -->
<g id="edge14" class="edge"><title>6&#45;&gt;7</title>
<path fill="none" stroke="black" d="M1186.19,-893.055C1184.37,-908.978 1182.61,-924.417 1180.94,-939.063"/>
<polygon fill="none" stroke="black" points="1177.45,-938.74 1179.79,-949.072 1184.4,-939.535 1177.45,-938.74"/>
</g>
<!-- 8 -->
<g id="node9" class="node"><title>8</title>
<polygon fill="none" stroke="black" points="897.538,-314.4 897.538,-825.6 1102.46,-825.6 1102.46,-314.4 897.538,-314.4"/>
<text text-anchor="middle" x="1000" y="-807.6" font-family="Times,serif" font-size="14.00">ReducedSetFitzHughNagumo</text>
<polyline fill="none" stroke="black" points="897.538,-800.8 1102.46,-800.8 "/>
<text text-anchor="start" x="905.538" y="-782.8" font-family="Times,serif" font-size="14.00">cvar</text>
<text text-anchor="start" x="905.538" y="-766" font-family="Times,serif" font-size="14.00">number_of_modes : int</text>
<text text-anchor="start" x="905.538" y="-749.2" font-family="Times,serif" font-size="14.00">Bik : NoneType</text>
<text text-anchor="start" x="905.538" y="-732.4" font-family="Times,serif" font-size="14.00">Cik : NoneType</text>
<text text-anchor="start" x="905.538" y="-715.6" font-family="Times,serif" font-size="14.00">Aik : NoneType</text>
<text text-anchor="start" x="905.538" y="-698.8" font-family="Times,serif" font-size="14.00">f_i : NoneType</text>
<text text-anchor="start" x="905.538" y="-682" font-family="Times,serif" font-size="14.00">m_i : NoneType</text>
<text text-anchor="start" x="905.538" y="-665.2" font-family="Times,serif" font-size="14.00">n_i : NoneType</text>
<text text-anchor="start" x="905.538" y="-648.4" font-family="Times,serif" font-size="14.00">II_i : NoneType</text>
<text text-anchor="start" x="905.538" y="-631.6" font-family="Times,serif" font-size="14.00">e_i : NoneType</text>
<text text-anchor="start" x="905.538" y="-614.8" font-family="Times,serif" font-size="14.00">nu : int</text>
<text text-anchor="start" x="905.538" y="-598" font-family="Times,serif" font-size="14.00">nv : int</text>
<text text-anchor="start" x="905.538" y="-581.2" font-family="Times,serif" font-size="14.00">IE_i : NoneType</text>
<text text-anchor="start" x="905.538" y="-564.4" font-family="Times,serif" font-size="14.00">a : FloatArray</text>
<text text-anchor="start" x="905.538" y="-547.6" font-family="Times,serif" font-size="14.00">tau : FloatArray</text>
<text text-anchor="start" x="905.538" y="-530.8" font-family="Times,serif" font-size="14.00">K11 : FloatArray</text>
<text text-anchor="start" x="905.538" y="-514" font-family="Times,serif" font-size="14.00">b : FloatArray</text>
<text text-anchor="start" x="905.538" y="-497.2" font-family="Times,serif" font-size="14.00">K12 : FloatArray</text>
<text text-anchor="start" x="905.538" y="-480.4" font-family="Times,serif" font-size="14.00">state_variable_range : Dict</text>
<text text-anchor="start" x="905.538" y="-463.6" font-family="Times,serif" font-size="14.00">K21 : FloatArray</text>
<text text-anchor="start" x="905.538" y="-446.8" font-family="Times,serif" font-size="14.00">mu : FloatArray</text>
<text text-anchor="start" x="905.538" y="-430" font-family="Times,serif" font-size="14.00">ui_configurable_parameters : list</text>
<text text-anchor="start" x="905.538" y="-413.2" font-family="Times,serif" font-size="14.00">device_info</text>
<text text-anchor="start" x="905.538" y="-396.4" font-family="Times,serif" font-size="14.00">variables_of_interest : Enumerate</text>
<text text-anchor="start" x="905.538" y="-379.6" font-family="Times,serif" font-size="14.00">sigma : FloatArray</text>
<polyline fill="none" stroke="black" points="897.538,-372.8 1102.46,-372.8 "/>
<text text-anchor="start" x="905.538" y="-354.8" font-family="Times,serif" font-size="14.00">configure()</text>
<text text-anchor="start" x="905.538" y="-338" font-family="Times,serif" font-size="14.00">dfun()</text>
<text text-anchor="start" x="905.538" y="-321.2" font-family="Times,serif" font-size="14.00">update_derived_parameters()</text>
</g>
<!-- 8&#45;&gt;7 -->
<g id="edge16" class="edge"><title>8&#45;&gt;7</title>
<path fill="none" stroke="black" d="M1083.26,-825.805C1092.83,-854.252 1102.55,-882.773 1112,-910 1115.33,-919.587 1118.82,-929.498 1122.37,-939.448"/>
<polygon fill="none" stroke="black" points="1119.11,-940.751 1125.78,-948.99 1125.71,-938.396 1119.11,-940.751"/>
</g>
<!-- 9 -->
<g id="node10" class="node"><title>9</title>
<polygon fill="none" stroke="black" points="1343.54,-230.4 1343.54,-909.6 1548.46,-909.6 1548.46,-230.4 1343.54,-230.4"/>
<text text-anchor="middle" x="1446" y="-891.6" font-family="Times,serif" font-size="14.00">ReducedSetHindmarshRose</text>
<polyline fill="none" stroke="black" points="1343.54,-884.8 1548.46,-884.8 "/>
<text text-anchor="start" x="1351.54" y="-866.8" font-family="Times,serif" font-size="14.00">b_i : NoneType</text>
<text text-anchor="start" x="1351.54" y="-850" font-family="Times,serif" font-size="14.00">cvar</text>
<text text-anchor="start" x="1351.54" y="-833.2" font-family="Times,serif" font-size="14.00">number_of_modes : int</text>
<text text-anchor="start" x="1351.54" y="-816.4" font-family="Times,serif" font-size="14.00">p_i : NoneType</text>
<text text-anchor="start" x="1351.54" y="-799.6" font-family="Times,serif" font-size="14.00">c_i : NoneType</text>
<text text-anchor="start" x="1351.54" y="-782.8" font-family="Times,serif" font-size="14.00">B_ik : NoneType</text>
<text text-anchor="start" x="1351.54" y="-766" font-family="Times,serif" font-size="14.00">f_i : NoneType</text>
<text text-anchor="start" x="1351.54" y="-749.2" font-family="Times,serif" font-size="14.00">C_ik : NoneType</text>
<text text-anchor="start" x="1351.54" y="-732.4" font-family="Times,serif" font-size="14.00">nu : int</text>
<text text-anchor="start" x="1351.54" y="-715.6" font-family="Times,serif" font-size="14.00">m_i : NoneType</text>
<text text-anchor="start" x="1351.54" y="-698.8" font-family="Times,serif" font-size="14.00">n_i : NoneType</text>
<text text-anchor="start" x="1351.54" y="-682" font-family="Times,serif" font-size="14.00">II_i : NoneType</text>
<text text-anchor="start" x="1351.54" y="-665.2" font-family="Times,serif" font-size="14.00">A_ik : NoneType</text>
<text text-anchor="start" x="1351.54" y="-648.4" font-family="Times,serif" font-size="14.00">e_i : NoneType</text>
<text text-anchor="start" x="1351.54" y="-631.6" font-family="Times,serif" font-size="14.00">h_i : NoneType</text>
<text text-anchor="start" x="1351.54" y="-614.8" font-family="Times,serif" font-size="14.00">d_i : NoneType</text>
<text text-anchor="start" x="1351.54" y="-598" font-family="Times,serif" font-size="14.00">IE_i : NoneType</text>
<text text-anchor="start" x="1351.54" y="-581.2" font-family="Times,serif" font-size="14.00">a_i : NoneType</text>
<text text-anchor="start" x="1351.54" y="-564.4" font-family="Times,serif" font-size="14.00">nv : int</text>
<text text-anchor="start" x="1351.54" y="-547.6" font-family="Times,serif" font-size="14.00">a : FloatArray</text>
<text text-anchor="start" x="1351.54" y="-530.8" font-family="Times,serif" font-size="14.00">K12 : FloatArray</text>
<text text-anchor="start" x="1351.54" y="-514" font-family="Times,serif" font-size="14.00">c : FloatArray</text>
<text text-anchor="start" x="1351.54" y="-497.2" font-family="Times,serif" font-size="14.00">b : FloatArray</text>
<text text-anchor="start" x="1351.54" y="-480.4" font-family="Times,serif" font-size="14.00">d : FloatArray</text>
<text text-anchor="start" x="1351.54" y="-463.6" font-family="Times,serif" font-size="14.00">state_variable_range : Dict</text>
<text text-anchor="start" x="1351.54" y="-446.8" font-family="Times,serif" font-size="14.00">K21 : FloatArray</text>
<text text-anchor="start" x="1351.54" y="-430" font-family="Times,serif" font-size="14.00">K11 : FloatArray</text>
<text text-anchor="start" x="1351.54" y="-413.2" font-family="Times,serif" font-size="14.00">mu : FloatArray</text>
<text text-anchor="start" x="1351.54" y="-396.4" font-family="Times,serif" font-size="14.00">ui_configurable_parameters : list</text>
<text text-anchor="start" x="1351.54" y="-379.6" font-family="Times,serif" font-size="14.00">s : FloatArray</text>
<text text-anchor="start" x="1351.54" y="-362.8" font-family="Times,serif" font-size="14.00">r : FloatArray</text>
<text text-anchor="start" x="1351.54" y="-346" font-family="Times,serif" font-size="14.00">variables_of_interest : Enumerate</text>
<text text-anchor="start" x="1351.54" y="-329.2" font-family="Times,serif" font-size="14.00">device_info</text>
<text text-anchor="start" x="1351.54" y="-312.4" font-family="Times,serif" font-size="14.00">sigma : FloatArray</text>
<text text-anchor="start" x="1351.54" y="-295.6" font-family="Times,serif" font-size="14.00">xo : FloatArray</text>
<polyline fill="none" stroke="black" points="1343.54,-288.8 1548.46,-288.8 "/>
<text text-anchor="start" x="1351.54" y="-270.8" font-family="Times,serif" font-size="14.00">dfun()</text>
<text text-anchor="start" x="1351.54" y="-254" font-family="Times,serif" font-size="14.00">update_derived_parameters()</text>
<text text-anchor="start" x="1351.54" y="-237.2" font-family="Times,serif" font-size="14.00">configure()</text>
</g>
<!-- 9&#45;&gt;7 -->
<g id="edge18" class="edge"><title>9&#45;&gt;7</title>
<path fill="none" stroke="black" d="M1343.39,-894.911C1340.34,-900.032 1337.21,-905.066 1334,-910 1317.8,-934.864 1296.53,-958.261 1274.61,-978.874"/>
<polygon fill="none" stroke="black" points="1272.13,-976.4 1267.15,-985.755 1276.87,-981.542 1272.13,-976.4"/>
</g>
<!-- 10 -->
<g id="node11" class="node"><title>10</title>
<polygon fill="none" stroke="black" points="1789.54,-432 1789.54,-708 1994.46,-708 1994.46,-432 1789.54,-432"/>
<text text-anchor="middle" x="1892" y="-690" font-family="Times,serif" font-size="14.00">ReducedWongWang</text>
<polyline fill="none" stroke="black" points="1789.54,-683.2 1994.46,-683.2 "/>
<text text-anchor="start" x="1797.54" y="-665.2" font-family="Times,serif" font-size="14.00">cvar</text>
<text text-anchor="start" x="1797.54" y="-648.4" font-family="Times,serif" font-size="14.00">a : FloatArray</text>
<text text-anchor="start" x="1797.54" y="-631.6" font-family="Times,serif" font-size="14.00">I_o : FloatArray</text>
<text text-anchor="start" x="1797.54" y="-614.8" font-family="Times,serif" font-size="14.00">b : FloatArray</text>
<text text-anchor="start" x="1797.54" y="-598" font-family="Times,serif" font-size="14.00">d : FloatArray</text>
<text text-anchor="start" x="1797.54" y="-581.2" font-family="Times,serif" font-size="14.00">state_variable_range : Dict</text>
<text text-anchor="start" x="1797.54" y="-564.4" font-family="Times,serif" font-size="14.00">J_N : FloatArray</text>
<text text-anchor="start" x="1797.54" y="-547.6" font-family="Times,serif" font-size="14.00">tau_s : FloatArray</text>
<text text-anchor="start" x="1797.54" y="-530.8" font-family="Times,serif" font-size="14.00">sigma_noise : FloatArray</text>
<text text-anchor="start" x="1797.54" y="-514" font-family="Times,serif" font-size="14.00">w : FloatArray</text>
<text text-anchor="start" x="1797.54" y="-497.2" font-family="Times,serif" font-size="14.00">variables_of_interest : Enumerate</text>
<text text-anchor="start" x="1797.54" y="-480.4" font-family="Times,serif" font-size="14.00">gamma : FloatArray</text>
<polyline fill="none" stroke="black" points="1789.54,-473.6 1994.46,-473.6 "/>
<text text-anchor="start" x="1797.54" y="-455.6" font-family="Times,serif" font-size="14.00">dfun()</text>
<text text-anchor="start" x="1797.54" y="-438.8" font-family="Times,serif" font-size="14.00">configure()</text>
</g>
<!-- 10&#45;&gt;7 -->
<g id="edge20" class="edge"><title>10&#45;&gt;7</title>
<path fill="none" stroke="black" d="M1878.12,-708.076C1864.11,-777.614 1836.07,-858.116 1780,-910 1707.53,-977.058 1433.44,-1024.52 1277.42,-1046.75"/>
<polygon fill="none" stroke="black" points="1276.73,-1043.32 1267.32,-1048.18 1277.71,-1050.25 1276.73,-1043.32"/>
</g>
<!-- 11 -->
<g id="node12" class="node"><title>11</title>
<polygon fill="none" stroke="black" points="1566.54,-364.8 1566.54,-775.2 1771.46,-775.2 1771.46,-364.8 1566.54,-364.8"/>
<text text-anchor="middle" x="1669" y="-757.2" font-family="Times,serif" font-size="14.00">WilsonCowan</text>
<polyline fill="none" stroke="black" points="1566.54,-750.4 1771.46,-750.4 "/>
<text text-anchor="start" x="1574.54" y="-732.4" font-family="Times,serif" font-size="14.00">cvar</text>
<text text-anchor="start" x="1574.54" y="-715.6" font-family="Times,serif" font-size="14.00">Q : FloatArray</text>
<text text-anchor="start" x="1574.54" y="-698.8" font-family="Times,serif" font-size="14.00">theta_e : FloatArray</text>
<text text-anchor="start" x="1574.54" y="-682" font-family="Times,serif" font-size="14.00">k_i : FloatArray</text>
<text text-anchor="start" x="1574.54" y="-665.2" font-family="Times,serif" font-size="14.00">P : FloatArray</text>
<text text-anchor="start" x="1574.54" y="-648.4" font-family="Times,serif" font-size="14.00">tau_i : FloatArray</text>
<text text-anchor="start" x="1574.54" y="-631.6" font-family="Times,serif" font-size="14.00">state_variable_range : Dict</text>
<text text-anchor="start" x="1574.54" y="-614.8" font-family="Times,serif" font-size="14.00">tau_e : FloatArray</text>
<text text-anchor="start" x="1574.54" y="-598" font-family="Times,serif" font-size="14.00">device_info</text>
<text text-anchor="start" x="1574.54" y="-581.2" font-family="Times,serif" font-size="14.00">theta_i : FloatArray</text>
<text text-anchor="start" x="1574.54" y="-564.4" font-family="Times,serif" font-size="14.00">c_1 : FloatArray</text>
<text text-anchor="start" x="1574.54" y="-547.6" font-family="Times,serif" font-size="14.00">r_i : FloatArray</text>
<text text-anchor="start" x="1574.54" y="-530.8" font-family="Times,serif" font-size="14.00">c_3 : FloatArray</text>
<text text-anchor="start" x="1574.54" y="-514" font-family="Times,serif" font-size="14.00">c_2 : FloatArray</text>
<text text-anchor="start" x="1574.54" y="-497.2" font-family="Times,serif" font-size="14.00">a_e : FloatArray</text>
<text text-anchor="start" x="1574.54" y="-480.4" font-family="Times,serif" font-size="14.00">c_4 : FloatArray</text>
<text text-anchor="start" x="1574.54" y="-463.6" font-family="Times,serif" font-size="14.00">variables_of_interest : Enumerate</text>
<text text-anchor="start" x="1574.54" y="-446.8" font-family="Times,serif" font-size="14.00">ui_configurable_parameters : list</text>
<text text-anchor="start" x="1574.54" y="-430" font-family="Times,serif" font-size="14.00">k_e : FloatArray</text>
<text text-anchor="start" x="1574.54" y="-413.2" font-family="Times,serif" font-size="14.00">r_e : FloatArray</text>
<text text-anchor="start" x="1574.54" y="-396.4" font-family="Times,serif" font-size="14.00">a_i : FloatArray</text>
<polyline fill="none" stroke="black" points="1566.54,-389.6 1771.46,-389.6 "/>
<text text-anchor="start" x="1574.54" y="-371.6" font-family="Times,serif" font-size="14.00">dfun()</text>
</g>
<!-- 11&#45;&gt;7 -->
<g id="edge22" class="edge"><title>11&#45;&gt;7</title>
<path fill="none" stroke="black" d="M1633.11,-775.567C1616.54,-824.271 1592.34,-872.831 1557,-910 1483.05,-987.768 1364.49,-1026.07 1277.48,-1044.56"/>
<polygon fill="none" stroke="black" points="1276.65,-1041.15 1267.56,-1046.61 1278.06,-1048.01 1276.65,-1041.15"/>
</g>
<!-- 12 -->
<g id="node13" class="node"><title>12</title>
<polygon fill="none" stroke="black" points="937.962,-0.4 937.962,-175.6 1062.04,-175.6 1062.04,-0.4 937.962,-0.4"/>
<text text-anchor="middle" x="1000" y="-157.6" font-family="Times,serif" font-size="14.00">model_device_info</text>
<polyline fill="none" stroke="black" points="937.962,-150.8 1062.04,-150.8 "/>
<text text-anchor="start" x="945.962" y="-132.8" font-family="Times,serif" font-size="14.00">inst</text>
<polyline fill="none" stroke="black" points="937.962,-126 1062.04,-126 "/>
<text text-anchor="start" x="945.962" y="-108" font-family="Times,serif" font-size="14.00">n_cvar()</text>
<text text-anchor="start" x="945.962" y="-91.2" font-family="Times,serif" font-size="14.00">cvar()</text>
<text text-anchor="start" x="945.962" y="-74.4" font-family="Times,serif" font-size="14.00">kernel()</text>
<text text-anchor="start" x="945.962" y="-57.6" font-family="Times,serif" font-size="14.00">n_mode()</text>
<text text-anchor="start" x="945.962" y="-40.8" font-family="Times,serif" font-size="14.00">n_svar()</text>
<text text-anchor="start" x="945.962" y="-24" font-family="Times,serif" font-size="14.00">n_mmpr()</text>
<text text-anchor="start" x="945.962" y="-7.2" font-family="Times,serif" font-size="14.00">mmpr()</text>
</g>
<!-- 12&#45;&gt;1 -->
<g id="edge24" class="edge"><title>12&#45;&gt;1</title>
<path fill="none" stroke="black" d="M1062.18,-89.4251C1258.24,-92.0052 1858.99,-109.763 2003,-230 2075.94,-290.899 2101.68,-400.424 2110.6,-478.501"/>
<polygon fill="black" stroke="black" points="2110.64,-478.816 2115.24,-484.363 2111.89,-490.75 2107.29,-485.202 2110.64,-478.816"/>
<text text-anchor="middle" x="1999.04" y="-197.4" font-family="Times,serif" font-size="14.00" fill="green">device_info</text>
</g>
<!-- 12&#45;&gt;2 -->
<g id="edge26" class="edge"><title>12&#45;&gt;2</title>
<path fill="none" stroke="black" d="M937.798,-99.2171C863.129,-114.666 738.88,-151.014 666,-230 626.17,-273.167 600.481,-330.825 583.921,-386.332"/>
<polygon fill="black" stroke="black" points="583.843,-386.605 586.028,-393.477 580.525,-398.137 578.34,-391.265 583.843,-386.605"/>
<text text-anchor="middle" x="735.042" y="-197.4" font-family="Times,serif" font-size="14.00" fill="green">device_info</text>
</g>
<!-- 12&#45;&gt;4 -->
<g id="edge28" class="edge"><title>12&#45;&gt;4</title>
<path fill="none" stroke="black" d="M937.82,-97.1381C808.206,-115.277 515.178,-162.783 443,-230 405.521,-264.903 380.568,-312.59 363.959,-361.173"/>
<polygon fill="black" stroke="black" points="363.863,-361.466 365.794,-368.414 360.124,-372.868 358.193,-365.92 363.863,-361.466"/>
<text text-anchor="middle" x="535.042" y="-197.4" font-family="Times,serif" font-size="14.00" fill="green">device_info</text>
</g>
<!-- 12&#45;&gt;5 -->
<g id="edge30" class="edge"><title>12&#45;&gt;5</title>
<path fill="none" stroke="black" d="M937.827,-158.092C920.322,-179.99 902.417,-205.026 889,-230 847.959,-306.391 818.325,-400.535 799.888,-470.212"/>
<polygon fill="black" stroke="black" points="799.829,-470.439 802.185,-477.255 796.801,-482.051 794.444,-475.236 799.829,-470.439"/>
<text text-anchor="middle" x="943.042" y="-197.4" font-family="Times,serif" font-size="14.00" fill="green">device_info</text>
</g>
<!-- 12&#45;&gt;8 -->
<g id="edge32" class="edge"><title>12&#45;&gt;8</title>
<path fill="none" stroke="black" d="M1000,-175.646C1000,-211.962 1000,-256.338 1000,-302.034"/>
<polygon fill="black" stroke="black" points="1000,-302.312 1004,-308.312 1000,-314.312 996,-308.312 1000,-302.312"/>
<text text-anchor="middle" x="1033.04" y="-197.4" font-family="Times,serif" font-size="14.00" fill="green">device_info</text>
</g>
<!-- 12&#45;&gt;9 -->
<g id="edge34" class="edge"><title>12&#45;&gt;9</title>
<path fill="none" stroke="black" d="M1062.2,-99.2171C1136.87,-114.666 1261.12,-151.014 1334,-230 1334.51,-230.552 1335.02,-231.106 1335.52,-231.662"/>
<polygon fill="black" stroke="black" points="1335.64,-231.799 1342.59,-233.718 1343.49,-240.873 1336.54,-238.954 1335.64,-231.799"/>
<text text-anchor="middle" x="1347.04" y="-197.4" font-family="Times,serif" font-size="14.00" fill="green">device_info</text>
</g>
<!-- 12&#45;&gt;11 -->
<g id="edge36" class="edge"><title>12&#45;&gt;11</title>
<path fill="none" stroke="black" d="M1062.18,-97.1381C1191.79,-115.277 1484.82,-162.783 1557,-230 1592.41,-262.975 1616.64,-307.362 1633.21,-353.135"/>
<polygon fill="black" stroke="black" points="1633.22,-353.145 1638.97,-357.498 1637.16,-364.479 1631.41,-360.126 1633.22,-353.145"/>
<text text-anchor="middle" x="1561.04" y="-197.4" font-family="Times,serif" font-size="14.00" fill="green">device_info</text>
</g>
</g>
</svg>
