<?xml version="1.0" encoding="UTF-8" standalone="no"?>
<!DOCTYPE svg PUBLIC "-//W3C//DTD SVG 1.1//EN"
 "http://www.w3.org/Graphics/SVG/1.1/DTD/svg11.dtd">
<!-- Generated by graphviz version 2.28.0 (20111028.1807)
 -->
<!-- Title: classes_monitors Pages: 1 -->
<svg width="2364pt" height="592pt"
 viewBox="0.00 0.00 2364.00 592.00" xmlns="http://www.w3.org/2000/svg" xmlns:xlink="http://www.w3.org/1999/xlink">
<g id="graph1" class="graph" transform="scale(1 1) rotate(0) translate(4 588)">
<title>classes_monitors</title>
<polygon fill="white" stroke="white" points="-4,5 -4,-588 2361,-588 2361,5 -4,5"/>
<!-- 2 -->
<g id="node1" class="node"><title>2</title>
<polygon fill="none" stroke="black" points="-0.652832,-229.2 -0.652832,-370.8 184.653,-370.8 184.653,-229.2 -0.652832,-229.2"/>
<text text-anchor="middle" x="92" y="-352.8" font-family="Times,serif" font-size="14.00">SEEG</text>
<polyline fill="none" stroke="black" points="-0.652832,-346 184.653,-346 "/>
<text text-anchor="start" x="7.34717" y="-328" font-family="Times,serif" font-size="14.00">projection_matrix : NoneType</text>
<text text-anchor="start" x="7.34717" y="-311.2" font-family="Times,serif" font-size="14.00">sensors : SensorsInternal</text>
<text text-anchor="start" x="7.34717" y="-294.4" font-family="Times,serif" font-size="14.00">sensors : SensorsInternal</text>
<text text-anchor="start" x="7.34717" y="-277.6" font-family="Times,serif" font-size="14.00">sigma : Float</text>
<polyline fill="none" stroke="black" points="-0.652832,-270.8 184.653,-270.8 "/>
<text text-anchor="start" x="7.34717" y="-252.8" font-family="Times,serif" font-size="14.00">config_for_sim()</text>
<text text-anchor="start" x="7.34717" y="-236" font-family="Times,serif" font-size="14.00">record()</text>
</g>
<!-- 5 -->
<g id="node4" class="node"><title>5</title>
<polygon fill="none" stroke="black" points="1081.71,-424.8 1081.71,-583.2 1298.29,-583.2 1298.29,-424.8 1081.71,-424.8"/>
<text text-anchor="middle" x="1190" y="-565.2" font-family="Times,serif" font-size="14.00">Monitor</text>
<polyline fill="none" stroke="black" points="1081.71,-558.4 1298.29,-558.4 "/>
<text text-anchor="start" x="1089.71" y="-540.4" font-family="Times,serif" font-size="14.00">dt : NoneType</text>
<text text-anchor="start" x="1089.71" y="-523.6" font-family="Times,serif" font-size="14.00">voi : NoneType</text>
<text text-anchor="start" x="1089.71" y="-506.8" font-family="Times,serif" font-size="14.00">istep : NoneType, int</text>
<text text-anchor="start" x="1089.71" y="-490" font-family="Times,serif" font-size="14.00">period : Float</text>
<text text-anchor="start" x="1089.71" y="-473.2" font-family="Times,serif" font-size="14.00">variables_of_interest : IntegerArray</text>
<polyline fill="none" stroke="black" points="1081.71,-466.4 1298.29,-466.4 "/>
<text text-anchor="start" x="1089.71" y="-448.4" font-family="Times,serif" font-size="14.00">config_for_sim()</text>
<text text-anchor="start" x="1089.71" y="-431.6" font-family="Times,serif" font-size="14.00">record()</text>
</g>
<!-- 2&#45;&gt;5 -->
<g id="edge2" class="edge"><title>2&#45;&gt;5</title>
<path fill="none" stroke="black" d="M164.004,-370.935C173.56,-377.573 183.65,-383.494 194,-388 349.099,-455.517 842.8,-486.801 1071.55,-497.952"/>
<polygon fill="none" stroke="black" points="1071.42,-501.45 1081.58,-498.436 1071.76,-494.458 1071.42,-501.45"/>
</g>
<!-- 3 -->
<g id="node2" class="node"><title>3</title>
<polygon fill="none" stroke="black" points="202.757,-263.2 202.757,-336.8 303.243,-336.8 303.243,-263.2 202.757,-263.2"/>
<text text-anchor="middle" x="253" y="-318.8" font-family="Times,serif" font-size="14.00">GlobalAverage</text>
<polyline fill="none" stroke="black" points="202.757,-312 303.243,-312 "/>
<polyline fill="none" stroke="black" points="202.757,-288 303.243,-288 "/>
<text text-anchor="start" x="210.757" y="-270" font-family="Times,serif" font-size="14.00">record()</text>
</g>
<!-- 3&#45;&gt;5 -->
<g id="edge4" class="edge"><title>3&#45;&gt;5</title>
<path fill="none" stroke="black" d="M268.519,-337.065C278.293,-355.339 292.738,-376.122 312,-388 436.642,-464.858 861.991,-491.011 1071.47,-499.362"/>
<polygon fill="none" stroke="black" points="1071.46,-502.864 1081.59,-499.758 1071.74,-495.869 1071.46,-502.864"/>
</g>
<!-- 4 -->
<g id="node3" class="node"><title>4</title>
<polygon fill="none" stroke="black" points="321.489,-229.2 321.489,-370.8 606.511,-370.8 606.511,-229.2 321.489,-229.2"/>
<text text-anchor="middle" x="464" y="-352.8" font-family="Times,serif" font-size="14.00">EEG</text>
<polyline fill="none" stroke="black" points="321.489,-346 606.511,-346 "/>
<text text-anchor="start" x="329.489" y="-328" font-family="Times,serif" font-size="14.00">projection_matrix_data : ProjectionSurfaceEEG</text>
<text text-anchor="start" x="329.489" y="-311.2" font-family="Times,serif" font-size="14.00">projection_matrix_data : ProjectionMatrix</text>
<polyline fill="none" stroke="black" points="321.489,-304.4 606.511,-304.4 "/>
<text text-anchor="start" x="329.489" y="-286.4" font-family="Times,serif" font-size="14.00">config_for_sim()</text>
<text text-anchor="start" x="329.489" y="-269.6" font-family="Times,serif" font-size="14.00">projection_matrix()</text>
<text text-anchor="start" x="329.489" y="-252.8" font-family="Times,serif" font-size="14.00">record()</text>
<text text-anchor="start" x="329.489" y="-236" font-family="Times,serif" font-size="14.00">sensors()</text>
</g>
<!-- 4&#45;&gt;5 -->
<g id="edge6" class="edge"><title>4&#45;&gt;5</title>
<path fill="none" stroke="black" d="M576.253,-370.894C589.043,-377.276 602.117,-383.15 615,-388 767.058,-445.244 953.004,-475.809 1071.48,-490.712"/>
<polygon fill="none" stroke="black" points="1071.31,-494.217 1081.67,-491.975 1072.18,-487.271 1071.31,-494.217"/>
</g>
<!-- 6 -->
<g id="node5" class="node"><title>6</title>
<polygon fill="none" stroke="black" points="624.023,-220.8 624.023,-379.2 897.977,-379.2 897.977,-220.8 624.023,-220.8"/>
<text text-anchor="middle" x="761" y="-361.2" font-family="Times,serif" font-size="14.00">Bold</text>
<polyline fill="none" stroke="black" points="624.023,-354.4 897.977,-354.4 "/>
<text text-anchor="start" x="632.023" y="-336.4" font-family="Times,serif" font-size="14.00">hemodynamic_response_function : NoneType</text>
<text text-anchor="start" x="632.023" y="-319.6" font-family="Times,serif" font-size="14.00">hrf_kernel : HRFKernelEquation</text>
<text text-anchor="start" x="632.023" y="-302.8" font-family="Times,serif" font-size="14.00">hrf_length : Float</text>
<text text-anchor="start" x="632.023" y="-286" font-family="Times,serif" font-size="14.00">period : Float</text>
<polyline fill="none" stroke="black" points="624.023,-279.2 897.977,-279.2 "/>
<text text-anchor="start" x="632.023" y="-261.2" font-family="Times,serif" font-size="14.00">config_for_sim()</text>
<text text-anchor="start" x="632.023" y="-244.4" font-family="Times,serif" font-size="14.00">compute_hrf()</text>
<text text-anchor="start" x="632.023" y="-227.6" font-family="Times,serif" font-size="14.00">record()</text>
</g>
<!-- 6&#45;&gt;5 -->
<g id="edge8" class="edge"><title>6&#45;&gt;5</title>
<path fill="none" stroke="black" d="M890.19,-379.362C895.833,-382.347 901.452,-385.24 907,-388 959.968,-414.354 1020.51,-439.578 1071.97,-459.651"/>
<polygon fill="none" stroke="black" points="1070.88,-462.983 1081.47,-463.339 1073.42,-456.457 1070.88,-462.983"/>
</g>
<!-- 7 -->
<g id="node6" class="node"><title>7</title>
<polygon fill="none" stroke="black" points="915.71,-212.4 915.71,-387.6 1132.29,-387.6 1132.29,-212.4 915.71,-212.4"/>
<text text-anchor="middle" x="1024" y="-369.6" font-family="Times,serif" font-size="14.00">Raw</text>
<polyline fill="none" stroke="black" points="915.71,-362.8 1132.29,-362.8 "/>
<text text-anchor="start" x="923.71" y="-344.8" font-family="Times,serif" font-size="14.00">dt</text>
<text text-anchor="start" x="923.71" y="-328" font-family="Times,serif" font-size="14.00">period</text>
<text text-anchor="start" x="923.71" y="-311.2" font-family="Times,serif" font-size="14.00">istep : int</text>
<text text-anchor="start" x="923.71" y="-294.4" font-family="Times,serif" font-size="14.00">voi</text>
<text text-anchor="start" x="923.71" y="-277.6" font-family="Times,serif" font-size="14.00">period : Float</text>
<text text-anchor="start" x="923.71" y="-260.8" font-family="Times,serif" font-size="14.00">variables_of_interest : IntegerArray</text>
<polyline fill="none" stroke="black" points="915.71,-254 1132.29,-254 "/>
<text text-anchor="start" x="923.71" y="-236" font-family="Times,serif" font-size="14.00">config_for_sim()</text>
<text text-anchor="start" x="923.71" y="-219.2" font-family="Times,serif" font-size="14.00">record()</text>
</g>
<!-- 7&#45;&gt;5 -->
<g id="edge10" class="edge"><title>7&#45;&gt;5</title>
<path fill="none" stroke="black" d="M1095.36,-387.838C1103.19,-397.362 1111.16,-407.057 1118.98,-416.576"/>
<polygon fill="none" stroke="black" points="1116.46,-419.018 1125.51,-424.522 1121.86,-414.574 1116.46,-419.018"/>
</g>
<!-- 8 -->
<g id="node7" class="node"><title>8</title>
<polygon fill="none" stroke="black" points="1150.11,-263.2 1150.11,-336.8 1229.89,-336.8 1229.89,-263.2 1150.11,-263.2"/>
<text text-anchor="middle" x="1190" y="-318.8" font-family="Times,serif" font-size="14.00">SubSample</text>
<polyline fill="none" stroke="black" points="1150.11,-312 1229.89,-312 "/>
<polyline fill="none" stroke="black" points="1150.11,-288 1229.89,-288 "/>
<text text-anchor="start" x="1158.11" y="-270" font-family="Times,serif" font-size="14.00">record()</text>
</g>
<!-- 8&#45;&gt;5 -->
<g id="edge12" class="edge"><title>8&#45;&gt;5</title>
<path fill="none" stroke="black" d="M1190,-337.114C1190,-358.647 1190,-387.006 1190,-414.172"/>
<polygon fill="none" stroke="black" points="1186.5,-414.508 1190,-424.508 1193.5,-414.508 1186.5,-414.508"/>
</g>
<!-- 9 -->
<g id="node8" class="node"><title>9</title>
<polygon fill="none" stroke="black" points="1247.86,-229.2 1247.86,-370.8 1420.14,-370.8 1420.14,-229.2 1247.86,-229.2"/>
<text text-anchor="middle" x="1334" y="-352.8" font-family="Times,serif" font-size="14.00">SpatialAverage</text>
<polyline fill="none" stroke="black" points="1247.86,-346 1420.14,-346 "/>
<text text-anchor="start" x="1255.86" y="-328" font-family="Times,serif" font-size="14.00">spatial_mean : NoneType</text>
<text text-anchor="start" x="1255.86" y="-311.2" font-family="Times,serif" font-size="14.00">spatial_mask</text>
<text text-anchor="start" x="1255.86" y="-294.4" font-family="Times,serif" font-size="14.00">default_mask : Enumerate</text>
<text text-anchor="start" x="1255.86" y="-277.6" font-family="Times,serif" font-size="14.00">spatial_mask : IntegerArray</text>
<polyline fill="none" stroke="black" points="1247.86,-270.8 1420.14,-270.8 "/>
<text text-anchor="start" x="1255.86" y="-252.8" font-family="Times,serif" font-size="14.00">config_for_sim()</text>
<text text-anchor="start" x="1255.86" y="-236" font-family="Times,serif" font-size="14.00">record()</text>
</g>
<!-- 9&#45;&gt;5 -->
<g id="edge14" class="edge"><title>9&#45;&gt;5</title>
<path fill="none" stroke="black" d="M1284.04,-371.083C1273.62,-385.697 1262.52,-401.267 1251.74,-416.397"/>
<polygon fill="none" stroke="black" points="1248.74,-414.573 1245.78,-424.748 1254.44,-418.637 1248.74,-414.573"/>
</g>
<!-- 10 -->
<g id="node9" class="node"><title>10</title>
<polygon fill="none" stroke="black" points="632.731,-42.8 632.731,-133.2 755.269,-133.2 755.269,-42.8 632.731,-42.8"/>
<text text-anchor="middle" x="694" y="-115.2" font-family="Times,serif" font-size="14.00">BoldMultithreaded</text>
<polyline fill="none" stroke="black" points="632.731,-108.4 755.269,-108.4 "/>
<polyline fill="none" stroke="black" points="632.731,-84.4 755.269,-84.4 "/>
<text text-anchor="start" x="640.731" y="-66.4" font-family="Times,serif" font-size="14.00">config_for_sim()</text>
<text text-anchor="start" x="640.731" y="-49.6" font-family="Times,serif" font-size="14.00">record()</text>
</g>
<!-- 10&#45;&gt;6 -->
<g id="edge16" class="edge"><title>10&#45;&gt;6</title>
<path fill="none" stroke="black" d="M708.127,-133.279C715.308,-155.785 724.298,-183.963 732.817,-210.665"/>
<polygon fill="none" stroke="black" points="729.556,-211.959 735.93,-220.422 736.225,-209.832 729.556,-211.959"/>
</g>
<!-- 11 -->
<g id="node10" class="node"><title>11</title>
<polygon fill="none" stroke="black" points="1438.09,-254.8 1438.09,-345.2 1553.91,-345.2 1553.91,-254.8 1438.09,-254.8"/>
<text text-anchor="middle" x="1496" y="-327.2" font-family="Times,serif" font-size="14.00">TemporalAverage</text>
<polyline fill="none" stroke="black" points="1438.09,-320.4 1553.91,-320.4 "/>
<polyline fill="none" stroke="black" points="1438.09,-296.4 1553.91,-296.4 "/>
<text text-anchor="start" x="1446.09" y="-278.4" font-family="Times,serif" font-size="14.00">config_for_sim()</text>
<text text-anchor="start" x="1446.09" y="-261.6" font-family="Times,serif" font-size="14.00">record()</text>
</g>
<!-- 11&#45;&gt;5 -->
<g id="edge18" class="edge"><title>11&#45;&gt;5</title>
<path fill="none" stroke="black" d="M1467.85,-345.615C1457,-360.406 1443.66,-376.11 1429,-388 1393.09,-417.126 1348.59,-441.095 1307.75,-459.472"/>
<polygon fill="none" stroke="black" points="1306.28,-456.296 1298.55,-463.546 1309.12,-462.696 1306.28,-456.296"/>
</g>
<!-- 12 -->
<g id="node11" class="node"><title>12</title>
<polygon fill="none" stroke="black" points="1571.8,-263.2 1571.8,-336.8 1950.2,-336.8 1950.2,-263.2 1571.8,-263.2"/>
<text text-anchor="middle" x="1761" y="-318.8" font-family="Times,serif" font-size="14.00">BalloonWindkesselAccordingToKJFristonEtAl2003NeuroImage</text>
<polyline fill="none" stroke="black" points="1571.8,-312 1950.2,-312 "/>
<polyline fill="none" stroke="black" points="1571.8,-288 1950.2,-288 "/>
<text text-anchor="start" x="1579.8" y="-270" font-family="Times,serif" font-size="14.00">record()</text>
</g>
<!-- 12&#45;&gt;5 -->
<g id="edge20" class="edge"><title>12&#45;&gt;5</title>
<path fill="none" stroke="black" d="M1684.33,-336.922C1647.7,-353.464 1603,-372.756 1562,-388 1478.32,-419.115 1381.97,-448.733 1308.3,-470.117"/>
<polygon fill="none" stroke="black" points="1307.15,-466.806 1298.52,-472.947 1309.09,-473.53 1307.15,-466.806"/>
</g>
<!-- 13 -->
<g id="node12" class="node"><title>13</title>
<polygon fill="none" stroke="black" points="902.689,-0.4 902.689,-175.6 1007.31,-175.6 1007.31,-0.4 902.689,-0.4"/>
<text text-anchor="middle" x="955" y="-157.6" font-family="Times,serif" font-size="14.00">config</text>
<polyline fill="none" stroke="black" points="902.689,-150.8 1007.31,-150.8 "/>
<text text-anchor="start" x="910.689" y="-132.8" font-family="Times,serif" font-size="14.00">tau : Float</text>
<text text-anchor="start" x="910.689" y="-116" font-family="Times,serif" font-size="14.00">kappa : Float</text>
<text text-anchor="start" x="910.689" y="-99.2" font-family="Times,serif" font-size="14.00">period : Float</text>
<text text-anchor="start" x="910.689" y="-82.4" font-family="Times,serif" font-size="14.00">rho : Float</text>
<text text-anchor="start" x="910.689" y="-65.6" font-family="Times,serif" font-size="14.00">alpha : Float</text>
<text text-anchor="start" x="910.689" y="-48.8" font-family="Times,serif" font-size="14.00">nvcvar : Integer</text>
<text text-anchor="start" x="910.689" y="-32" font-family="Times,serif" font-size="14.00">gamma : Float</text>
<polyline fill="none" stroke="black" points="902.689,-25.2 1007.31,-25.2 "/>
<text text-anchor="middle" x="955" y="-7.2" font-family="Times,serif" font-size="14.00"> </text>
</g>
<!-- 14 -->
<g id="node13" class="node"><title>14</title>
<polygon fill="none" stroke="black" points="773.562,-42.4 773.562,-133.6 884.438,-133.6 884.438,-42.4 773.562,-42.4"/>
<text text-anchor="middle" x="829" y="-115.6" font-family="Times,serif" font-size="14.00">BoldRegionROI</text>
<polyline fill="none" stroke="black" points="773.562,-108.8 884.438,-108.8 "/>
<text text-anchor="start" x="781.562" y="-90.8" font-family="Times,serif" font-size="14.00">region_mapping</text>
<polyline fill="none" stroke="black" points="773.562,-84 884.438,-84 "/>
<text text-anchor="start" x="781.562" y="-66" font-family="Times,serif" font-size="14.00">config_for_sim()</text>
<text text-anchor="start" x="781.562" y="-49.2" font-family="Times,serif" font-size="14.00">record()</text>
</g>
<!-- 14&#45;&gt;6 -->
<g id="edge22" class="edge"><title>14&#45;&gt;6</title>
<path fill="none" stroke="black" d="M814.496,-133.793C807.2,-156.322 798.097,-184.437 789.479,-211.051"/>
<polygon fill="none" stroke="black" points="786.081,-210.183 786.33,-220.775 792.741,-212.339 786.081,-210.183"/>
</g>
<!-- 15 -->
<g id="node14" class="node"><title>15</title>
<polygon fill="none" stroke="black" points="1968.35,-246 1968.35,-354 2153.65,-354 2153.65,-246 1968.35,-246"/>
<text text-anchor="middle" x="2061" y="-336" font-family="Times,serif" font-size="14.00">SphericalMEG</text>
<polyline fill="none" stroke="black" points="1968.35,-329.2 2153.65,-329.2 "/>
<text text-anchor="start" x="1976.35" y="-311.2" font-family="Times,serif" font-size="14.00">projection_matrix : NoneType</text>
<text text-anchor="start" x="1976.35" y="-294.4" font-family="Times,serif" font-size="14.00">sensors : SensorsMEG</text>
<polyline fill="none" stroke="black" points="1968.35,-287.6 2153.65,-287.6 "/>
<text text-anchor="start" x="1976.35" y="-269.6" font-family="Times,serif" font-size="14.00">config_for_sim()</text>
<text text-anchor="start" x="1976.35" y="-252.8" font-family="Times,serif" font-size="14.00">record()</text>
</g>
<!-- 15&#45;&gt;5 -->
<g id="edge24" class="edge"><title>15&#45;&gt;5</title>
<path fill="none" stroke="black" d="M2009.9,-354.167C1994.7,-367.164 1977.22,-379.704 1959,-388 1845.38,-439.741 1494.48,-476.75 1308.51,-493.303"/>
<polygon fill="none" stroke="black" points="1308.06,-489.829 1298.41,-494.196 1308.68,-496.802 1308.06,-489.829"/>
</g>
<!-- 16 -->
<g id="node15" class="node"><title>16</title>
<polygon fill="none" stroke="black" points="2171.35,-237.6 2171.35,-362.4 2356.65,-362.4 2356.65,-237.6 2171.35,-237.6"/>
<text text-anchor="middle" x="2264" y="-344.4" font-family="Times,serif" font-size="14.00">SphericalEEG</text>
<polyline fill="none" stroke="black" points="2171.35,-337.6 2356.65,-337.6 "/>
<text text-anchor="start" x="2179.35" y="-319.6" font-family="Times,serif" font-size="14.00">projection_matrix : NoneType</text>
<text text-anchor="start" x="2179.35" y="-302.8" font-family="Times,serif" font-size="14.00">sensors : SensorsEEG</text>
<text text-anchor="start" x="2179.35" y="-286" font-family="Times,serif" font-size="14.00">sigma : Float</text>
<polyline fill="none" stroke="black" points="2171.35,-279.2 2356.65,-279.2 "/>
<text text-anchor="start" x="2179.35" y="-261.2" font-family="Times,serif" font-size="14.00">config_for_sim()</text>
<text text-anchor="start" x="2179.35" y="-244.4" font-family="Times,serif" font-size="14.00">record()</text>
</g>
<!-- 16&#45;&gt;5 -->
<g id="edge26" class="edge"><title>16&#45;&gt;5</title>
<path fill="none" stroke="black" d="M2203.23,-362.592C2190.5,-372.553 2176.5,-381.662 2162,-388 2011.33,-453.841 1532.99,-485.855 1308.49,-497.56"/>
<polygon fill="none" stroke="black" points="1308.13,-494.074 1298.32,-498.085 1308.49,-501.064 1308.13,-494.074"/>
</g>
</g>
</svg>
