<?xml version="1.0" encoding="UTF-8" standalone="no"?>
<!DOCTYPE svg PUBLIC "-//W3C//DTD SVG 1.1//EN"
 "http://www.w3.org/Graphics/SVG/1.1/DTD/svg11.dtd">
<!-- Generated by graphviz version 2.28.0 (20111028.1807)
 -->
<!-- Title: classes_integrators Pages: 1 -->
<svg width="538pt" height="550pt"
 viewBox="0.00 0.00 538.00 550.00" xmlns="http://www.w3.org/2000/svg" xmlns:xlink="http://www.w3.org/1999/xlink">
<g id="graph1" class="graph" transform="scale(1 1) rotate(0) translate(4 546)">
<title>classes_integrators</title>
<polygon fill="white" stroke="white" points="-4,5 -4,-546 535,-546 535,5 -4,5"/>
<!-- 2 -->
<g id="node1" class="node"><title>2</title>
<polygon fill="none" stroke="black" points="96.6309,-352.8 96.6309,-427.2 225.369,-427.2 225.369,-352.8 96.6309,-352.8"/>
<text text-anchor="middle" x="161" y="-409.2" font-family="Times,serif" font-size="14.00">IntegratorStochastic</text>
<polyline fill="none" stroke="black" points="96.6309,-402.4 225.369,-402.4 "/>
<text text-anchor="start" x="104.631" y="-384.4" font-family="Times,serif" font-size="14.00">noise : Noise</text>
<polyline fill="none" stroke="black" points="96.6309,-377.6 225.369,-377.6 "/>
<text text-anchor="start" x="104.631" y="-359.6" font-family="Times,serif" font-size="14.00">configure()</text>
</g>
<!-- 4 -->
<g id="node3" class="node"><title>4</title>
<polygon fill="none" stroke="black" points="236.403,-466.8 236.403,-541.2 307.597,-541.2 307.597,-466.8 236.403,-466.8"/>
<text text-anchor="middle" x="272" y="-523.2" font-family="Times,serif" font-size="14.00">Integrator</text>
<polyline fill="none" stroke="black" points="236.403,-516.4 307.597,-516.4 "/>
<text text-anchor="start" x="244.403" y="-498.4" font-family="Times,serif" font-size="14.00">dt : Float</text>
<polyline fill="none" stroke="black" points="236.403,-491.6 307.597,-491.6 "/>
<text text-anchor="start" x="244.403" y="-473.6" font-family="Times,serif" font-size="14.00">scheme()</text>
</g>
<!-- 2&#45;&gt;4 -->
<g id="edge2" class="edge"><title>2&#45;&gt;4</title>
<path fill="none" stroke="black" d="M197.039,-427.363C207.222,-437.639 218.407,-448.925 228.959,-459.571"/>
<polygon fill="none" stroke="black" points="226.617,-462.18 236.142,-466.819 231.589,-457.253 226.617,-462.18"/>
</g>
<!-- 3 -->
<g id="node2" class="node"><title>3</title>
<polygon fill="none" stroke="black" points="121.065,-164.8 121.065,-239.2 224.935,-239.2 224.935,-164.8 121.065,-164.8"/>
<text text-anchor="middle" x="173" y="-221.2" font-family="Times,serif" font-size="14.00">HeunStochastic</text>
<polyline fill="none" stroke="black" points="121.065,-214.4 224.935,-214.4 "/>
<text text-anchor="start" x="129.065" y="-196.4" font-family="Times,serif" font-size="14.00">device_info</text>
<polyline fill="none" stroke="black" points="121.065,-189.6 224.935,-189.6 "/>
<text text-anchor="start" x="129.065" y="-171.6" font-family="Times,serif" font-size="14.00">scheme()</text>
</g>
<!-- 3&#45;&gt;2 -->
<g id="edge4" class="edge"><title>3&#45;&gt;2</title>
<path fill="none" stroke="black" d="M170.658,-239.304C168.75,-268.877 166.044,-310.819 163.981,-342.787"/>
<polygon fill="none" stroke="black" points="160.487,-342.583 163.336,-352.787 167.473,-343.033 160.487,-342.583"/>
</g>
<!-- 5 -->
<g id="node4" class="node"><title>5</title>
<polygon fill="none" stroke="black" points="183.741,-258.8 183.741,-333.2 306.259,-333.2 306.259,-258.8 183.741,-258.8"/>
<text text-anchor="middle" x="245" y="-315.2" font-family="Times,serif" font-size="14.00">EulerDeterministic</text>
<polyline fill="none" stroke="black" points="183.741,-308.4 306.259,-308.4 "/>
<text text-anchor="start" x="191.741" y="-290.4" font-family="Times,serif" font-size="14.00">device_info</text>
<polyline fill="none" stroke="black" points="183.741,-283.6 306.259,-283.6 "/>
<text text-anchor="start" x="191.741" y="-265.6" font-family="Times,serif" font-size="14.00">scheme()</text>
</g>
<!-- 5&#45;&gt;4 -->
<g id="edge6" class="edge"><title>5&#45;&gt;4</title>
<path fill="none" stroke="black" d="M249.765,-333.354C254.262,-367.668 261.026,-419.274 265.912,-456.554"/>
<polygon fill="none" stroke="black" points="262.467,-457.203 267.237,-466.663 269.408,-456.293 262.467,-457.203"/>
</g>
<!-- 6 -->
<g id="node5" class="node"><title>6</title>
<polygon fill="none" stroke="black" points="-0.931152,-164.8 -0.931152,-239.2 102.931,-239.2 102.931,-164.8 -0.931152,-164.8"/>
<text text-anchor="middle" x="51" y="-221.2" font-family="Times,serif" font-size="14.00">EulerStochastic</text>
<polyline fill="none" stroke="black" points="-0.931152,-214.4 102.931,-214.4 "/>
<text text-anchor="start" x="7.06885" y="-196.4" font-family="Times,serif" font-size="14.00">device_info</text>
<polyline fill="none" stroke="black" points="-0.931152,-189.6 102.931,-189.6 "/>
<text text-anchor="start" x="7.06885" y="-171.6" font-family="Times,serif" font-size="14.00">scheme()</text>
</g>
<!-- 6&#45;&gt;2 -->
<g id="edge8" class="edge"><title>6&#45;&gt;2</title>
<path fill="none" stroke="black" d="M72.4702,-239.304C90.1868,-269.261 115.409,-311.91 134.403,-344.027"/>
<polygon fill="none" stroke="black" points="131.481,-345.962 139.584,-352.787 137.506,-342.398 131.481,-345.962"/>
</g>
<!-- 7 -->
<g id="node6" class="node"><title>7</title>
<polygon fill="none" stroke="black" points="140.248,-1 140.248,-109 283.752,-109 283.752,-1 140.248,-1"/>
<text text-anchor="middle" x="212" y="-91" font-family="Times,serif" font-size="14.00">integrator_device_info</text>
<polyline fill="none" stroke="black" points="140.248,-84.2 283.752,-84.2 "/>
<text text-anchor="start" x="148.248" y="-66.2" font-family="Times,serif" font-size="14.00">inst</text>
<polyline fill="none" stroke="black" points="140.248,-59.4 283.752,-59.4 "/>
<text text-anchor="start" x="148.248" y="-41.4" font-family="Times,serif" font-size="14.00">kernel()</text>
<text text-anchor="start" x="148.248" y="-24.6" font-family="Times,serif" font-size="14.00">n_inpr()</text>
<text text-anchor="start" x="148.248" y="-7.8" font-family="Times,serif" font-size="14.00">inpr()</text>
</g>
<!-- 7&#45;&gt;3 -->
<g id="edge14" class="edge"><title>7&#45;&gt;3</title>
<path fill="none" stroke="black" d="M176.001,-109.231C173.126,-115.36 170.663,-121.682 168.917,-128 166.784,-135.718 165.95,-144.066 165.905,-152.264"/>
<polygon fill="black" stroke="black" points="165.914,-152.498 170.142,-158.34 166.375,-164.489 162.148,-158.647 165.914,-152.498"/>
<text text-anchor="middle" x="202.042" y="-131.4" font-family="Times,serif" font-size="14.00" fill="green">device_info</text>
</g>
<!-- 7&#45;&gt;5 -->
<g id="edge16" class="edge"><title>7&#45;&gt;5</title>
<path fill="none" stroke="black" d="M230.589,-109.093C232.314,-115.407 233.844,-121.808 235,-128 242.347,-167.369 244.681,-212.776 245.27,-246.296"/>
<polygon fill="black" stroke="black" points="245.273,-246.524 249.345,-252.475 245.418,-258.523 241.346,-252.572 245.273,-246.524"/>
<text text-anchor="middle" x="271.042" y="-131.4" font-family="Times,serif" font-size="14.00" fill="green">device_info</text>
</g>
<!-- 7&#45;&gt;6 -->
<g id="edge18" class="edge"><title>7&#45;&gt;6</title>
<path fill="none" stroke="black" d="M140.13,-93.9687C124.892,-103.865 109.598,-115.35 96.917,-128 89.2156,-135.683 82.1871,-144.885 76.0699,-154.125"/>
<polygon fill="black" stroke="black" points="75.9415,-154.33 76.1406,-161.538 69.5633,-164.494 69.3642,-157.286 75.9415,-154.33"/>
<text text-anchor="middle" x="130.042" y="-131.4" font-family="Times,serif" font-size="14.00" fill="green">device_info</text>
</g>
<!-- 9 -->
<g id="node8" class="node"><title>9</title>
<polygon fill="none" stroke="black" points="311.738,-258.8 311.738,-333.2 434.262,-333.2 434.262,-258.8 311.738,-258.8"/>
<text text-anchor="middle" x="373" y="-315.2" font-family="Times,serif" font-size="14.00">HeunDeterministic</text>
<polyline fill="none" stroke="black" points="311.738,-308.4 434.262,-308.4 "/>
<text text-anchor="start" x="319.738" y="-290.4" font-family="Times,serif" font-size="14.00">device_info</text>
<polyline fill="none" stroke="black" points="311.738,-283.6 434.262,-283.6 "/>
<text text-anchor="start" x="319.738" y="-265.6" font-family="Times,serif" font-size="14.00">scheme()</text>
</g>
<!-- 7&#45;&gt;9 -->
<g id="edge20" class="edge"><title>7&#45;&gt;9</title>
<path fill="none" stroke="black" d="M283.799,-102.578C292.691,-110.344 301.073,-118.873 308,-128 334.837,-163.358 351.95,-211.178 361.842,-246.585"/>
<polygon fill="black" stroke="black" points="361.942,-246.959 367.357,-251.721 365.044,-258.551 359.629,-253.789 361.942,-246.959"/>
<text text-anchor="middle" x="353.042" y="-131.4" font-family="Times,serif" font-size="14.00" fill="green">device_info</text>
</g>
<!-- 8 -->
<g id="node7" class="node"><title>8</title>
<polygon fill="none" stroke="black" points="318.803,-352.8 318.803,-427.2 529.197,-427.2 529.197,-352.8 318.803,-352.8"/>
<text text-anchor="middle" x="424" y="-409.2" font-family="Times,serif" font-size="14.00">RungeKutta4thOrderDeterministic</text>
<polyline fill="none" stroke="black" points="318.803,-402.4 529.197,-402.4 "/>
<text text-anchor="start" x="326.803" y="-384.4" font-family="Times,serif" font-size="14.00">you_have_been_warned : bool</text>
<polyline fill="none" stroke="black" points="318.803,-377.6 529.197,-377.6 "/>
<text text-anchor="start" x="326.803" y="-359.6" font-family="Times,serif" font-size="14.00">scheme()</text>
</g>
<!-- 8&#45;&gt;4 -->
<g id="edge10" class="edge"><title>8&#45;&gt;4</title>
<path fill="none" stroke="black" d="M374.65,-427.363C355.706,-441.322 334.234,-457.144 315.842,-470.696"/>
<polygon fill="none" stroke="black" points="313.603,-467.998 307.628,-476.748 317.755,-473.633 313.603,-467.998"/>
</g>
<!-- 9&#45;&gt;4 -->
<g id="edge12" class="edge"><title>9&#45;&gt;4</title>
<path fill="none" stroke="black" d="M324.879,-333.204C319.268,-339.003 314.097,-345.315 310,-352 290.52,-383.786 281,-425.147 276.362,-456.542"/>
<polygon fill="none" stroke="black" points="272.85,-456.398 274.969,-466.778 279.786,-457.342 272.85,-456.398"/>
</g>
</g>
</svg>
