<?xml version="1.0" encoding="UTF-8" standalone="no"?>
<!DOCTYPE svg PUBLIC "-//W3C//DTD SVG 1.1//EN"
 "http://www.w3.org/Graphics/SVG/1.1/DTD/svg11.dtd">
<!-- Generated by graphviz version 2.28.0 (20111028.1807)
 -->
<!-- Title: classes_coupling Pages: 1 -->
<svg width="743pt" height="446pt"
 viewBox="0.00 0.00 743.00 446.00" xmlns="http://www.w3.org/2000/svg" xmlns:xlink="http://www.w3.org/1999/xlink">
<g id="graph1" class="graph" transform="scale(1 1) rotate(0) translate(4 442)">
<title>classes_coupling</title>
<polygon fill="white" stroke="white" points="-4,5 -4,-442 740,-442 740,5 -4,5"/>
<!-- 2 -->
<g id="node1" class="node"><title>2</title>
<polygon fill="none" stroke="black" points="-0.437988,-164.8 -0.437988,-323.2 138.438,-323.2 138.438,-164.8 -0.437988,-164.8"/>
<text text-anchor="middle" x="69" y="-305.2" font-family="Times,serif" font-size="14.00">Sigmoidal</text>
<polyline fill="none" stroke="black" points="-0.437988,-298.4 138.438,-298.4 "/>
<text text-anchor="start" x="7.56201" y="-280.4" font-family="Times,serif" font-size="14.00">pi_on_sqrt3</text>
<text text-anchor="start" x="7.56201" y="-263.6" font-family="Times,serif" font-size="14.00">sigma : FloatArray</text>
<text text-anchor="start" x="7.56201" y="-246.8" font-family="Times,serif" font-size="14.00">device_info</text>
<text text-anchor="start" x="7.56201" y="-230" font-family="Times,serif" font-size="14.00">cmax : FloatArray</text>
<text text-anchor="start" x="7.56201" y="-213.2" font-family="Times,serif" font-size="14.00">midpoint : FloatArray</text>
<text text-anchor="start" x="7.56201" y="-196.4" font-family="Times,serif" font-size="14.00">cmin : FloatArray</text>
<polyline fill="none" stroke="black" points="-0.437988,-189.6 138.438,-189.6 "/>
<text text-anchor="middle" x="69" y="-171.6" font-family="Times,serif" font-size="14.00"> </text>
</g>
<!-- 9 -->
<g id="node8" class="node"><title>9</title>
<polygon fill="none" stroke="black" points="328.941,-363.2 328.941,-436.8 397.059,-436.8 397.059,-363.2 328.941,-363.2"/>
<text text-anchor="middle" x="363" y="-418.8" font-family="Times,serif" font-size="14.00">Coupling</text>
<polyline fill="none" stroke="black" points="328.941,-412 397.059,-412 "/>
<polyline fill="none" stroke="black" points="328.941,-388 397.059,-388 "/>
<text text-anchor="middle" x="363" y="-370" font-family="Times,serif" font-size="14.00"> </text>
</g>
<!-- 2&#45;&gt;9 -->
<g id="edge2" class="edge"><title>2&#45;&gt;9</title>
<path fill="none" stroke="black" d="M138.768,-318.429C141.482,-320.386 144.229,-322.251 147,-324 201.304,-358.272 273.227,-379.178 318.818,-389.926"/>
<polygon fill="none" stroke="black" points="318.162,-393.366 328.691,-392.191 319.728,-386.544 318.162,-393.366"/>
</g>
<!-- 3 -->
<g id="node2" class="node"><title>3</title>
<polygon fill="none" stroke="black" points="156.341,-190 156.341,-298 251.659,-298 251.659,-190 156.341,-190"/>
<text text-anchor="middle" x="204" y="-280" font-family="Times,serif" font-size="14.00">Linear</text>
<polyline fill="none" stroke="black" points="156.341,-273.2 251.659,-273.2 "/>
<text text-anchor="start" x="164.341" y="-255.2" font-family="Times,serif" font-size="14.00">a : FloatArray</text>
<text text-anchor="start" x="164.341" y="-238.4" font-family="Times,serif" font-size="14.00">device_info</text>
<text text-anchor="start" x="164.341" y="-221.6" font-family="Times,serif" font-size="14.00">b : FloatArray</text>
<polyline fill="none" stroke="black" points="156.341,-214.8 251.659,-214.8 "/>
<text text-anchor="middle" x="204" y="-196.8" font-family="Times,serif" font-size="14.00"> </text>
</g>
<!-- 3&#45;&gt;9 -->
<g id="edge4" class="edge"><title>3&#45;&gt;9</title>
<path fill="none" stroke="black" d="M238.919,-298.268C245.778,-307.256 253.262,-316.192 261,-324 278.791,-341.951 301.177,-358.908 320.442,-372.141"/>
<polygon fill="none" stroke="black" points="318.519,-375.065 328.765,-377.762 322.437,-369.265 318.519,-375.065"/>
</g>
<!-- 4 -->
<g id="node3" class="node"><title>4</title>
<polygon fill="none" stroke="black" points="241.962,-1 241.962,-109 380.038,-109 380.038,-1 241.962,-1"/>
<text text-anchor="middle" x="311" y="-91" font-family="Times,serif" font-size="14.00">coupling_device_info</text>
<polyline fill="none" stroke="black" points="241.962,-84.2 380.038,-84.2 "/>
<text text-anchor="start" x="249.962" y="-66.2" font-family="Times,serif" font-size="14.00">inst</text>
<polyline fill="none" stroke="black" points="241.962,-59.4 380.038,-59.4 "/>
<text text-anchor="start" x="249.962" y="-41.4" font-family="Times,serif" font-size="14.00">cfpr()</text>
<text text-anchor="start" x="249.962" y="-24.6" font-family="Times,serif" font-size="14.00">n_cfpr()</text>
<text text-anchor="start" x="249.962" y="-7.8" font-family="Times,serif" font-size="14.00">kernel()</text>
</g>
<!-- 4&#45;&gt;2 -->
<g id="edge14" class="edge"><title>4&#45;&gt;2</title>
<path fill="none" stroke="black" d="M241.64,-81.8561C215.17,-93.6155 185.675,-109.156 161.917,-128 151.678,-136.121 141.837,-145.561 132.64,-155.473"/>
<polygon fill="black" stroke="black" points="132.392,-155.75 131.365,-162.887 124.381,-164.685 125.408,-157.547 132.392,-155.75"/>
<text text-anchor="middle" x="195.042" y="-131.4" font-family="Times,serif" font-size="14.00" fill="green">device_info</text>
</g>
<!-- 4&#45;&gt;3 -->
<g id="edge16" class="edge"><title>4&#45;&gt;3</title>
<path fill="none" stroke="black" d="M254.211,-109.237C249.325,-115.271 244.782,-121.571 240.917,-128 231.7,-143.332 224.527,-161.217 219.058,-178.25"/>
<polygon fill="black" stroke="black" points="219.019,-178.38 221.108,-185.281 215.54,-189.864 213.451,-182.962 219.019,-178.38"/>
<text text-anchor="middle" x="274.042" y="-131.4" font-family="Times,serif" font-size="14.00" fill="green">device_info</text>
</g>
<!-- 5 -->
<g id="node4" class="node"><title>5</title>
<polygon fill="none" stroke="black" points="269.958,-198.4 269.958,-289.6 352.042,-289.6 352.042,-198.4 269.958,-198.4"/>
<text text-anchor="middle" x="311" y="-271.6" font-family="Times,serif" font-size="14.00">Scaling</text>
<polyline fill="none" stroke="black" points="269.958,-264.8 352.042,-264.8 "/>
<text text-anchor="start" x="277.958" y="-246.8" font-family="Times,serif" font-size="14.00">a : Float</text>
<text text-anchor="start" x="277.958" y="-230" font-family="Times,serif" font-size="14.00">device_info</text>
<polyline fill="none" stroke="black" points="269.958,-223.2 352.042,-223.2 "/>
<text text-anchor="middle" x="311" y="-205.2" font-family="Times,serif" font-size="14.00"> </text>
</g>
<!-- 4&#45;&gt;5 -->
<g id="edge18" class="edge"><title>4&#45;&gt;5</title>
<path fill="none" stroke="black" d="M311,-109.086C311,-133.196 311,-161.744 311,-186.275"/>
<polygon fill="black" stroke="black" points="311,-186.324 315,-192.324 311,-198.324 307,-192.324 311,-186.324"/>
<text text-anchor="middle" x="344.042" y="-131.4" font-family="Times,serif" font-size="14.00" fill="green">device_info</text>
</g>
<!-- 6 -->
<g id="node5" class="node"><title>6</title>
<polygon fill="none" stroke="black" points="369.734,-198.4 369.734,-289.6 464.266,-289.6 464.266,-198.4 369.734,-198.4"/>
<text text-anchor="middle" x="417" y="-271.6" font-family="Times,serif" font-size="14.00">Kuramoto</text>
<polyline fill="none" stroke="black" points="369.734,-264.8 464.266,-264.8 "/>
<text text-anchor="start" x="377.734" y="-246.8" font-family="Times,serif" font-size="14.00">a : FloatArray</text>
<text text-anchor="start" x="377.734" y="-230" font-family="Times,serif" font-size="14.00">device_info</text>
<polyline fill="none" stroke="black" points="369.734,-223.2 464.266,-223.2 "/>
<text text-anchor="middle" x="417" y="-205.2" font-family="Times,serif" font-size="14.00"> </text>
</g>
<!-- 4&#45;&gt;6 -->
<g id="edge20" class="edge"><title>4&#45;&gt;6</title>
<path fill="none" stroke="black" d="M367.769,-109.213C372.64,-115.252 377.163,-121.56 381,-128 391.642,-145.86 399.446,-167.183 405.013,-186.589"/>
<polygon fill="black" stroke="black" points="405.067,-186.791 410.493,-191.541 408.195,-198.377 402.769,-193.626 405.067,-186.791"/>
<text text-anchor="middle" x="424.042" y="-131.4" font-family="Times,serif" font-size="14.00" fill="green">device_info</text>
</g>
<!-- 7 -->
<g id="node6" class="node"><title>7</title>
<polygon fill="none" stroke="black" points="482.734,-198.4 482.734,-289.6 577.266,-289.6 577.266,-198.4 482.734,-198.4"/>
<text text-anchor="middle" x="530" y="-271.6" font-family="Times,serif" font-size="14.00">Difference</text>
<polyline fill="none" stroke="black" points="482.734,-264.8 577.266,-264.8 "/>
<text text-anchor="start" x="490.734" y="-246.8" font-family="Times,serif" font-size="14.00">a : FloatArray</text>
<text text-anchor="start" x="490.734" y="-230" font-family="Times,serif" font-size="14.00">device_info</text>
<polyline fill="none" stroke="black" points="482.734,-223.2 577.266,-223.2 "/>
<text text-anchor="middle" x="530" y="-205.2" font-family="Times,serif" font-size="14.00"> </text>
</g>
<!-- 4&#45;&gt;7 -->
<g id="edge22" class="edge"><title>4&#45;&gt;7</title>
<path fill="none" stroke="black" d="M380.313,-79.3007C407.64,-90.8908 437.94,-106.988 461,-128 479.09,-144.483 493.957,-166.817 505.198,-187.419"/>
<polygon fill="black" stroke="black" points="505.337,-187.685 511.665,-191.144 510.905,-198.315 504.578,-194.856 505.337,-187.685"/>
<text text-anchor="middle" x="510.042" y="-131.4" font-family="Times,serif" font-size="14.00" fill="green">device_info</text>
</g>
<!-- 5&#45;&gt;9 -->
<g id="edge6" class="edge"><title>5&#45;&gt;9</title>
<path fill="none" stroke="black" d="M326.18,-289.957C332.93,-309.946 340.864,-333.442 347.635,-353.495"/>
<polygon fill="none" stroke="black" points="344.34,-354.677 350.855,-363.032 350.972,-352.438 344.34,-354.677"/>
</g>
<!-- 6&#45;&gt;9 -->
<g id="edge8" class="edge"><title>6&#45;&gt;9</title>
<path fill="none" stroke="black" d="M401.236,-289.957C394.227,-309.946 385.988,-333.442 378.956,-353.495"/>
<polygon fill="none" stroke="black" points="375.618,-352.437 375.612,-363.032 382.224,-354.754 375.618,-352.437"/>
</g>
<!-- 7&#45;&gt;9 -->
<g id="edge10" class="edge"><title>7&#45;&gt;9</title>
<path fill="none" stroke="black" d="M501.762,-289.82C493.273,-301.608 483.421,-313.853 473,-324 452.987,-343.487 427.356,-361.289 405.871,-374.655"/>
<polygon fill="none" stroke="black" points="403.961,-371.72 397.252,-379.919 407.61,-377.694 403.961,-371.72"/>
</g>
<!-- 8 -->
<g id="node7" class="node"><title>8</title>
<polygon fill="none" stroke="black" points="595.562,-181.6 595.562,-306.4 734.438,-306.4 734.438,-181.6 595.562,-181.6"/>
<text text-anchor="middle" x="665" y="-288.4" font-family="Times,serif" font-size="14.00">HyperbolicTangent</text>
<polyline fill="none" stroke="black" points="595.562,-281.6 734.438,-281.6 "/>
<text text-anchor="start" x="603.562" y="-263.6" font-family="Times,serif" font-size="14.00">a : FloatArray</text>
<text text-anchor="start" x="603.562" y="-246.8" font-family="Times,serif" font-size="14.00">midpoint : FloatArray</text>
<text text-anchor="start" x="603.562" y="-230" font-family="Times,serif" font-size="14.00">normalise : Bool</text>
<text text-anchor="start" x="603.562" y="-213.2" font-family="Times,serif" font-size="14.00">sigma : FloatArray</text>
<polyline fill="none" stroke="black" points="595.562,-206.4 734.438,-206.4 "/>
<text text-anchor="middle" x="665" y="-188.4" font-family="Times,serif" font-size="14.00"> </text>
</g>
<!-- 8&#45;&gt;9 -->
<g id="edge12" class="edge"><title>8&#45;&gt;9</title>
<path fill="none" stroke="black" d="M609.42,-306.603C601.958,-313.008 594.078,-318.992 586,-324 529.237,-359.187 454.016,-380.021 407.069,-390.483"/>
<polygon fill="none" stroke="black" points="406.241,-387.081 397.21,-392.62 407.724,-393.922 406.241,-387.081"/>
</g>
</g>
</svg>
