<?xml version="1.0" encoding="UTF-8" standalone="no"?>
<!DOCTYPE svg PUBLIC "-//W3C//DTD SVG 1.1//EN"
 "http://www.w3.org/Graphics/SVG/1.1/DTD/svg11.dtd">
<!-- Generated by graphviz version 2.28.0 (20111028.1807)
 -->
<!-- Title: classes_models Pages: 1 -->
<svg width="1996pt" height="1184pt"
 viewBox="0.00 0.00 1996.00 1184.00" xmlns="http://www.w3.org/2000/svg" xmlns:xlink="http://www.w3.org/1999/xlink">
<g id="graph1" class="graph" transform="scale(1 1) rotate(0) translate(4 1180)">
<title>classes_models</title>
<polygon fill="white" stroke="white" points="-4,5 -4,-1180 1993,-1180 1993,5 -4,5"/>
<!-- 2 -->
<g id="node1" class="node"><title>2</title>
<polygon fill="none" stroke="black" points="445.538,-314.4 445.538,-825.6 650.462,-825.6 650.462,-314.4 445.538,-314.4"/>
<text text-anchor="middle" x="548" y="-807.6" font-family="Times,serif" font-size="14.00">ReducedSetFitzHughNagumo</text>
<polyline fill="none" stroke="black" points="445.538,-800.8 650.462,-800.8 "/>
<text text-anchor="start" x="453.538" y="-782.8" font-family="Times,serif" font-size="14.00">cvar</text>
<text text-anchor="start" x="453.538" y="-766" font-family="Times,serif" font-size="14.00">number_of_modes : int</text>
<text text-anchor="start" x="453.538" y="-749.2" font-family="Times,serif" font-size="14.00">Bik : NoneType</text>
<text text-anchor="start" x="453.538" y="-732.4" font-family="Times,serif" font-size="14.00">Cik : NoneType</text>
<text text-anchor="start" x="453.538" y="-715.6" font-family="Times,serif" font-size="14.00">Aik : NoneType</text>
<text text-anchor="start" x="453.538" y="-698.8" font-family="Times,serif" font-size="14.00">f_i : NoneType</text>
<text text-anchor="start" x="453.538" y="-682" font-family="Times,serif" font-size="14.00">m_i : NoneType</text>
<text text-anchor="start" x="453.538" y="-665.2" font-family="Times,serif" font-size="14.00">n_i : NoneType</text>
<text text-anchor="start" x="453.538" y="-648.4" font-family="Times,serif" font-size="14.00">II_i : NoneType</text>
<text text-anchor="start" x="453.538" y="-631.6" font-family="Times,serif" font-size="14.00">e_i : NoneType</text>
<text text-anchor="start" x="453.538" y="-614.8" font-family="Times,serif" font-size="14.00">nu : int</text>
<text text-anchor="start" x="453.538" y="-598" font-family="Times,serif" font-size="14.00">nv : int</text>
<text text-anchor="start" x="453.538" y="-581.2" font-family="Times,serif" font-size="14.00">IE_i : NoneType</text>
<text text-anchor="start" x="453.538" y="-564.4" font-family="Times,serif" font-size="14.00">a : FloatArray</text>
<text text-anchor="start" x="453.538" y="-547.6" font-family="Times,serif" font-size="14.00">tau : FloatArray</text>
<text text-anchor="start" x="453.538" y="-530.8" font-family="Times,serif" font-size="14.00">K11 : FloatArray</text>
<text text-anchor="start" x="453.538" y="-514" font-family="Times,serif" font-size="14.00">b : FloatArray</text>
<text text-anchor="start" x="453.538" y="-497.2" font-family="Times,serif" font-size="14.00">K12 : FloatArray</text>
<text text-anchor="start" x="453.538" y="-480.4" font-family="Times,serif" font-size="14.00">state_variable_range : Dict</text>
<text text-anchor="start" x="453.538" y="-463.6" font-family="Times,serif" font-size="14.00">K21 : FloatArray</text>
<text text-anchor="start" x="453.538" y="-446.8" font-family="Times,serif" font-size="14.00">mu : FloatArray</text>
<text text-anchor="start" x="453.538" y="-430" font-family="Times,serif" font-size="14.00">ui_configurable_parameters : list</text>
<text text-anchor="start" x="453.538" y="-413.2" font-family="Times,serif" font-size="14.00">device_info</text>
<text text-anchor="start" x="453.538" y="-396.4" font-family="Times,serif" font-size="14.00">variables_of_interest : Enumerate</text>
<text text-anchor="start" x="453.538" y="-379.6" font-family="Times,serif" font-size="14.00">sigma : FloatArray</text>
<polyline fill="none" stroke="black" points="445.538,-372.8 650.462,-372.8 "/>
<text text-anchor="start" x="453.538" y="-354.8" font-family="Times,serif" font-size="14.00">configure()</text>
<text text-anchor="start" x="453.538" y="-338" font-family="Times,serif" font-size="14.00">dfun()</text>
<text text-anchor="start" x="453.538" y="-321.2" font-family="Times,serif" font-size="14.00">update_derived_parameters()</text>
</g>
<!-- 10 -->
<g id="node9" class="node"><title>10</title>
<polygon fill="none" stroke="black" points="893.858,-949.2 893.858,-1174.8 1094.14,-1174.8 1094.14,-949.2 893.858,-949.2"/>
<text text-anchor="middle" x="994" y="-1156.8" font-family="Times,serif" font-size="14.00">Model</text>
<polyline fill="none" stroke="black" points="893.858,-1150 1094.14,-1150 "/>
<text text-anchor="start" x="901.858" y="-1132" font-family="Times,serif" font-size="14.00">number_of_modes : int</text>
<text text-anchor="start" x="901.858" y="-1115.2" font-family="Times,serif" font-size="14.00">noise : Noise</text>
<text text-anchor="start" x="901.858" y="-1098.4" font-family="Times,serif" font-size="14.00">ui_configurable_parameters : list</text>
<polyline fill="none" stroke="black" points="893.858,-1091.6 1094.14,-1091.6 "/>
<text text-anchor="start" x="901.858" y="-1073.6" font-family="Times,serif" font-size="14.00">dfun()</text>
<text text-anchor="start" x="901.858" y="-1056.8" font-family="Times,serif" font-size="14.00">configure_initial()</text>
<text text-anchor="start" x="901.858" y="-1040" font-family="Times,serif" font-size="14.00">configure()</text>
<text text-anchor="start" x="901.858" y="-1023.2" font-family="Times,serif" font-size="14.00">stationary_trajectory()</text>
<text text-anchor="start" x="901.858" y="-1006.4" font-family="Times,serif" font-size="14.00">nvar()</text>
<text text-anchor="start" x="901.858" y="-989.6" font-family="Times,serif" font-size="14.00">initial()</text>
<text text-anchor="start" x="901.858" y="-972.8" font-family="Times,serif" font-size="14.00">state_variables()</text>
<text text-anchor="start" x="901.858" y="-956" font-family="Times,serif" font-size="14.00">update_derived_parameters()</text>
</g>
<!-- 2&#45;&gt;10 -->
<g id="edge2" class="edge"><title>2&#45;&gt;10</title>
<path fill="none" stroke="black" d="M605.937,-825.927C620.186,-856.466 637.924,-885.463 660,-910 718.759,-975.309 811.274,-1014.09 884.05,-1035.97"/>
<polygon fill="none" stroke="black" points="883.148,-1039.35 893.729,-1038.81 885.122,-1032.63 883.148,-1039.35"/>
</g>
<!-- 3 -->
<g id="node2" class="node"><title>3</title>
<polygon fill="none" stroke="black" points="222.538,-289.2 222.538,-850.8 427.462,-850.8 427.462,-289.2 222.538,-289.2"/>
<text text-anchor="middle" x="325" y="-832.8" font-family="Times,serif" font-size="14.00">LileySteynRoss</text>
<polyline fill="none" stroke="black" points="222.538,-826 427.462,-826 "/>
<text text-anchor="start" x="230.538" y="-808" font-family="Times,serif" font-size="14.00">cvar</text>
<text text-anchor="start" x="230.538" y="-791.2" font-family="Times,serif" font-size="14.00">lambd : FloatArray</text>
<text text-anchor="start" x="230.538" y="-774.4" font-family="Times,serif" font-size="14.00">N_b_ie : FloatArray</text>
<text text-anchor="start" x="230.538" y="-757.6" font-family="Times,serif" font-size="14.00">g_i : FloatArray</text>
<text text-anchor="start" x="230.538" y="-740.8" font-family="Times,serif" font-size="14.00">g_e : FloatArray</text>
<text text-anchor="start" x="230.538" y="-724" font-family="Times,serif" font-size="14.00">N_b_ii : FloatArray</text>
<text text-anchor="start" x="230.538" y="-707.2" font-family="Times,serif" font-size="14.00">gamma_i : FloatArray</text>
<text text-anchor="start" x="230.538" y="-690.4" font-family="Times,serif" font-size="14.00">h_i_rev : FloatArray</text>
<text text-anchor="start" x="230.538" y="-673.6" font-family="Times,serif" font-size="14.00">tau_i : FloatArray</text>
<text text-anchor="start" x="230.538" y="-656.8" font-family="Times,serif" font-size="14.00">gamma_e : FloatArray</text>
<text text-anchor="start" x="230.538" y="-640" font-family="Times,serif" font-size="14.00">tau_e : FloatArray</text>
<text text-anchor="start" x="230.538" y="-623.2" font-family="Times,serif" font-size="14.00">G_i : FloatArray</text>
<text text-anchor="start" x="230.538" y="-606.4" font-family="Times,serif" font-size="14.00">N_a_ee : FloatArray</text>
<text text-anchor="start" x="230.538" y="-589.6" font-family="Times,serif" font-size="14.00">variables_of_interest : Enumerate</text>
<text text-anchor="start" x="230.538" y="-572.8" font-family="Times,serif" font-size="14.00">G_e : FloatArray</text>
<text text-anchor="start" x="230.538" y="-556" font-family="Times,serif" font-size="14.00">h_i_rest : FloatArray</text>
<text text-anchor="start" x="230.538" y="-539.2" font-family="Times,serif" font-size="14.00">h_e_rest : FloatArray</text>
<text text-anchor="start" x="230.538" y="-522.4" font-family="Times,serif" font-size="14.00">p_ee : FloatArray</text>
<text text-anchor="start" x="230.538" y="-505.6" font-family="Times,serif" font-size="14.00">p_ii : FloatArray</text>
<text text-anchor="start" x="230.538" y="-488.8" font-family="Times,serif" font-size="14.00">theta_e : FloatArray</text>
<text text-anchor="start" x="230.538" y="-472" font-family="Times,serif" font-size="14.00">p_ie : FloatArray</text>
<text text-anchor="start" x="230.538" y="-455.2" font-family="Times,serif" font-size="14.00">theta_i : FloatArray</text>
<text text-anchor="start" x="230.538" y="-438.4" font-family="Times,serif" font-size="14.00">N_a_ei : FloatArray</text>
<text text-anchor="start" x="230.538" y="-421.6" font-family="Times,serif" font-size="14.00">A_ee : FloatArray</text>
<text text-anchor="start" x="230.538" y="-404.8" font-family="Times,serif" font-size="14.00">N_b_ee : FloatArray</text>
<text text-anchor="start" x="230.538" y="-388" font-family="Times,serif" font-size="14.00">p_ei : FloatArray</text>
<text text-anchor="start" x="230.538" y="-371.2" font-family="Times,serif" font-size="14.00">N_b_ei : FloatArray</text>
<text text-anchor="start" x="230.538" y="-354.4" font-family="Times,serif" font-size="14.00">h_e_rev : FloatArray</text>
<text text-anchor="start" x="230.538" y="-337.6" font-family="Times,serif" font-size="14.00">A_ei : FloatArray</text>
<text text-anchor="start" x="230.538" y="-320.8" font-family="Times,serif" font-size="14.00">state_variable_range : Dict</text>
<polyline fill="none" stroke="black" points="222.538,-314 427.462,-314 "/>
<text text-anchor="start" x="230.538" y="-296" font-family="Times,serif" font-size="14.00">dfun()</text>
</g>
<!-- 3&#45;&gt;10 -->
<g id="edge4" class="edge"><title>3&#45;&gt;10</title>
<path fill="none" stroke="black" d="M390.967,-850.941C403.699,-872.704 418.886,-892.845 437,-910 501.025,-970.636 740.349,-1019.28 883.63,-1043.75"/>
<polygon fill="none" stroke="black" points="883.332,-1047.25 893.776,-1045.47 884.502,-1040.35 883.332,-1047.25"/>
</g>
<!-- 4 -->
<g id="node3" class="node"><title>4</title>
<polygon fill="none" stroke="black" points="1114.54,-482.4 1114.54,-657.6 1319.46,-657.6 1319.46,-482.4 1114.54,-482.4"/>
<text text-anchor="middle" x="1217" y="-639.6" font-family="Times,serif" font-size="14.00">Kuramoto</text>
<polyline fill="none" stroke="black" points="1114.54,-632.8 1319.46,-632.8 "/>
<text text-anchor="start" x="1122.54" y="-614.8" font-family="Times,serif" font-size="14.00">derivative</text>
<text text-anchor="start" x="1122.54" y="-598" font-family="Times,serif" font-size="14.00">cvar</text>
<text text-anchor="start" x="1122.54" y="-581.2" font-family="Times,serif" font-size="14.00">state_variable_range : Dict</text>
<text text-anchor="start" x="1122.54" y="-564.4" font-family="Times,serif" font-size="14.00">ui_configurable_parameters : list</text>
<text text-anchor="start" x="1122.54" y="-547.6" font-family="Times,serif" font-size="14.00">device_info</text>
<text text-anchor="start" x="1122.54" y="-530.8" font-family="Times,serif" font-size="14.00">variables_of_interest : Enumerate</text>
<text text-anchor="start" x="1122.54" y="-514" font-family="Times,serif" font-size="14.00">omega : FloatArray</text>
<polyline fill="none" stroke="black" points="1114.54,-507.2 1319.46,-507.2 "/>
<text text-anchor="start" x="1122.54" y="-489.2" font-family="Times,serif" font-size="14.00">dfun()</text>
</g>
<!-- 4&#45;&gt;10 -->
<g id="edge6" class="edge"><title>4&#45;&gt;10</title>
<path fill="none" stroke="black" d="M1196.39,-657.929C1177.83,-728.257 1147,-828.621 1105,-910 1099.81,-920.063 1093.97,-930.18 1087.77,-940.152"/>
<polygon fill="none" stroke="black" points="1084.64,-938.555 1082.23,-948.872 1090.55,-942.308 1084.64,-938.555"/>
</g>
<!-- 5 -->
<g id="node4" class="node"><title>5</title>
<polygon fill="none" stroke="black" points="668.538,-432 668.538,-708 873.462,-708 873.462,-432 668.538,-432"/>
<text text-anchor="middle" x="771" y="-690" font-family="Times,serif" font-size="14.00">ReducedWongWang</text>
<polyline fill="none" stroke="black" points="668.538,-683.2 873.462,-683.2 "/>
<text text-anchor="start" x="676.538" y="-665.2" font-family="Times,serif" font-size="14.00">cvar</text>
<text text-anchor="start" x="676.538" y="-648.4" font-family="Times,serif" font-size="14.00">a : FloatArray</text>
<text text-anchor="start" x="676.538" y="-631.6" font-family="Times,serif" font-size="14.00">I_o : FloatArray</text>
<text text-anchor="start" x="676.538" y="-614.8" font-family="Times,serif" font-size="14.00">b : FloatArray</text>
<text text-anchor="start" x="676.538" y="-598" font-family="Times,serif" font-size="14.00">d : FloatArray</text>
<text text-anchor="start" x="676.538" y="-581.2" font-family="Times,serif" font-size="14.00">state_variable_range : Dict</text>
<text text-anchor="start" x="676.538" y="-564.4" font-family="Times,serif" font-size="14.00">J_N : FloatArray</text>
<text text-anchor="start" x="676.538" y="-547.6" font-family="Times,serif" font-size="14.00">tau_s : FloatArray</text>
<text text-anchor="start" x="676.538" y="-530.8" font-family="Times,serif" font-size="14.00">sigma_noise : FloatArray</text>
<text text-anchor="start" x="676.538" y="-514" font-family="Times,serif" font-size="14.00">w : FloatArray</text>
<text text-anchor="start" x="676.538" y="-497.2" font-family="Times,serif" font-size="14.00">variables_of_interest : Enumerate</text>
<text text-anchor="start" x="676.538" y="-480.4" font-family="Times,serif" font-size="14.00">gamma : FloatArray</text>
<polyline fill="none" stroke="black" points="668.538,-473.6 873.462,-473.6 "/>
<text text-anchor="start" x="676.538" y="-455.6" font-family="Times,serif" font-size="14.00">dfun()</text>
<text text-anchor="start" x="676.538" y="-438.8" font-family="Times,serif" font-size="14.00">configure()</text>
</g>
<!-- 5&#45;&gt;10 -->
<g id="edge8" class="edge"><title>5&#45;&gt;10</title>
<path fill="none" stroke="black" d="M805.626,-708.176C824.271,-771.492 850.235,-846.522 883,-910 888.194,-920.063 894.027,-930.18 900.23,-940.152"/>
<polygon fill="none" stroke="black" points="897.453,-942.308 905.77,-948.872 903.362,-938.555 897.453,-942.308"/>
</g>
<!-- 6 -->
<g id="node5" class="node"><title>6</title>
<polygon fill="none" stroke="black" points="1783.54,-230.4 1783.54,-909.6 1988.46,-909.6 1988.46,-230.4 1783.54,-230.4"/>
<text text-anchor="middle" x="1886" y="-891.6" font-family="Times,serif" font-size="14.00">ReducedSetHindmarshRose</text>
<polyline fill="none" stroke="black" points="1783.54,-884.8 1988.46,-884.8 "/>
<text text-anchor="start" x="1791.54" y="-866.8" font-family="Times,serif" font-size="14.00">b_i : NoneType</text>
<text text-anchor="start" x="1791.54" y="-850" font-family="Times,serif" font-size="14.00">cvar</text>
<text text-anchor="start" x="1791.54" y="-833.2" font-family="Times,serif" font-size="14.00">number_of_modes : int</text>
<text text-anchor="start" x="1791.54" y="-816.4" font-family="Times,serif" font-size="14.00">p_i : NoneType</text>
<text text-anchor="start" x="1791.54" y="-799.6" font-family="Times,serif" font-size="14.00">c_i : NoneType</text>
<text text-anchor="start" x="1791.54" y="-782.8" font-family="Times,serif" font-size="14.00">B_ik : NoneType</text>
<text text-anchor="start" x="1791.54" y="-766" font-family="Times,serif" font-size="14.00">f_i : NoneType</text>
<text text-anchor="start" x="1791.54" y="-749.2" font-family="Times,serif" font-size="14.00">C_ik : NoneType</text>
<text text-anchor="start" x="1791.54" y="-732.4" font-family="Times,serif" font-size="14.00">nu : int</text>
<text text-anchor="start" x="1791.54" y="-715.6" font-family="Times,serif" font-size="14.00">m_i : NoneType</text>
<text text-anchor="start" x="1791.54" y="-698.8" font-family="Times,serif" font-size="14.00">n_i : NoneType</text>
<text text-anchor="start" x="1791.54" y="-682" font-family="Times,serif" font-size="14.00">II_i : NoneType</text>
<text text-anchor="start" x="1791.54" y="-665.2" font-family="Times,serif" font-size="14.00">A_ik : NoneType</text>
<text text-anchor="start" x="1791.54" y="-648.4" font-family="Times,serif" font-size="14.00">e_i : NoneType</text>
<text text-anchor="start" x="1791.54" y="-631.6" font-family="Times,serif" font-size="14.00">h_i : NoneType</text>
<text text-anchor="start" x="1791.54" y="-614.8" font-family="Times,serif" font-size="14.00">d_i : NoneType</text>
<text text-anchor="start" x="1791.54" y="-598" font-family="Times,serif" font-size="14.00">IE_i : NoneType</text>
<text text-anchor="start" x="1791.54" y="-581.2" font-family="Times,serif" font-size="14.00">a_i : NoneType</text>
<text text-anchor="start" x="1791.54" y="-564.4" font-family="Times,serif" font-size="14.00">nv : int</text>
<text text-anchor="start" x="1791.54" y="-547.6" font-family="Times,serif" font-size="14.00">a : FloatArray</text>
<text text-anchor="start" x="1791.54" y="-530.8" font-family="Times,serif" font-size="14.00">K12 : FloatArray</text>
<text text-anchor="start" x="1791.54" y="-514" font-family="Times,serif" font-size="14.00">c : FloatArray</text>
<text text-anchor="start" x="1791.54" y="-497.2" font-family="Times,serif" font-size="14.00">b : FloatArray</text>
<text text-anchor="start" x="1791.54" y="-480.4" font-family="Times,serif" font-size="14.00">d : FloatArray</text>
<text text-anchor="start" x="1791.54" y="-463.6" font-family="Times,serif" font-size="14.00">state_variable_range : Dict</text>
<text text-anchor="start" x="1791.54" y="-446.8" font-family="Times,serif" font-size="14.00">K21 : FloatArray</text>
<text text-anchor="start" x="1791.54" y="-430" font-family="Times,serif" font-size="14.00">K11 : FloatArray</text>
<text text-anchor="start" x="1791.54" y="-413.2" font-family="Times,serif" font-size="14.00">mu : FloatArray</text>
<text text-anchor="start" x="1791.54" y="-396.4" font-family="Times,serif" font-size="14.00">ui_configurable_parameters : list</text>
<text text-anchor="start" x="1791.54" y="-379.6" font-family="Times,serif" font-size="14.00">s : FloatArray</text>
<text text-anchor="start" x="1791.54" y="-362.8" font-family="Times,serif" font-size="14.00">r : FloatArray</text>
<text text-anchor="start" x="1791.54" y="-346" font-family="Times,serif" font-size="14.00">variables_of_interest : Enumerate</text>
<text text-anchor="start" x="1791.54" y="-329.2" font-family="Times,serif" font-size="14.00">device_info</text>
<text text-anchor="start" x="1791.54" y="-312.4" font-family="Times,serif" font-size="14.00">sigma : FloatArray</text>
<text text-anchor="start" x="1791.54" y="-295.6" font-family="Times,serif" font-size="14.00">xo : FloatArray</text>
<polyline fill="none" stroke="black" points="1783.54,-288.8 1988.46,-288.8 "/>
<text text-anchor="start" x="1791.54" y="-270.8" font-family="Times,serif" font-size="14.00">dfun()</text>
<text text-anchor="start" x="1791.54" y="-254" font-family="Times,serif" font-size="14.00">update_derived_parameters()</text>
<text text-anchor="start" x="1791.54" y="-237.2" font-family="Times,serif" font-size="14.00">configure()</text>
</g>
<!-- 6&#45;&gt;10 -->
<g id="edge10" class="edge"><title>6&#45;&gt;10</title>
<path fill="none" stroke="black" d="M1783.49,-901.12C1780.42,-904.172 1777.26,-907.134 1774,-910 1675.82,-996.367 1295.19,-1037.63 1104.37,-1053.23"/>
<polygon fill="none" stroke="black" points="1103.99,-1049.74 1094.31,-1054.04 1104.56,-1056.72 1103.99,-1049.74"/>
</g>
<!-- 7 -->
<g id="node6" class="node"><title>7</title>
<polygon fill="none" stroke="black" points="-0.462402,-398.4 -0.462402,-741.6 204.462,-741.6 204.462,-398.4 -0.462402,-398.4"/>
<text text-anchor="middle" x="102" y="-723.6" font-family="Times,serif" font-size="14.00">Generic2dOscillator</text>
<polyline fill="none" stroke="black" points="-0.462402,-716.8 204.462,-716.8 "/>
<text text-anchor="start" x="7.5376" y="-698.8" font-family="Times,serif" font-size="14.00">derivative</text>
<text text-anchor="start" x="7.5376" y="-682" font-family="Times,serif" font-size="14.00">cvar</text>
<text text-anchor="start" x="7.5376" y="-665.2" font-family="Times,serif" font-size="14.00">a : FloatArray</text>
<text text-anchor="start" x="7.5376" y="-648.4" font-family="Times,serif" font-size="14.00">tau : FloatArray</text>
<text text-anchor="start" x="7.5376" y="-631.6" font-family="Times,serif" font-size="14.00">c : FloatArray</text>
<text text-anchor="start" x="7.5376" y="-614.8" font-family="Times,serif" font-size="14.00">b : FloatArray</text>
<text text-anchor="start" x="7.5376" y="-598" font-family="Times,serif" font-size="14.00">e : FloatArray</text>
<text text-anchor="start" x="7.5376" y="-581.2" font-family="Times,serif" font-size="14.00">d : FloatArray</text>
<text text-anchor="start" x="7.5376" y="-564.4" font-family="Times,serif" font-size="14.00">g : FloatArray</text>
<text text-anchor="start" x="7.5376" y="-547.6" font-family="Times,serif" font-size="14.00">f : FloatArray</text>
<text text-anchor="start" x="7.5376" y="-530.8" font-family="Times,serif" font-size="14.00">I : FloatArray</text>
<text text-anchor="start" x="7.5376" y="-514" font-family="Times,serif" font-size="14.00">ui_configurable_parameters : list</text>
<text text-anchor="start" x="7.5376" y="-497.2" font-family="Times,serif" font-size="14.00">beta : FloatArray</text>
<text text-anchor="start" x="7.5376" y="-480.4" font-family="Times,serif" font-size="14.00">state_variable_range : Dict</text>
<text text-anchor="start" x="7.5376" y="-463.6" font-family="Times,serif" font-size="14.00">device_info</text>
<text text-anchor="start" x="7.5376" y="-446.8" font-family="Times,serif" font-size="14.00">variables_of_interest : Enumerate</text>
<text text-anchor="start" x="7.5376" y="-430" font-family="Times,serif" font-size="14.00">alpha : FloatArray</text>
<polyline fill="none" stroke="black" points="-0.462402,-423.2 204.462,-423.2 "/>
<text text-anchor="start" x="7.5376" y="-405.2" font-family="Times,serif" font-size="14.00">dfun()</text>
</g>
<!-- 7&#45;&gt;10 -->
<g id="edge12" class="edge"><title>7&#45;&gt;10</title>
<path fill="none" stroke="black" d="M122.151,-741.705C137.775,-802.877 165.366,-867.219 214,-910 312.182,-996.367 692.81,-1037.63 883.634,-1053.23"/>
<polygon fill="none" stroke="black" points="883.443,-1056.72 893.692,-1054.04 884.007,-1049.74 883.443,-1056.72"/>
</g>
<!-- 8 -->
<g id="node7" class="node"><title>8</title>
<polygon fill="none" stroke="black" points="1581.91,-17.2 1581.91,-158.8 1744.09,-158.8 1744.09,-17.2 1581.91,-17.2"/>
<text text-anchor="middle" x="1663" y="-140.8" font-family="Times,serif" font-size="14.00">JRFast</text>
<polyline fill="none" stroke="black" points="1581.91,-134 1744.09,-134 "/>
<text text-anchor="start" x="1589.91" y="-116" font-family="Times,serif" font-size="14.00">dfunlocals : dict</text>
<text text-anchor="start" x="1589.91" y="-99.2" font-family="Times,serif" font-size="14.00">invalid_dfun_cache : bool</text>
<text text-anchor="start" x="1589.91" y="-82.4" font-family="Times,serif" font-size="14.00">dfunglobals : dict</text>
<text text-anchor="start" x="1589.91" y="-65.6" font-family="Times,serif" font-size="14.00">dy</text>
<text text-anchor="start" x="1589.91" y="-48.8" font-family="Times,serif" font-size="14.00">invalid_dfun_cache : bool</text>
<polyline fill="none" stroke="black" points="1581.91,-42 1744.09,-42 "/>
<text text-anchor="start" x="1589.91" y="-24" font-family="Times,serif" font-size="14.00">dfun()</text>
</g>
<!-- 11 -->
<g id="node10" class="node"><title>11</title>
<polygon fill="none" stroke="black" points="1560.54,-373.2 1560.54,-766.8 1765.46,-766.8 1765.46,-373.2 1560.54,-373.2"/>
<text text-anchor="middle" x="1663" y="-748.8" font-family="Times,serif" font-size="14.00">JansenRit</text>
<polyline fill="none" stroke="black" points="1560.54,-742 1765.46,-742 "/>
<text text-anchor="start" x="1568.54" y="-724" font-family="Times,serif" font-size="14.00">cvar</text>
<text text-anchor="start" x="1568.54" y="-707.2" font-family="Times,serif" font-size="14.00">A : FloatArray</text>
<text text-anchor="start" x="1568.54" y="-690.4" font-family="Times,serif" font-size="14.00">v0 : FloatArray</text>
<text text-anchor="start" x="1568.54" y="-673.6" font-family="Times,serif" font-size="14.00">r : FloatArray</text>
<text text-anchor="start" x="1568.54" y="-656.8" font-family="Times,serif" font-size="14.00">a_4 : FloatArray</text>
<text text-anchor="start" x="1568.54" y="-640" font-family="Times,serif" font-size="14.00">a_3 : FloatArray</text>
<text text-anchor="start" x="1568.54" y="-623.2" font-family="Times,serif" font-size="14.00">a_2 : FloatArray</text>
<text text-anchor="start" x="1568.54" y="-606.4" font-family="Times,serif" font-size="14.00">a_1 : FloatArray</text>
<text text-anchor="start" x="1568.54" y="-589.6" font-family="Times,serif" font-size="14.00">ui_configurable_parameters : list</text>
<text text-anchor="start" x="1568.54" y="-572.8" font-family="Times,serif" font-size="14.00">state_variable_range : Dict</text>
<text text-anchor="start" x="1568.54" y="-556" font-family="Times,serif" font-size="14.00">nu_max : FloatArray</text>
<text text-anchor="start" x="1568.54" y="-539.2" font-family="Times,serif" font-size="14.00">J : FloatArray</text>
<text text-anchor="start" x="1568.54" y="-522.4" font-family="Times,serif" font-size="14.00">p_min : FloatArray</text>
<text text-anchor="start" x="1568.54" y="-505.6" font-family="Times,serif" font-size="14.00">mu : FloatArray</text>
<text text-anchor="start" x="1568.54" y="-488.8" font-family="Times,serif" font-size="14.00">device_info</text>
<text text-anchor="start" x="1568.54" y="-472" font-family="Times,serif" font-size="14.00">B : FloatArray</text>
<text text-anchor="start" x="1568.54" y="-455.2" font-family="Times,serif" font-size="14.00">a : FloatArray</text>
<text text-anchor="start" x="1568.54" y="-438.4" font-family="Times,serif" font-size="14.00">variables_of_interest : Enumerate</text>
<text text-anchor="start" x="1568.54" y="-421.6" font-family="Times,serif" font-size="14.00">b : FloatArray</text>
<text text-anchor="start" x="1568.54" y="-404.8" font-family="Times,serif" font-size="14.00">p_max : FloatArray</text>
<polyline fill="none" stroke="black" points="1560.54,-398 1765.46,-398 "/>
<text text-anchor="start" x="1568.54" y="-380" font-family="Times,serif" font-size="14.00">dfun()</text>
</g>
<!-- 8&#45;&gt;11 -->
<g id="edge14" class="edge"><title>8&#45;&gt;11</title>
<path fill="none" stroke="black" d="M1663,-159.053C1663,-212.795 1663,-289.887 1663,-362.746"/>
<polygon fill="none" stroke="black" points="1659.5,-362.995 1663,-372.995 1666.5,-362.995 1659.5,-362.995"/>
</g>
<!-- 9 -->
<g id="node8" class="node"><title>9</title>
<polygon fill="none" stroke="black" points="1337.54,-423.6 1337.54,-716.4 1542.46,-716.4 1542.46,-423.6 1337.54,-423.6"/>
<text text-anchor="middle" x="1440" y="-698.4" font-family="Times,serif" font-size="14.00">JansenRitDavid</text>
<polyline fill="none" stroke="black" points="1337.54,-691.6 1542.46,-691.6 "/>
<text text-anchor="start" x="1345.54" y="-673.6" font-family="Times,serif" font-size="14.00">cvar</text>
<text text-anchor="start" x="1345.54" y="-656.8" font-family="Times,serif" font-size="14.00">eo : FloatArray</text>
<text text-anchor="start" x="1345.54" y="-640" font-family="Times,serif" font-size="14.00">tau_i : FloatArray</text>
<text text-anchor="start" x="1345.54" y="-623.2" font-family="Times,serif" font-size="14.00">state_variable_range : Dict</text>
<text text-anchor="start" x="1345.54" y="-606.4" font-family="Times,serif" font-size="14.00">tau_e : FloatArray</text>
<text text-anchor="start" x="1345.54" y="-589.6" font-family="Times,serif" font-size="14.00">He : FloatArray</text>
<text text-anchor="start" x="1345.54" y="-572.8" font-family="Times,serif" font-size="14.00">ui_configurable_parameters : list</text>
<text text-anchor="start" x="1345.54" y="-556" font-family="Times,serif" font-size="14.00">Hi : FloatArray</text>
<text text-anchor="start" x="1345.54" y="-539.2" font-family="Times,serif" font-size="14.00">variables_of_interest : Enumerate</text>
<text text-anchor="start" x="1345.54" y="-522.4" font-family="Times,serif" font-size="14.00">gamma_4 : FloatArray</text>
<text text-anchor="start" x="1345.54" y="-505.6" font-family="Times,serif" font-size="14.00">r : FloatArray</text>
<text text-anchor="start" x="1345.54" y="-488.8" font-family="Times,serif" font-size="14.00">gamma_1 : FloatArray</text>
<text text-anchor="start" x="1345.54" y="-472" font-family="Times,serif" font-size="14.00">gamma_3 : FloatArray</text>
<text text-anchor="start" x="1345.54" y="-455.2" font-family="Times,serif" font-size="14.00">gamma_2 : FloatArray</text>
<polyline fill="none" stroke="black" points="1337.54,-448.4 1542.46,-448.4 "/>
<text text-anchor="start" x="1345.54" y="-430.4" font-family="Times,serif" font-size="14.00">dfun()</text>
</g>
<!-- 9&#45;&gt;10 -->
<g id="edge16" class="edge"><title>9&#45;&gt;10</title>
<path fill="none" stroke="black" d="M1419.19,-716.733C1403.48,-782.255 1375.99,-856.664 1328,-910 1269.24,-975.309 1176.73,-1014.09 1103.95,-1035.97"/>
<polygon fill="none" stroke="black" points="1102.88,-1032.63 1094.27,-1038.81 1104.85,-1039.35 1102.88,-1032.63"/>
</g>
<!-- 11&#45;&gt;10 -->
<g id="edge18" class="edge"><title>11&#45;&gt;10</title>
<path fill="none" stroke="black" d="M1633.33,-767.142C1616.79,-819.536 1591.05,-872.067 1551,-910 1486.97,-970.636 1247.65,-1019.28 1104.37,-1043.75"/>
<polygon fill="none" stroke="black" points="1103.5,-1040.35 1094.22,-1045.47 1104.67,-1047.25 1103.5,-1040.35"/>
</g>
<!-- 12 -->
<g id="node11" class="node"><title>12</title>
<polygon fill="none" stroke="black" points="891.538,-364.8 891.538,-775.2 1096.46,-775.2 1096.46,-364.8 891.538,-364.8"/>
<text text-anchor="middle" x="994" y="-757.2" font-family="Times,serif" font-size="14.00">WilsonCowan</text>
<polyline fill="none" stroke="black" points="891.538,-750.4 1096.46,-750.4 "/>
<text text-anchor="start" x="899.538" y="-732.4" font-family="Times,serif" font-size="14.00">cvar</text>
<text text-anchor="start" x="899.538" y="-715.6" font-family="Times,serif" font-size="14.00">Q : FloatArray</text>
<text text-anchor="start" x="899.538" y="-698.8" font-family="Times,serif" font-size="14.00">theta_e : FloatArray</text>
<text text-anchor="start" x="899.538" y="-682" font-family="Times,serif" font-size="14.00">k_i : FloatArray</text>
<text text-anchor="start" x="899.538" y="-665.2" font-family="Times,serif" font-size="14.00">P : FloatArray</text>
<text text-anchor="start" x="899.538" y="-648.4" font-family="Times,serif" font-size="14.00">tau_i : FloatArray</text>
<text text-anchor="start" x="899.538" y="-631.6" font-family="Times,serif" font-size="14.00">state_variable_range : Dict</text>
<text text-anchor="start" x="899.538" y="-614.8" font-family="Times,serif" font-size="14.00">tau_e : FloatArray</text>
<text text-anchor="start" x="899.538" y="-598" font-family="Times,serif" font-size="14.00">device_info</text>
<text text-anchor="start" x="899.538" y="-581.2" font-family="Times,serif" font-size="14.00">theta_i : FloatArray</text>
<text text-anchor="start" x="899.538" y="-564.4" font-family="Times,serif" font-size="14.00">c_1 : FloatArray</text>
<text text-anchor="start" x="899.538" y="-547.6" font-family="Times,serif" font-size="14.00">r_i : FloatArray</text>
<text text-anchor="start" x="899.538" y="-530.8" font-family="Times,serif" font-size="14.00">c_3 : FloatArray</text>
<text text-anchor="start" x="899.538" y="-514" font-family="Times,serif" font-size="14.00">c_2 : FloatArray</text>
<text text-anchor="start" x="899.538" y="-497.2" font-family="Times,serif" font-size="14.00">a_e : FloatArray</text>
<text text-anchor="start" x="899.538" y="-480.4" font-family="Times,serif" font-size="14.00">c_4 : FloatArray</text>
<text text-anchor="start" x="899.538" y="-463.6" font-family="Times,serif" font-size="14.00">variables_of_interest : Enumerate</text>
<text text-anchor="start" x="899.538" y="-446.8" font-family="Times,serif" font-size="14.00">ui_configurable_parameters : list</text>
<text text-anchor="start" x="899.538" y="-430" font-family="Times,serif" font-size="14.00">k_e : FloatArray</text>
<text text-anchor="start" x="899.538" y="-413.2" font-family="Times,serif" font-size="14.00">r_e : FloatArray</text>
<text text-anchor="start" x="899.538" y="-396.4" font-family="Times,serif" font-size="14.00">a_i : FloatArray</text>
<polyline fill="none" stroke="black" points="891.538,-389.6 1096.46,-389.6 "/>
<text text-anchor="start" x="899.538" y="-371.6" font-family="Times,serif" font-size="14.00">dfun()</text>
</g>
<!-- 12&#45;&gt;10 -->
<g id="edge20" class="edge"><title>12&#45;&gt;10</title>
<path fill="none" stroke="black" d="M994,-775.256C994,-830.901 994,-889.431 994,-938.927"/>
<polygon fill="none" stroke="black" points="990.5,-939.024 994,-949.024 997.5,-939.024 990.5,-939.024"/>
</g>
<!-- 13 -->
<g id="node12" class="node"><title>13</title>
<polygon fill="none" stroke="black" points="1025.96,-0.4 1025.96,-175.6 1150.04,-175.6 1150.04,-0.4 1025.96,-0.4"/>
<text text-anchor="middle" x="1088" y="-157.6" font-family="Times,serif" font-size="14.00">model_device_info</text>
<polyline fill="none" stroke="black" points="1025.96,-150.8 1150.04,-150.8 "/>
<text text-anchor="start" x="1033.96" y="-132.8" font-family="Times,serif" font-size="14.00">inst</text>
<polyline fill="none" stroke="black" points="1025.96,-126 1150.04,-126 "/>
<text text-anchor="start" x="1033.96" y="-108" font-family="Times,serif" font-size="14.00">n_cvar()</text>
<text text-anchor="start" x="1033.96" y="-91.2" font-family="Times,serif" font-size="14.00">cvar()</text>
<text text-anchor="start" x="1033.96" y="-74.4" font-family="Times,serif" font-size="14.00">kernel()</text>
<text text-anchor="start" x="1033.96" y="-57.6" font-family="Times,serif" font-size="14.00">n_mode()</text>
<text text-anchor="start" x="1033.96" y="-40.8" font-family="Times,serif" font-size="14.00">n_svar()</text>
<text text-anchor="start" x="1033.96" y="-24" font-family="Times,serif" font-size="14.00">n_mmpr()</text>
<text text-anchor="start" x="1033.96" y="-7.2" font-family="Times,serif" font-size="14.00">mmpr()</text>
</g>
<!-- 13&#45;&gt;2 -->
<g id="edge22" class="edge"><title>13&#45;&gt;2</title>
<path fill="none" stroke="black" d="M1025.88,-92.3746C933.602,-100.711 760.448,-129.637 660,-230 638.807,-251.175 621.624,-276.439 607.692,-303.492"/>
<polygon fill="black" stroke="black" points="607.639,-303.601 608.561,-310.752 602.315,-314.355 601.392,-307.203 607.639,-303.601"/>
<text text-anchor="middle" x="730.042" y="-197.4" font-family="Times,serif" font-size="14.00" fill="green">device_info</text>
</g>
<!-- 13&#45;&gt;4 -->
<g id="edge24" class="edge"><title>13&#45;&gt;4</title>
<path fill="none" stroke="black" d="M1122.06,-175.785C1124.16,-181.918 1126.16,-188.034 1128,-194 1156.44,-286.425 1181.13,-394.006 1197.25,-470.176"/>
<polygon fill="black" stroke="black" points="1197.29,-470.381 1202.44,-475.429 1199.76,-482.124 1194.61,-477.075 1197.29,-470.381"/>
<text text-anchor="middle" x="1165.04" y="-197.4" font-family="Times,serif" font-size="14.00" fill="green">device_info</text>
</g>
<!-- 13&#45;&gt;6 -->
<g id="edge26" class="edge"><title>13&#45;&gt;6</title>
<path fill="none" stroke="black" d="M1150.3,-100.061C1314.91,-129.517 1750.46,-209.047 1774,-230 1774.2,-230.18 1774.4,-230.361 1774.61,-230.542"/>
<polygon fill="black" stroke="black" points="1774.74,-230.671 1781.85,-231.901 1783.45,-238.933 1776.34,-237.703 1774.74,-230.671"/>
<text text-anchor="middle" x="1751.04" y="-197.4" font-family="Times,serif" font-size="14.00" fill="green">device_info</text>
</g>
<!-- 13&#45;&gt;7 -->
<g id="edge28" class="edge"><title>13&#45;&gt;7</title>
<path fill="none" stroke="black" d="M1025.7,-90.8699C846.872,-97.4658 336.898,-125.255 214,-230 167.66,-269.495 140.392,-328.595 124.383,-386.439"/>
<polygon fill="black" stroke="black" points="124.296,-386.767 126.631,-393.59 121.232,-398.369 118.897,-391.547 124.296,-386.767"/>
<text text-anchor="middle" x="308.042" y="-197.4" font-family="Times,serif" font-size="14.00" fill="green">device_info</text>
</g>
<!-- 13&#45;&gt;11 -->
<g id="edge30" class="edge"><title>13&#45;&gt;11</title>
<path fill="none" stroke="black" d="M1150.06,-115.429C1217.89,-143.322 1330.33,-186.68 1430.92,-212 1483.25,-225.173 1509.73,-195.224 1551,-230 1590.9,-263.628 1616.68,-311.803 1633.29,-361.32"/>
<polygon fill="black" stroke="black" points="1633.35,-361.483 1638.99,-365.974 1637.01,-372.909 1631.37,-368.418 1633.35,-361.483"/>
<text text-anchor="middle" x="1464.04" y="-197.4" font-family="Times,serif" font-size="14.00" fill="green">device_info</text>
</g>
<!-- 13&#45;&gt;12 -->
<g id="edge32" class="edge"><title>13&#45;&gt;12</title>
<path fill="none" stroke="black" d="M1066,-175.705C1064.57,-181.886 1063.2,-188.031 1061.92,-194 1050.94,-245.164 1040.26,-300.507 1030.75,-352.563"/>
<polygon fill="black" stroke="black" points="1030.7,-352.858 1033.56,-359.477 1028.55,-364.664 1025.69,-358.045 1030.7,-352.858"/>
<text text-anchor="middle" x="1095.04" y="-197.4" font-family="Times,serif" font-size="14.00" fill="green">device_info</text>
</g>
</g>
</svg>
