<?xml version="1.0" encoding="UTF-8" standalone="no"?>
<!DOCTYPE svg PUBLIC "-//W3C//DTD SVG 1.1//EN"
 "http://www.w3.org/Graphics/SVG/1.1/DTD/svg11.dtd">
<!-- Generated by graphviz version 2.28.0 (20111211.2114)
 -->
<!-- Title: classes_integrators Pages: 1 -->
<svg width="528pt" height="514pt"
 viewBox="0.00 0.00 528.00 514.00" xmlns="http://www.w3.org/2000/svg" xmlns:xlink="http://www.w3.org/1999/xlink">
<g id="graph1" class="graph" transform="scale(1 1) rotate(0) translate(4 510)">
<title>classes_integrators</title>
<polygon fill="white" stroke="white" points="-4,5 -4,-510 525,-510 525,5 -4,5"/>
<!-- 2 -->
<g id="node1" class="node"><title>2</title>
<polygon fill="none" stroke="black" points="94.5,-328.5 94.5,-397.5 219.5,-397.5 219.5,-328.5 94.5,-328.5"/>
<text text-anchor="middle" x="157" y="-382.3" font-family="Times,serif" font-size="14.00">IntegratorStochastic</text>
<polyline fill="none" stroke="black" points="94.5,-374.5 219.5,-374.5 "/>
<text text-anchor="start" x="102.5" y="-359.3" font-family="Times,serif" font-size="14.00">noise : Noise</text>
<polyline fill="none" stroke="black" points="94.5,-351.5 219.5,-351.5 "/>
<text text-anchor="start" x="102.5" y="-336.3" font-family="Times,serif" font-size="14.00">configure()</text>
</g>
<!-- 4 -->
<g id="node3" class="node"><title>4</title>
<polygon fill="none" stroke="black" points="232,-436.5 232,-505.5 302,-505.5 302,-436.5 232,-436.5"/>
<text text-anchor="middle" x="267" y="-490.3" font-family="Times,serif" font-size="14.00">Integrator</text>
<polyline fill="none" stroke="black" points="232,-482.5 302,-482.5 "/>
<text text-anchor="start" x="240" y="-467.3" font-family="Times,serif" font-size="14.00">dt : Float</text>
<polyline fill="none" stroke="black" points="232,-459.5 302,-459.5 "/>
<text text-anchor="start" x="240" y="-444.3" font-family="Times,serif" font-size="14.00">scheme()</text>
</g>
<!-- 2&#45;&gt;4 -->
<g id="edge2" class="edge"><title>2&#45;&gt;4</title>
<path fill="none" stroke="black" d="M191.805,-397.539C202.237,-407.592 213.796,-418.731 224.658,-429.198"/>
<polygon fill="none" stroke="black" points="222.415,-431.897 232.044,-436.315 227.272,-426.856 222.415,-431.897"/>
</g>
<!-- 3 -->
<g id="node2" class="node"><title>3</title>
<polygon fill="none" stroke="black" points="118.5,-152.5 118.5,-221.5 219.5,-221.5 219.5,-152.5 118.5,-152.5"/>
<text text-anchor="middle" x="169" y="-206.3" font-family="Times,serif" font-size="14.00">HeunStochastic</text>
<polyline fill="none" stroke="black" points="118.5,-198.5 219.5,-198.5 "/>
<text text-anchor="start" x="126.5" y="-183.3" font-family="Times,serif" font-size="14.00">device_info</text>
<polyline fill="none" stroke="black" points="118.5,-175.5 219.5,-175.5 "/>
<text text-anchor="start" x="126.5" y="-160.3" font-family="Times,serif" font-size="14.00">scheme()</text>
</g>
<!-- 3&#45;&gt;2 -->
<g id="edge4" class="edge"><title>3&#45;&gt;2</title>
<path fill="none" stroke="black" d="M166.686,-221.549C164.792,-249.022 162.096,-288.106 160.029,-318.073"/>
<polygon fill="none" stroke="black" points="156.523,-318.041 159.327,-328.258 163.507,-318.522 156.523,-318.041"/>
</g>
<!-- 5 -->
<g id="node4" class="node"><title>5</title>
<polygon fill="none" stroke="black" points="180,-240.5 180,-309.5 300,-309.5 300,-240.5 180,-240.5"/>
<text text-anchor="middle" x="240" y="-294.3" font-family="Times,serif" font-size="14.00">EulerDeterministic</text>
<polyline fill="none" stroke="black" points="180,-286.5 300,-286.5 "/>
<text text-anchor="start" x="188" y="-271.3" font-family="Times,serif" font-size="14.00">device_info</text>
<polyline fill="none" stroke="black" points="180,-263.5 300,-263.5 "/>
<text text-anchor="start" x="188" y="-248.3" font-family="Times,serif" font-size="14.00">scheme()</text>
</g>
<!-- 5&#45;&gt;4 -->
<g id="edge6" class="edge"><title>5&#45;&gt;4</title>
<path fill="none" stroke="black" d="M244.703,-309.792C249.2,-342.102 256.003,-390.983 260.911,-426.252"/>
<polygon fill="none" stroke="black" points="257.46,-426.848 262.306,-436.27 264.394,-425.883 257.46,-426.848"/>
</g>
<!-- 6 -->
<g id="node5" class="node"><title>6</title>
<polygon fill="none" stroke="black" points="-0.5,-152.5 -0.5,-221.5 100.5,-221.5 100.5,-152.5 -0.5,-152.5"/>
<text text-anchor="middle" x="50" y="-206.3" font-family="Times,serif" font-size="14.00">EulerStochastic</text>
<polyline fill="none" stroke="black" points="-0.5,-198.5 100.5,-198.5 "/>
<text text-anchor="start" x="7.5" y="-183.3" font-family="Times,serif" font-size="14.00">device_info</text>
<polyline fill="none" stroke="black" points="-0.5,-175.5 100.5,-175.5 "/>
<text text-anchor="start" x="7.5" y="-160.3" font-family="Times,serif" font-size="14.00">scheme()</text>
</g>
<!-- 6&#45;&gt;2 -->
<g id="edge8" class="edge"><title>6&#45;&gt;2</title>
<path fill="none" stroke="black" d="M70.6307,-221.549C87.8204,-249.502 112.402,-289.475 130.948,-319.634"/>
<polygon fill="none" stroke="black" points="128.031,-321.573 136.25,-328.258 133.993,-317.906 128.031,-321.573"/>
</g>
<!-- 7 -->
<g id="node6" class="node"><title>7</title>
<polygon fill="none" stroke="black" points="138,-0.5 138,-99.5 278,-99.5 278,-0.5 138,-0.5"/>
<text text-anchor="middle" x="208" y="-84.3" font-family="Times,serif" font-size="14.00">integrator_device_info</text>
<polyline fill="none" stroke="black" points="138,-76.5 278,-76.5 "/>
<text text-anchor="start" x="146" y="-61.3" font-family="Times,serif" font-size="14.00">inst</text>
<polyline fill="none" stroke="black" points="138,-53.5 278,-53.5 "/>
<text text-anchor="start" x="146" y="-38.3" font-family="Times,serif" font-size="14.00">kernel()</text>
<text text-anchor="start" x="146" y="-23.3" font-family="Times,serif" font-size="14.00">n_inpr()</text>
<text text-anchor="start" x="146" y="-8.3" font-family="Times,serif" font-size="14.00">inpr()</text>
</g>
<!-- 7&#45;&gt;3 -->
<g id="edge14" class="edge"><title>7&#45;&gt;3</title>
<path fill="none" stroke="black" d="M173.292,-99.6547C170.327,-105.616 167.783,-111.799 166,-118 163.967,-125.07 163.101,-132.722 162.953,-140.255"/>
<polygon fill="black" stroke="black" points="162.954,-140.296 167.113,-146.187 163.276,-152.292 159.116,-146.402 162.954,-140.296"/>
<text text-anchor="middle" x="198" y="-122.3" font-family="Times,serif" font-size="14.00" fill="green">device_info</text>
</g>
<!-- 7&#45;&gt;5 -->
<g id="edge16" class="edge"><title>7&#45;&gt;5</title>
<path fill="none" stroke="black" d="M225.557,-99.6549C227.294,-105.771 228.84,-111.989 230,-118 237.051,-154.536 239.418,-196.684 240.095,-227.953"/>
<polygon fill="black" stroke="black" points="240.099,-228.216 244.192,-234.153 240.287,-240.215 236.193,-234.278 240.099,-228.216"/>
<text text-anchor="middle" x="265" y="-122.3" font-family="Times,serif" font-size="14.00" fill="green">device_info</text>
</g>
<!-- 7&#45;&gt;6 -->
<g id="edge18" class="edge"><title>7&#45;&gt;6</title>
<path fill="none" stroke="black" d="M137.721,-86.6054C123.071,-95.7369 108.346,-106.323 96,-118 88.483,-125.11 81.5302,-133.655 75.4261,-142.251"/>
<polygon fill="black" stroke="black" points="75.3733,-142.329 75.3375,-149.54 68.6674,-152.281 68.7032,-145.07 75.3733,-142.329"/>
<text text-anchor="middle" x="128" y="-122.3" font-family="Times,serif" font-size="14.00" fill="green">device_info</text>
</g>
<!-- 9 -->
<g id="node8" class="node"><title>9</title>
<polygon fill="none" stroke="black" points="305,-240.5 305,-309.5 425,-309.5 425,-240.5 305,-240.5"/>
<text text-anchor="middle" x="365" y="-294.3" font-family="Times,serif" font-size="14.00">HeunDeterministic</text>
<polyline fill="none" stroke="black" points="305,-286.5 425,-286.5 "/>
<text text-anchor="start" x="313" y="-271.3" font-family="Times,serif" font-size="14.00">device_info</text>
<polyline fill="none" stroke="black" points="305,-263.5 425,-263.5 "/>
<text text-anchor="start" x="313" y="-248.3" font-family="Times,serif" font-size="14.00">scheme()</text>
</g>
<!-- 7&#45;&gt;9 -->
<g id="edge20" class="edge"><title>7&#45;&gt;9</title>
<path fill="none" stroke="black" d="M278.37,-94.9536C286.654,-101.996 294.468,-109.72 301,-118 326.917,-150.854 343.845,-195.657 353.743,-228.821"/>
<polygon fill="black" stroke="black" points="353.774,-228.932 359.27,-233.601 357.074,-240.469 351.579,-235.801 353.774,-228.932"/>
<text text-anchor="middle" x="345" y="-122.3" font-family="Times,serif" font-size="14.00" fill="green">device_info</text>
</g>
<!-- 8 -->
<g id="node7" class="node"><title>8</title>
<polygon fill="none" stroke="black" points="314.5,-328.5 314.5,-397.5 519.5,-397.5 519.5,-328.5 314.5,-328.5"/>
<text text-anchor="middle" x="417" y="-382.3" font-family="Times,serif" font-size="14.00">RungeKutta4thOrderDeterministic</text>
<polyline fill="none" stroke="black" points="314.5,-374.5 519.5,-374.5 "/>
<text text-anchor="start" x="322.5" y="-359.3" font-family="Times,serif" font-size="14.00">you_have_been_warned : bool</text>
<polyline fill="none" stroke="black" points="314.5,-351.5 519.5,-351.5 "/>
<text text-anchor="start" x="322.5" y="-336.3" font-family="Times,serif" font-size="14.00">scheme()</text>
</g>
<!-- 8&#45;&gt;4 -->
<g id="edge10" class="edge"><title>8&#45;&gt;4</title>
<path fill="none" stroke="black" d="M369.539,-397.539C350.634,-410.899 329.017,-426.175 310.521,-439.245"/>
<polygon fill="none" stroke="black" points="308.41,-436.451 302.263,-445.081 312.45,-442.168 308.41,-436.451"/>
</g>
<!-- 9&#45;&gt;4 -->
<g id="edge12" class="edge"><title>9&#45;&gt;4</title>
<path fill="none" stroke="black" d="M319.854,-309.642C314.269,-315.287 309.094,-321.456 305,-328 286.292,-357.9 276.708,-396.902 271.85,-426.465"/>
<polygon fill="none" stroke="black" points="268.367,-426.084 270.321,-436.497 275.288,-427.139 268.367,-426.084"/>
</g>
</g>
</svg>
