<?xml version="1.0" encoding="UTF-8" standalone="no"?>
<!DOCTYPE svg PUBLIC "-//W3C//DTD SVG 1.1//EN"
 "http://www.w3.org/Graphics/SVG/1.1/DTD/svg11.dtd">
<!-- Generated by graphviz version 2.28.0 (20111028.1807)
 -->
<!-- Title: classes_coupling Pages: 1 -->
<svg width="1038pt" height="480pt"
 viewBox="0.00 0.00 1038.00 480.00" xmlns="http://www.w3.org/2000/svg" xmlns:xlink="http://www.w3.org/1999/xlink">
<g id="graph1" class="graph" transform="scale(1 1) rotate(0) translate(4 476)">
<title>classes_coupling</title>
<polygon fill="white" stroke="white" points="-4,5 -4,-476 1035,-476 1035,5 -4,5"/>
<!-- 0 -->
<g id="node1" class="node"><title>0</title>
<polygon fill="none" stroke="black" points="452.941,-397.2 452.941,-470.8 521.059,-470.8 521.059,-397.2 452.941,-397.2"/>
<text text-anchor="middle" x="487" y="-452.8" font-family="Times,serif" font-size="14.00">Coupling</text>
<polyline fill="none" stroke="black" points="452.941,-446 521.059,-446 "/>
<polyline fill="none" stroke="black" points="452.941,-422 521.059,-422 "/>
<text text-anchor="middle" x="487" y="-404" font-family="Times,serif" font-size="14.00"> </text>
</g>
<!-- 1 -->
<g id="node2" class="node"><title>1</title>
<polygon fill="none" stroke="black" points="-0.265625,-215.4 -0.265625,-306.6 94.2656,-306.6 94.2656,-215.4 -0.265625,-215.4"/>
<text text-anchor="middle" x="47" y="-288.6" font-family="Times,serif" font-size="14.00">Difference</text>
<polyline fill="none" stroke="black" points="-0.265625,-281.8 94.2656,-281.8 "/>
<text text-anchor="start" x="7.73438" y="-263.8" font-family="Times,serif" font-size="14.00">a : FloatArray</text>
<text text-anchor="start" x="7.73438" y="-247" font-family="Times,serif" font-size="14.00">device_info</text>
<polyline fill="none" stroke="black" points="-0.265625,-240.2 94.2656,-240.2 "/>
<text text-anchor="middle" x="47" y="-222.2" font-family="Times,serif" font-size="14.00"> </text>
</g>
<!-- 1&#45;&gt;0 -->
<g id="edge2" class="edge"><title>1&#45;&gt;0</title>
<path fill="none" stroke="black" d="M63.9752,-307.078C73.1305,-325.55 86.2583,-345.489 104,-358 158.263,-396.264 353.925,-419.898 442.675,-428.876"/>
<polygon fill="none" stroke="black" points="442.401,-432.366 452.698,-429.874 443.094,-425.401 442.401,-432.366"/>
</g>
<!-- 2 -->
<g id="node3" class="node"><title>2</title>
<polygon fill="none" stroke="black" points="112.761,-165 112.761,-357 255.239,-357 255.239,-165 112.761,-165"/>
<text text-anchor="middle" x="184" y="-339" font-family="Times,serif" font-size="14.00">DynamicSigmoidal</text>
<polyline fill="none" stroke="black" points="112.761,-332.2 255.239,-332.2 "/>
<text text-anchor="start" x="120.761" y="-314.2" font-family="Times,serif" font-size="14.00">sliceT : int, slice</text>
<text text-anchor="start" x="120.761" y="-297.4" font-family="Times,serif" font-size="14.00">meanOrNot</text>
<text text-anchor="start" x="120.761" y="-280.6" font-family="Times,serif" font-size="14.00">G : FloatArray</text>
<text text-anchor="start" x="120.761" y="-263.8" font-family="Times,serif" font-size="14.00">H : FloatArray</text>
<text text-anchor="start" x="120.761" y="-247" font-family="Times,serif" font-size="14.00">Q : FloatArray</text>
<text text-anchor="start" x="120.761" y="-230.2" font-family="Times,serif" font-size="14.00">P : FloatArray</text>
<text text-anchor="start" x="120.761" y="-213.4" font-family="Times,serif" font-size="14.00">device_info</text>
<text text-anchor="start" x="120.761" y="-196.6" font-family="Times,serif" font-size="14.00">globalT : IntegerArray</text>
<polyline fill="none" stroke="black" points="112.761,-189.8 255.239,-189.8 "/>
<text text-anchor="start" x="120.761" y="-171.8" font-family="Times,serif" font-size="14.00">configure()</text>
</g>
<!-- 2&#45;&gt;0 -->
<g id="edge4" class="edge"><title>2&#45;&gt;0</title>
<path fill="none" stroke="black" d="M255.443,-350.914C258.567,-353.417 261.756,-355.791 265,-358 320.134,-395.547 395.715,-415.765 442.932,-425.448"/>
<polygon fill="none" stroke="black" points="442.359,-428.903 452.849,-427.412 443.719,-422.036 442.359,-428.903"/>
</g>
<!-- 3 -->
<g id="node4" class="node"><title>3</title>
<polygon fill="none" stroke="black" points="733.562,-190.2 733.562,-331.8 872.438,-331.8 872.438,-190.2 733.562,-190.2"/>
<text text-anchor="middle" x="803" y="-313.8" font-family="Times,serif" font-size="14.00">HyperbolicTangent</text>
<polyline fill="none" stroke="black" points="733.562,-307 872.438,-307 "/>
<text text-anchor="start" x="741.562" y="-289" font-family="Times,serif" font-size="14.00">a : FloatArray</text>
<text text-anchor="start" x="741.562" y="-272.2" font-family="Times,serif" font-size="14.00">sigma : FloatArray</text>
<text text-anchor="start" x="741.562" y="-255.4" font-family="Times,serif" font-size="14.00">normalise : Bool</text>
<text text-anchor="start" x="741.562" y="-238.6" font-family="Times,serif" font-size="14.00">b : FloatArray</text>
<text text-anchor="start" x="741.562" y="-221.8" font-family="Times,serif" font-size="14.00">midpoint : FloatArray</text>
<polyline fill="none" stroke="black" points="733.562,-215 872.438,-215 "/>
<text text-anchor="middle" x="803" y="-197" font-family="Times,serif" font-size="14.00"> </text>
</g>
<!-- 3&#45;&gt;0 -->
<g id="edge6" class="edge"><title>3&#45;&gt;0</title>
<path fill="none" stroke="black" d="M753.853,-331.898C744.769,-341.622 734.73,-350.748 724,-358 664.29,-398.358 581.63,-417.977 531.371,-426.741"/>
<polygon fill="none" stroke="black" points="530.747,-423.297 521.463,-428.402 531.903,-430.201 530.747,-423.297"/>
</g>
<!-- 4 -->
<g id="node5" class="node"><title>4</title>
<polygon fill="none" stroke="black" points="273.734,-215.4 273.734,-306.6 368.266,-306.6 368.266,-215.4 273.734,-215.4"/>
<text text-anchor="middle" x="321" y="-288.6" font-family="Times,serif" font-size="14.00">Kuramoto</text>
<polyline fill="none" stroke="black" points="273.734,-281.8 368.266,-281.8 "/>
<text text-anchor="start" x="281.734" y="-263.8" font-family="Times,serif" font-size="14.00">a : FloatArray</text>
<text text-anchor="start" x="281.734" y="-247" font-family="Times,serif" font-size="14.00">device_info</text>
<polyline fill="none" stroke="black" points="273.734,-240.2 368.266,-240.2 "/>
<text text-anchor="middle" x="321" y="-222.2" font-family="Times,serif" font-size="14.00"> </text>
</g>
<!-- 4&#45;&gt;0 -->
<g id="edge8" class="edge"><title>4&#45;&gt;0</title>
<path fill="none" stroke="black" d="M341.785,-306.843C351.057,-324.008 363.055,-343.038 377,-358 396.253,-378.657 422.181,-396.678 444.029,-409.875"/>
<polygon fill="none" stroke="black" points="442.408,-412.983 452.799,-415.05 445.965,-406.954 442.408,-412.983"/>
</g>
<!-- 5 -->
<g id="node6" class="node"><title>5</title>
<polygon fill="none" stroke="black" points="386.341,-207 386.341,-315 481.659,-315 481.659,-207 386.341,-207"/>
<text text-anchor="middle" x="434" y="-297" font-family="Times,serif" font-size="14.00">Linear</text>
<polyline fill="none" stroke="black" points="386.341,-290.2 481.659,-290.2 "/>
<text text-anchor="start" x="394.341" y="-272.2" font-family="Times,serif" font-size="14.00">a : FloatArray</text>
<text text-anchor="start" x="394.341" y="-255.4" font-family="Times,serif" font-size="14.00">device_info</text>
<text text-anchor="start" x="394.341" y="-238.6" font-family="Times,serif" font-size="14.00">b : FloatArray</text>
<polyline fill="none" stroke="black" points="386.341,-231.8 481.659,-231.8 "/>
<text text-anchor="middle" x="434" y="-213.8" font-family="Times,serif" font-size="14.00"> </text>
</g>
<!-- 5&#45;&gt;0 -->
<g id="edge10" class="edge"><title>5&#45;&gt;0</title>
<path fill="none" stroke="black" d="M450.479,-315.168C457.647,-338.294 465.961,-365.12 472.845,-387.329"/>
<polygon fill="none" stroke="black" points="469.594,-388.663 475.898,-397.179 476.28,-386.591 469.594,-388.663"/>
</g>
<!-- 6 -->
<g id="node7" class="node"><title>6</title>
<polygon fill="none" stroke="black" points="499.958,-215.4 499.958,-306.6 582.042,-306.6 582.042,-215.4 499.958,-215.4"/>
<text text-anchor="middle" x="541" y="-288.6" font-family="Times,serif" font-size="14.00">Scaling</text>
<polyline fill="none" stroke="black" points="499.958,-281.8 582.042,-281.8 "/>
<text text-anchor="start" x="507.958" y="-263.8" font-family="Times,serif" font-size="14.00">a : Float</text>
<text text-anchor="start" x="507.958" y="-247" font-family="Times,serif" font-size="14.00">device_info</text>
<polyline fill="none" stroke="black" points="499.958,-240.2 582.042,-240.2 "/>
<text text-anchor="middle" x="541" y="-222.2" font-family="Times,serif" font-size="14.00"> </text>
</g>
<!-- 6&#45;&gt;0 -->
<g id="edge12" class="edge"><title>6&#45;&gt;0</title>
<path fill="none" stroke="black" d="M526.812,-306.928C518.978,-331.738 509.269,-362.481 501.401,-387.397"/>
<polygon fill="none" stroke="black" points="498.048,-386.394 498.374,-396.983 504.723,-388.502 498.048,-386.394"/>
</g>
<!-- 7 -->
<g id="node8" class="node"><title>7</title>
<polygon fill="none" stroke="black" points="890.562,-181.8 890.562,-340.2 1029.44,-340.2 1029.44,-181.8 890.562,-181.8"/>
<text text-anchor="middle" x="960" y="-322.2" font-family="Times,serif" font-size="14.00">Sigmoidal</text>
<polyline fill="none" stroke="black" points="890.562,-315.4 1029.44,-315.4 "/>
<text text-anchor="start" x="898.562" y="-297.4" font-family="Times,serif" font-size="14.00">pi_on_sqrt3</text>
<text text-anchor="start" x="898.562" y="-280.6" font-family="Times,serif" font-size="14.00">a : FloatArray</text>
<text text-anchor="start" x="898.562" y="-263.8" font-family="Times,serif" font-size="14.00">sigma : FloatArray</text>
<text text-anchor="start" x="898.562" y="-247" font-family="Times,serif" font-size="14.00">cmax : FloatArray</text>
<text text-anchor="start" x="898.562" y="-230.2" font-family="Times,serif" font-size="14.00">midpoint : FloatArray</text>
<text text-anchor="start" x="898.562" y="-213.4" font-family="Times,serif" font-size="14.00">cmin : FloatArray</text>
<polyline fill="none" stroke="black" points="890.562,-206.6 1029.44,-206.6 "/>
<text text-anchor="middle" x="960" y="-188.6" font-family="Times,serif" font-size="14.00"> </text>
</g>
<!-- 7&#45;&gt;0 -->
<g id="edge14" class="edge"><title>7&#45;&gt;0</title>
<path fill="none" stroke="black" d="M904.006,-340.502C896.864,-347.142 889.169,-353.157 881,-358 822.162,-392.884 621.569,-418.399 531.461,-428.379"/>
<polygon fill="none" stroke="black" points="530.853,-424.924 521.293,-429.491 531.614,-431.883 530.853,-424.924"/>
</g>
<!-- 8 -->
<g id="node9" class="node"><title>8</title>
<polygon fill="none" stroke="black" points="600.238,-181.8 600.238,-340.2 715.762,-340.2 715.762,-181.8 600.238,-181.8"/>
<text text-anchor="middle" x="658" y="-322.2" font-family="Times,serif" font-size="14.00">StaticSigmoidal</text>
<polyline fill="none" stroke="black" points="600.238,-315.4 715.762,-315.4 "/>
<text text-anchor="start" x="608.238" y="-297.4" font-family="Times,serif" font-size="14.00">G : FloatArray</text>
<text text-anchor="start" x="608.238" y="-280.6" font-family="Times,serif" font-size="14.00">H : FloatArray</text>
<text text-anchor="start" x="608.238" y="-263.8" font-family="Times,serif" font-size="14.00">Q : FloatArray</text>
<text text-anchor="start" x="608.238" y="-247" font-family="Times,serif" font-size="14.00">P : FloatArray</text>
<text text-anchor="start" x="608.238" y="-230.2" font-family="Times,serif" font-size="14.00">device_info</text>
<text text-anchor="start" x="608.238" y="-213.4" font-family="Times,serif" font-size="14.00">theta : FloatArray</text>
<polyline fill="none" stroke="black" points="600.238,-206.6 715.762,-206.6 "/>
<text text-anchor="middle" x="658" y="-188.6" font-family="Times,serif" font-size="14.00"> </text>
</g>
<!-- 8&#45;&gt;0 -->
<g id="edge16" class="edge"><title>8&#45;&gt;0</title>
<path fill="none" stroke="black" d="M606.779,-340.31C601.705,-346.512 596.419,-352.497 591,-358 572.769,-376.515 549.541,-393.739 529.664,-406.999"/>
<polygon fill="none" stroke="black" points="527.534,-404.21 521.087,-412.617 531.37,-410.065 527.534,-404.21"/>
</g>
<!-- 9 -->
<g id="node10" class="node"><title>9</title>
<polygon fill="none" stroke="black" points="307.962,-1 307.962,-109 446.038,-109 446.038,-1 307.962,-1"/>
<text text-anchor="middle" x="377" y="-91" font-family="Times,serif" font-size="14.00">coupling_device_info</text>
<polyline fill="none" stroke="black" points="307.962,-84.2 446.038,-84.2 "/>
<text text-anchor="start" x="315.962" y="-66.2" font-family="Times,serif" font-size="14.00">inst</text>
<polyline fill="none" stroke="black" points="307.962,-59.4 446.038,-59.4 "/>
<text text-anchor="start" x="315.962" y="-41.4" font-family="Times,serif" font-size="14.00">cfpr()</text>
<text text-anchor="start" x="315.962" y="-24.6" font-family="Times,serif" font-size="14.00">n_cfpr()</text>
<text text-anchor="start" x="315.962" y="-7.8" font-family="Times,serif" font-size="14.00">kernel()</text>
</g>
<!-- 9&#45;&gt;1 -->
<g id="edge18" class="edge"><title>9&#45;&gt;1</title>
<path fill="none" stroke="black" d="M307.81,-69.0858C247.83,-83.4861 161.814,-111.854 104,-164 91.3755,-175.387 80.7107,-190.24 72.1446,-204.848"/>
<polygon fill="black" stroke="black" points="72.1145,-204.902 72.6927,-212.09 66.2801,-215.389 65.7019,-208.201 72.1145,-204.902"/>
<text text-anchor="middle" x="182.042" y="-131.4" font-family="Times,serif" font-size="14.00" fill="green">device_info</text>
</g>
<!-- 9&#45;&gt;2 -->
<g id="edge20" class="edge"><title>9&#45;&gt;2</title>
<path fill="none" stroke="black" d="M307.902,-94.0388C293.098,-103.966 278.226,-115.447 265.917,-128 257.774,-136.305 250.049,-145.558 242.834,-155.203"/>
<polygon fill="black" stroke="black" points="242.815,-155.229 242.547,-162.436 235.792,-164.959 236.06,-157.753 242.815,-155.229"/>
<text text-anchor="middle" x="299.042" y="-131.4" font-family="Times,serif" font-size="14.00" fill="green">device_info</text>
</g>
<!-- 9&#45;&gt;4 -->
<g id="edge22" class="edge"><title>9&#45;&gt;4</title>
<path fill="none" stroke="black" d="M347.226,-109.022C344.448,-115.294 341.927,-121.704 339.917,-128 332.244,-152.039 327.675,-179.538 324.959,-203.192"/>
<polygon fill="black" stroke="black" points="324.954,-203.238 328.305,-209.623 323.7,-215.172 320.349,-208.787 324.954,-203.238"/>
<text text-anchor="middle" x="373.042" y="-131.4" font-family="Times,serif" font-size="14.00" fill="green">device_info</text>
</g>
<!-- 9&#45;&gt;5 -->
<g id="edge24" class="edge"><title>9&#45;&gt;5</title>
<path fill="none" stroke="black" d="M399.587,-109.102C401.915,-115.415 404.113,-121.813 406,-128 412.542,-149.454 418.107,-173.324 422.51,-194.801"/>
<polygon fill="black" stroke="black" points="422.555,-195.026 427.651,-200.128 424.902,-206.794 419.806,-201.692 422.555,-195.026"/>
<text text-anchor="middle" x="445.042" y="-131.4" font-family="Times,serif" font-size="14.00" fill="green">device_info</text>
</g>
<!-- 9&#45;&gt;6 -->
<g id="edge26" class="edge"><title>9&#45;&gt;6</title>
<path fill="none" stroke="black" d="M446.232,-95.3741C459.221,-104.888 471.879,-115.862 482,-128 500.388,-150.052 514.123,-178.751 523.692,-203.754"/>
<polygon fill="black" stroke="black" points="523.799,-204.046 529.618,-208.304 527.926,-215.314 522.107,-211.056 523.799,-204.046"/>
<text text-anchor="middle" x="527.042" y="-131.4" font-family="Times,serif" font-size="14.00" fill="green">device_info</text>
</g>
<!-- 9&#45;&gt;8 -->
<g id="edge28" class="edge"><title>9&#45;&gt;8</title>
<path fill="none" stroke="black" d="M446.09,-72.5264C483.553,-83.8497 529.175,-101.668 564,-128 579.889,-140.014 594.18,-155.48 606.54,-171.57"/>
<polygon fill="black" stroke="black" points="606.853,-171.992 613.635,-174.44 613.984,-181.643 607.202,-179.195 606.853,-171.992"/>
<text text-anchor="middle" x="617.042" y="-131.4" font-family="Times,serif" font-size="14.00" fill="green">device_info</text>
</g>
</g>
</svg>
