<?xml version="1.0" encoding="UTF-8" standalone="no"?>
<!DOCTYPE svg PUBLIC "-//W3C//DTD SVG 1.1//EN"
 "http://www.w3.org/Graphics/SVG/1.1/DTD/svg11.dtd">
<!-- Generated by graphviz version 2.28.0 (20111211.2114)
 -->
<!-- Title: classes_noise Pages: 1 -->
<svg width="343pt" height="710pt"
 viewBox="0.00 0.00 343.00 710.00" xmlns="http://www.w3.org/2000/svg" xmlns:xlink="http://www.w3.org/1999/xlink">
<g id="graph1" class="graph" transform="scale(1 1) rotate(0) translate(4 706)">
<title>classes_noise</title>
<polygon fill="white" stroke="white" points="-4,5 -4,-706 340,-706 340,5 -4,5"/>
<!-- 2 -->
<g id="node1" class="node"><title>2</title>
<polygon fill="none" stroke="black" points="81.5,-527 81.5,-701 212.5,-701 212.5,-527 81.5,-527"/>
<text text-anchor="middle" x="147" y="-685.8" font-family="Times,serif" font-size="14.00">Noise</text>
<polyline fill="none" stroke="black" points="81.5,-678 212.5,-678 "/>
<text text-anchor="start" x="89.5" y="-662.8" font-family="Times,serif" font-size="14.00">dt : NoneType</text>
<text text-anchor="start" x="89.5" y="-647.8" font-family="Times,serif" font-size="14.00">ntau : Float</text>
<text text-anchor="start" x="89.5" y="-632.8" font-family="Times,serif" font-size="14.00">random_stream</text>
<polyline fill="none" stroke="black" points="81.5,-625 212.5,-625 "/>
<text text-anchor="start" x="89.5" y="-609.8" font-family="Times,serif" font-size="14.00">configure_white()</text>
<text text-anchor="start" x="89.5" y="-594.8" font-family="Times,serif" font-size="14.00">coloured()</text>
<text text-anchor="start" x="89.5" y="-579.8" font-family="Times,serif" font-size="14.00">configure_coloured()</text>
<text text-anchor="start" x="89.5" y="-564.8" font-family="Times,serif" font-size="14.00">white()</text>
<text text-anchor="start" x="89.5" y="-549.8" font-family="Times,serif" font-size="14.00">generate()</text>
<text text-anchor="start" x="89.5" y="-534.8" font-family="Times,serif" font-size="14.00">configure()</text>
</g>
<!-- 3 -->
<g id="node2" class="node"><title>3</title>
<polygon fill="none" stroke="black" points="0,-241 0,-325 110,-325 110,-241 0,-241"/>
<text text-anchor="middle" x="55" y="-309.8" font-family="Times,serif" font-size="14.00">Additive</text>
<polyline fill="none" stroke="black" points="0,-302 110,-302 "/>
<text text-anchor="start" x="8" y="-286.8" font-family="Times,serif" font-size="14.00">device_info</text>
<text text-anchor="start" x="8" y="-271.8" font-family="Times,serif" font-size="14.00">nsig : FloatArray</text>
<polyline fill="none" stroke="black" points="0,-264 110,-264 "/>
<text text-anchor="start" x="8" y="-248.8" font-family="Times,serif" font-size="14.00">gfun()</text>
</g>
<!-- 3&#45;&gt;2 -->
<g id="edge2" class="edge"><title>3&#45;&gt;2</title>
<path fill="none" stroke="black" d="M57.664,-325.128C60.9794,-364.111 68.1335,-423.982 83,-474 87.2842,-488.414 92.8026,-503.249 98.7999,-517.615"/>
<polygon fill="none" stroke="black" points="95.6533,-519.159 102.802,-526.978 102.09,-516.407 95.6533,-519.159"/>
</g>
<!-- 4 -->
<g id="node3" class="node"><title>4</title>
<polygon fill="none" stroke="black" points="220.5,-344.5 220.5,-473.5 335.5,-473.5 335.5,-344.5 220.5,-344.5"/>
<text text-anchor="middle" x="278" y="-458.3" font-family="Times,serif" font-size="14.00">RandomStream</text>
<polyline fill="none" stroke="black" points="220.5,-450.5 335.5,-450.5 "/>
<text text-anchor="start" x="228.5" y="-435.3" font-family="Times,serif" font-size="14.00">wraps</text>
<text text-anchor="start" x="228.5" y="-420.3" font-family="Times,serif" font-size="14.00">defaults : tuple</text>
<text text-anchor="start" x="228.5" y="-405.3" font-family="Times,serif" font-size="14.00">init_seed : Integer</text>
<polyline fill="none" stroke="black" points="220.5,-397.5 335.5,-397.5 "/>
<text text-anchor="start" x="228.5" y="-382.3" font-family="Times,serif" font-size="14.00">reset()</text>
<text text-anchor="start" x="228.5" y="-367.3" font-family="Times,serif" font-size="14.00">set_state()</text>
<text text-anchor="start" x="228.5" y="-352.3" font-family="Times,serif" font-size="14.00">configure()</text>
</g>
<!-- 4&#45;&gt;2 -->
<g id="edge8" class="edge"><title>4&#45;&gt;2</title>
<path fill="none" stroke="black" d="M236.91,-473.673C228.07,-487.372 218.538,-502.144 209.1,-516.769"/>
<polygon fill="black" stroke="black" points="209.097,-516.773 209.205,-523.983 202.591,-526.856 202.483,-519.645 209.097,-516.773"/>
<text text-anchor="middle" x="268" y="-496.3" font-family="Times,serif" font-size="14.00" fill="green">random_stream</text>
</g>
<!-- 5 -->
<g id="node4" class="node"><title>5</title>
<polygon fill="none" stroke="black" points="41,-0.5 41,-99.5 157,-99.5 157,-0.5 41,-0.5"/>
<text text-anchor="middle" x="99" y="-84.3" font-family="Times,serif" font-size="14.00">noise_device_info</text>
<polyline fill="none" stroke="black" points="41,-76.5 157,-76.5 "/>
<text text-anchor="start" x="49" y="-61.3" font-family="Times,serif" font-size="14.00">inst</text>
<polyline fill="none" stroke="black" points="41,-53.5 157,-53.5 "/>
<text text-anchor="start" x="49" y="-38.3" font-family="Times,serif" font-size="14.00">kernel()</text>
<text text-anchor="start" x="49" y="-23.3" font-family="Times,serif" font-size="14.00">n_nspr()</text>
<text text-anchor="start" x="49" y="-8.3" font-family="Times,serif" font-size="14.00">nspr()</text>
</g>
<!-- 5&#45;&gt;3 -->
<g id="edge10" class="edge"><title>5&#45;&gt;3</title>
<path fill="none" stroke="black" d="M63.5096,-99.6011C60.4656,-105.573 57.8472,-111.772 56,-118 45.3386,-153.944 45.3804,-196.302 47.9353,-228.965"/>
<polygon fill="black" stroke="black" points="47.9406,-229.023 52.4643,-234.639 49.0205,-240.975 44.4968,-235.359 47.9406,-229.023"/>
<text text-anchor="middle" x="88" y="-122.3" font-family="Times,serif" font-size="14.00" fill="green">device_info</text>
</g>
<!-- 7 -->
<g id="node6" class="node"><title>7</title>
<polygon fill="none" stroke="black" points="82.5,-152.5 82.5,-221.5 215.5,-221.5 215.5,-152.5 82.5,-152.5"/>
<text text-anchor="middle" x="149" y="-206.3" font-family="Times,serif" font-size="14.00">MultiplicativeSimple</text>
<polyline fill="none" stroke="black" points="82.5,-198.5 215.5,-198.5 "/>
<text text-anchor="start" x="90.5" y="-183.3" font-family="Times,serif" font-size="14.00">device_info</text>
<polyline fill="none" stroke="black" points="82.5,-175.5 215.5,-175.5 "/>
<text text-anchor="middle" x="149" y="-160.3" font-family="Times,serif" font-size="14.00"> </text>
</g>
<!-- 5&#45;&gt;7 -->
<g id="edge12" class="edge"><title>5&#45;&gt;7</title>
<path fill="none" stroke="black" d="M117.051,-99.7381C121.977,-113.038 127.294,-127.393 132.15,-140.504"/>
<polygon fill="black" stroke="black" points="132.288,-140.877 138.123,-145.114 136.455,-152.13 130.621,-147.893 132.288,-140.877"/>
<text text-anchor="middle" x="161" y="-122.3" font-family="Times,serif" font-size="14.00" fill="green">device_info</text>
</g>
<!-- 6 -->
<g id="node5" class="node"><title>6</title>
<polygon fill="none" stroke="black" points="92,-367 92,-451 202,-451 202,-367 92,-367"/>
<text text-anchor="middle" x="147" y="-435.8" font-family="Times,serif" font-size="14.00">Multiplicative</text>
<polyline fill="none" stroke="black" points="92,-428 202,-428 "/>
<text text-anchor="start" x="100" y="-412.8" font-family="Times,serif" font-size="14.00">b : Equation</text>
<text text-anchor="start" x="100" y="-397.8" font-family="Times,serif" font-size="14.00">nsig : FloatArray</text>
<polyline fill="none" stroke="black" points="92,-390 202,-390 "/>
<text text-anchor="start" x="100" y="-374.8" font-family="Times,serif" font-size="14.00">gfun()</text>
</g>
<!-- 6&#45;&gt;2 -->
<g id="edge4" class="edge"><title>6&#45;&gt;2</title>
<path fill="none" stroke="black" d="M147,-451.08C147,-470.053 147,-493.454 147,-516.51"/>
<polygon fill="none" stroke="black" points="143.5,-516.707 147,-526.707 150.5,-516.707 143.5,-516.707"/>
</g>
<!-- 7&#45;&gt;6 -->
<g id="edge6" class="edge"><title>7&#45;&gt;6</title>
<path fill="none" stroke="black" d="M148.692,-221.893C148.365,-257.894 147.843,-315.228 147.466,-356.752"/>
<polygon fill="none" stroke="black" points="143.964,-356.915 147.373,-366.946 150.964,-356.978 143.964,-356.915"/>
</g>
</g>
</svg>
