<?xml version="1.0" encoding="UTF-8" standalone="no"?>
<!DOCTYPE svg PUBLIC "-//W3C//DTD SVG 1.1//EN"
 "http://www.w3.org/Graphics/SVG/1.1/DTD/svg11.dtd">
<!-- Generated by graphviz version 2.28.0 (20111211.2114)
 -->
<!-- Title: classes_monitors Pages: 1 -->
<svg width="1738pt" height="350pt"
 viewBox="0.00 0.00 1738.00 350.00" xmlns="http://www.w3.org/2000/svg" xmlns:xlink="http://www.w3.org/1999/xlink">
<g id="graph1" class="graph" transform="scale(1 1) rotate(0) translate(4 346)">
<title>classes_monitors</title>
<polygon fill="white" stroke="white" points="-4,5 -4,-346 1735,-346 1735,5 -4,5"/>
<!-- 2 -->
<g id="node1" class="node"><title>2</title>
<polygon fill="none" stroke="black" points="0,-37.5 0,-122.5 116,-122.5 116,-37.5 0,-37.5"/>
<text text-anchor="middle" x="58" y="-107.3" font-family="Times,serif" font-size="14.00">TemporalAverage</text>
<polyline fill="none" stroke="black" points="0,-99.5 116,-99.5 "/>
<polyline fill="none" stroke="black" points="0,-75.5 116,-75.5 "/>
<text text-anchor="start" x="8" y="-60.3" font-family="Times,serif" font-size="14.00">config_for_sim()</text>
<text text-anchor="start" x="8" y="-45.3" font-family="Times,serif" font-size="14.00">record()</text>
</g>
<!-- 11 -->
<g id="node10" class="node"><title>11</title>
<polygon fill="none" stroke="black" points="555.5,-197 555.5,-341 766.5,-341 766.5,-197 555.5,-197"/>
<text text-anchor="middle" x="661" y="-325.8" font-family="Times,serif" font-size="14.00">Monitor</text>
<polyline fill="none" stroke="black" points="555.5,-318 766.5,-318 "/>
<text text-anchor="start" x="563.5" y="-302.8" font-family="Times,serif" font-size="14.00">dt : NoneType</text>
<text text-anchor="start" x="563.5" y="-287.8" font-family="Times,serif" font-size="14.00">voi : NoneType</text>
<text text-anchor="start" x="563.5" y="-272.8" font-family="Times,serif" font-size="14.00">istep : NoneType, int</text>
<text text-anchor="start" x="563.5" y="-257.8" font-family="Times,serif" font-size="14.00">period : Float</text>
<text text-anchor="start" x="563.5" y="-242.8" font-family="Times,serif" font-size="14.00">variables_of_interest : IntegerArray</text>
<polyline fill="none" stroke="black" points="555.5,-235 766.5,-235 "/>
<text text-anchor="start" x="563.5" y="-219.8" font-family="Times,serif" font-size="14.00">config_for_sim()</text>
<text text-anchor="start" x="563.5" y="-204.8" font-family="Times,serif" font-size="14.00">record()</text>
</g>
<!-- 2&#45;&gt;11 -->
<g id="edge2" class="edge"><title>2&#45;&gt;11</title>
<path fill="none" stroke="black" d="M84.2255,-122.664C94.9413,-136.528 108.487,-150.772 124,-160 254.405,-237.575 430.865,-260.404 545.31,-266.594"/>
<polygon fill="none" stroke="black" points="545.335,-270.1 555.499,-267.111 545.689,-263.109 545.335,-270.1"/>
</g>
<!-- 3 -->
<g id="node2" class="node"><title>3</title>
<polygon fill="none" stroke="black" points="133.5,-45 133.5,-115 212.5,-115 212.5,-45 133.5,-45"/>
<text text-anchor="middle" x="173" y="-99.8" font-family="Times,serif" font-size="14.00">SubSample</text>
<polyline fill="none" stroke="black" points="133.5,-92 212.5,-92 "/>
<polyline fill="none" stroke="black" points="133.5,-68 212.5,-68 "/>
<text text-anchor="start" x="141.5" y="-52.8" font-family="Times,serif" font-size="14.00">record()</text>
</g>
<!-- 3&#45;&gt;11 -->
<g id="edge4" class="edge"><title>3&#45;&gt;11</title>
<path fill="none" stroke="black" d="M186.494,-115.357C194.338,-131.142 205.729,-148.801 221,-160 315.858,-229.563 450.046,-254.708 545.24,-263.592"/>
<polygon fill="none" stroke="black" points="545.216,-267.104 555.486,-264.5 545.834,-260.131 545.216,-267.104"/>
</g>
<!-- 4 -->
<g id="node3" class="node"><title>4</title>
<polygon fill="none" stroke="black" points="230.5,-45 230.5,-115 329.5,-115 329.5,-45 230.5,-45"/>
<text text-anchor="middle" x="280" y="-99.8" font-family="Times,serif" font-size="14.00">GlobalAverage</text>
<polyline fill="none" stroke="black" points="230.5,-92 329.5,-92 "/>
<polyline fill="none" stroke="black" points="230.5,-68 329.5,-68 "/>
<text text-anchor="start" x="238.5" y="-52.8" font-family="Times,serif" font-size="14.00">record()</text>
</g>
<!-- 4&#45;&gt;11 -->
<g id="edge6" class="edge"><title>4&#45;&gt;11</title>
<path fill="none" stroke="black" d="M298.503,-115.205C308.418,-130.761 321.915,-148.27 338,-160 399.118,-204.571 479.816,-231.566 545.26,-247.421"/>
<polygon fill="none" stroke="black" points="544.676,-250.879 555.213,-249.775 546.287,-244.067 544.676,-250.879"/>
</g>
<!-- 5 -->
<g id="node4" class="node"><title>5</title>
<polygon fill="none" stroke="black" points="347.5,-0.5 347.5,-159.5 558.5,-159.5 558.5,-0.5 347.5,-0.5"/>
<text text-anchor="middle" x="453" y="-144.3" font-family="Times,serif" font-size="14.00">Raw</text>
<polyline fill="none" stroke="black" points="347.5,-136.5 558.5,-136.5 "/>
<text text-anchor="start" x="355.5" y="-121.3" font-family="Times,serif" font-size="14.00">dt</text>
<text text-anchor="start" x="355.5" y="-106.3" font-family="Times,serif" font-size="14.00">period</text>
<text text-anchor="start" x="355.5" y="-91.3" font-family="Times,serif" font-size="14.00">istep : int</text>
<text text-anchor="start" x="355.5" y="-76.3" font-family="Times,serif" font-size="14.00">voi</text>
<text text-anchor="start" x="355.5" y="-61.3" font-family="Times,serif" font-size="14.00">period : Float</text>
<text text-anchor="start" x="355.5" y="-46.3" font-family="Times,serif" font-size="14.00">variables_of_interest : IntegerArray</text>
<polyline fill="none" stroke="black" points="347.5,-38.5 558.5,-38.5 "/>
<text text-anchor="start" x="355.5" y="-23.3" font-family="Times,serif" font-size="14.00">config_for_sim()</text>
<text text-anchor="start" x="355.5" y="-8.3" font-family="Times,serif" font-size="14.00">record()</text>
</g>
<!-- 5&#45;&gt;11 -->
<g id="edge8" class="edge"><title>5&#45;&gt;11</title>
<path fill="none" stroke="black" d="M540.608,-159.763C551.703,-169.738 563.054,-179.943 574.138,-189.908"/>
<polygon fill="none" stroke="black" points="571.986,-192.68 581.763,-196.763 576.666,-187.474 571.986,-192.68"/>
</g>
<!-- 6 -->
<g id="node5" class="node"><title>6</title>
<polygon fill="none" stroke="black" points="576.5,-23 576.5,-137 745.5,-137 745.5,-23 576.5,-23"/>
<text text-anchor="middle" x="661" y="-121.8" font-family="Times,serif" font-size="14.00">SpatialAverage</text>
<polyline fill="none" stroke="black" points="576.5,-114 745.5,-114 "/>
<text text-anchor="start" x="584.5" y="-98.8" font-family="Times,serif" font-size="14.00">spatial_mean : NoneType</text>
<text text-anchor="start" x="584.5" y="-83.8" font-family="Times,serif" font-size="14.00">spatial_mask</text>
<text text-anchor="start" x="584.5" y="-68.8" font-family="Times,serif" font-size="14.00">spatial_mask : IntegerArray</text>
<polyline fill="none" stroke="black" points="576.5,-61 745.5,-61 "/>
<text text-anchor="start" x="584.5" y="-45.8" font-family="Times,serif" font-size="14.00">config_for_sim()</text>
<text text-anchor="start" x="584.5" y="-30.8" font-family="Times,serif" font-size="14.00">record()</text>
</g>
<!-- 6&#45;&gt;11 -->
<g id="edge10" class="edge"><title>6&#45;&gt;11</title>
<path fill="none" stroke="black" d="M661,-137.106C661,-152.697 661,-169.949 661,-186.672"/>
<polygon fill="none" stroke="black" points="657.5,-186.997 661,-196.997 664.5,-186.997 657.5,-186.997"/>
</g>
<!-- 7 -->
<g id="node6" class="node"><title>7</title>
<polygon fill="none" stroke="black" points="764,-23 764,-137 946,-137 946,-23 764,-23"/>
<text text-anchor="middle" x="855" y="-121.8" font-family="Times,serif" font-size="14.00">SphericalEEG</text>
<polyline fill="none" stroke="black" points="764,-114 946,-114 "/>
<text text-anchor="start" x="772" y="-98.8" font-family="Times,serif" font-size="14.00">projection_matrix : NoneType</text>
<text text-anchor="start" x="772" y="-83.8" font-family="Times,serif" font-size="14.00">sensors : SensorsEEG</text>
<text text-anchor="start" x="772" y="-68.8" font-family="Times,serif" font-size="14.00">sigma : Float</text>
<polyline fill="none" stroke="black" points="764,-61 946,-61 "/>
<text text-anchor="start" x="772" y="-45.8" font-family="Times,serif" font-size="14.00">config_for_sim()</text>
<text text-anchor="start" x="772" y="-30.8" font-family="Times,serif" font-size="14.00">record()</text>
</g>
<!-- 7&#45;&gt;11 -->
<g id="edge12" class="edge"><title>7&#45;&gt;11</title>
<path fill="none" stroke="black" d="M796.794,-137.106C779.551,-153.727 760.35,-172.235 741.943,-189.978"/>
<polygon fill="none" stroke="black" points="739.432,-187.537 734.661,-196.997 744.29,-192.577 739.432,-187.537"/>
</g>
<!-- 8 -->
<g id="node7" class="node"><title>8</title>
<polygon fill="none" stroke="black" points="964,-15.5 964,-144.5 1242,-144.5 1242,-15.5 964,-15.5"/>
<text text-anchor="middle" x="1103" y="-129.3" font-family="Times,serif" font-size="14.00">EEG</text>
<polyline fill="none" stroke="black" points="964,-121.5 1242,-121.5 "/>
<text text-anchor="start" x="972" y="-106.3" font-family="Times,serif" font-size="14.00">projection_matrix_data : ProjectionSurfaceEEG</text>
<text text-anchor="start" x="972" y="-91.3" font-family="Times,serif" font-size="14.00">projection_matrix_data : ProjectionMatrix</text>
<polyline fill="none" stroke="black" points="964,-83.5 1242,-83.5 "/>
<text text-anchor="start" x="972" y="-68.3" font-family="Times,serif" font-size="14.00">config_for_sim()</text>
<text text-anchor="start" x="972" y="-53.3" font-family="Times,serif" font-size="14.00">projection_matrix()</text>
<text text-anchor="start" x="972" y="-38.3" font-family="Times,serif" font-size="14.00">record()</text>
<text text-anchor="start" x="972" y="-23.3" font-family="Times,serif" font-size="14.00">sensors()</text>
</g>
<!-- 8&#45;&gt;11 -->
<g id="edge14" class="edge"><title>8&#45;&gt;11</title>
<path fill="none" stroke="black" d="M987.418,-144.644C976.555,-150.034 965.632,-155.237 955,-160 897.302,-185.848 831.369,-210.494 776.583,-229.699"/>
<polygon fill="none" stroke="black" points="775.128,-226.5 766.839,-233.099 777.434,-233.109 775.128,-226.5"/>
</g>
<!-- 9 -->
<g id="node8" class="node"><title>9</title>
<polygon fill="none" stroke="black" points="1260.5,-8 1260.5,-152 1529.5,-152 1529.5,-8 1260.5,-8"/>
<text text-anchor="middle" x="1395" y="-136.8" font-family="Times,serif" font-size="14.00">Bold</text>
<polyline fill="none" stroke="black" points="1260.5,-129 1529.5,-129 "/>
<text text-anchor="start" x="1268.5" y="-113.8" font-family="Times,serif" font-size="14.00">hemodynamic_response_function : NoneType</text>
<text text-anchor="start" x="1268.5" y="-98.8" font-family="Times,serif" font-size="14.00">tau_f : Float</text>
<text text-anchor="start" x="1268.5" y="-83.8" font-family="Times,serif" font-size="14.00">tau_s : Float</text>
<text text-anchor="start" x="1268.5" y="-68.8" font-family="Times,serif" font-size="14.00">period : Float</text>
<polyline fill="none" stroke="black" points="1260.5,-61 1529.5,-61 "/>
<text text-anchor="start" x="1268.5" y="-45.8" font-family="Times,serif" font-size="14.00">config_for_sim()</text>
<text text-anchor="start" x="1268.5" y="-30.8" font-family="Times,serif" font-size="14.00">compute_hrf()</text>
<text text-anchor="start" x="1268.5" y="-15.8" font-family="Times,serif" font-size="14.00">record()</text>
</g>
<!-- 9&#45;&gt;11 -->
<g id="edge16" class="edge"><title>9&#45;&gt;11</title>
<path fill="none" stroke="black" d="M1271.26,-152.057C1264.5,-154.939 1257.72,-157.613 1251,-160 1091.97,-216.506 897.834,-244.752 776.776,-257.872"/>
<polygon fill="none" stroke="black" points="776.314,-254.401 766.742,-258.943 777.057,-261.362 776.314,-254.401"/>
</g>
<!-- 10 -->
<g id="node9" class="node"><title>10</title>
<polygon fill="none" stroke="black" points="1548,-30.5 1548,-129.5 1730,-129.5 1730,-30.5 1548,-30.5"/>
<text text-anchor="middle" x="1639" y="-114.3" font-family="Times,serif" font-size="14.00">SphericalMEG</text>
<polyline fill="none" stroke="black" points="1548,-106.5 1730,-106.5 "/>
<text text-anchor="start" x="1556" y="-91.3" font-family="Times,serif" font-size="14.00">projection_matrix : NoneType</text>
<text text-anchor="start" x="1556" y="-76.3" font-family="Times,serif" font-size="14.00">sensors : SensorsMEG</text>
<polyline fill="none" stroke="black" points="1548,-68.5 1730,-68.5 "/>
<text text-anchor="start" x="1556" y="-53.3" font-family="Times,serif" font-size="14.00">config_for_sim()</text>
<text text-anchor="start" x="1556" y="-38.3" font-family="Times,serif" font-size="14.00">record()</text>
</g>
<!-- 10&#45;&gt;11 -->
<g id="edge18" class="edge"><title>10&#45;&gt;11</title>
<path fill="none" stroke="black" d="M1587.93,-129.541C1572.89,-141.343 1555.68,-152.666 1538,-160 1402.92,-216.025 982.608,-248.503 776.843,-261.433"/>
<polygon fill="none" stroke="black" points="776.37,-257.956 766.608,-262.071 776.806,-264.942 776.37,-257.956"/>
</g>
</g>
</svg>
