<?xml version="1.0" encoding="UTF-8" standalone="no"?>
<!DOCTYPE svg PUBLIC "-//W3C//DTD SVG 1.1//EN"
 "http://www.w3.org/Graphics/SVG/1.1/DTD/svg11.dtd">
<!-- Generated by graphviz version 2.28.0 (20111028.1807)
 -->
<!-- Title: classes_coupling Pages: 1 -->
<svg width="876pt" height="446pt"
 viewBox="0.00 0.00 876.00 446.00" xmlns="http://www.w3.org/2000/svg" xmlns:xlink="http://www.w3.org/1999/xlink">
<g id="graph1" class="graph" transform="scale(1 1) rotate(0) translate(4 442)">
<title>classes_coupling</title>
<polygon fill="white" stroke="white" points="-4,5 -4,-442 873,-442 873,5 -4,5"/>
<!-- 0 -->
<g id="node1" class="node"><title>0</title>
<polygon fill="none" stroke="black" points="345.941,-363.2 345.941,-436.8 414.059,-436.8 414.059,-363.2 345.941,-363.2"/>
<text text-anchor="middle" x="380" y="-418.8" font-family="Times,serif" font-size="14.00">Coupling</text>
<polyline fill="none" stroke="black" points="345.941,-412 414.059,-412 "/>
<polyline fill="none" stroke="black" points="345.941,-388 414.059,-388 "/>
<text text-anchor="middle" x="380" y="-370" font-family="Times,serif" font-size="14.00"> </text>
</g>
<!-- 1 -->
<g id="node2" class="node"><title>1</title>
<polygon fill="none" stroke="black" points="-0.265625,-198.4 -0.265625,-289.6 94.2656,-289.6 94.2656,-198.4 -0.265625,-198.4"/>
<text text-anchor="middle" x="47" y="-271.6" font-family="Times,serif" font-size="14.00">Difference</text>
<polyline fill="none" stroke="black" points="-0.265625,-264.8 94.2656,-264.8 "/>
<text text-anchor="start" x="7.73438" y="-246.8" font-family="Times,serif" font-size="14.00">a : FloatArray</text>
<text text-anchor="start" x="7.73438" y="-230" font-family="Times,serif" font-size="14.00">device_info</text>
<polyline fill="none" stroke="black" points="-0.265625,-223.2 94.2656,-223.2 "/>
<text text-anchor="middle" x="47" y="-205.2" font-family="Times,serif" font-size="14.00"> </text>
</g>
<!-- 1&#45;&gt;0 -->
<g id="edge2" class="edge"><title>1&#45;&gt;0</title>
<path fill="none" stroke="black" d="M71.4558,-289.82C80.2475,-302.449 91.2071,-315.143 104,-324 175.101,-373.225 277.2,-390.185 335.213,-395.998"/>
<polygon fill="none" stroke="black" points="335.233,-399.515 345.515,-396.959 335.883,-392.545 335.233,-399.515"/>
</g>
<!-- 2 -->
<g id="node3" class="node"><title>2</title>
<polygon fill="none" stroke="black" points="728.562,-181.6 728.562,-306.4 867.438,-306.4 867.438,-181.6 728.562,-181.6"/>
<text text-anchor="middle" x="798" y="-288.4" font-family="Times,serif" font-size="14.00">HyperbolicTangent</text>
<polyline fill="none" stroke="black" points="728.562,-281.6 867.438,-281.6 "/>
<text text-anchor="start" x="736.562" y="-263.6" font-family="Times,serif" font-size="14.00">a : FloatArray</text>
<text text-anchor="start" x="736.562" y="-246.8" font-family="Times,serif" font-size="14.00">midpoint : FloatArray</text>
<text text-anchor="start" x="736.562" y="-230" font-family="Times,serif" font-size="14.00">normalise : Bool</text>
<text text-anchor="start" x="736.562" y="-213.2" font-family="Times,serif" font-size="14.00">sigma : FloatArray</text>
<polyline fill="none" stroke="black" points="728.562,-206.4 867.438,-206.4 "/>
<text text-anchor="middle" x="798" y="-188.4" font-family="Times,serif" font-size="14.00"> </text>
</g>
<!-- 2&#45;&gt;0 -->
<g id="edge4" class="edge"><title>2&#45;&gt;0</title>
<path fill="none" stroke="black" d="M743.843,-306.694C736.027,-313.247 727.674,-319.244 719,-324 622.801,-376.75 492.029,-392.403 424.475,-397.045"/>
<polygon fill="none" stroke="black" points="423.948,-393.572 414.191,-397.7 424.393,-400.558 423.948,-393.572"/>
</g>
<!-- 3 -->
<g id="node4" class="node"><title>3</title>
<polygon fill="none" stroke="black" points="112.734,-198.4 112.734,-289.6 207.266,-289.6 207.266,-198.4 112.734,-198.4"/>
<text text-anchor="middle" x="160" y="-271.6" font-family="Times,serif" font-size="14.00">Kuramoto</text>
<polyline fill="none" stroke="black" points="112.734,-264.8 207.266,-264.8 "/>
<text text-anchor="start" x="120.734" y="-246.8" font-family="Times,serif" font-size="14.00">a : FloatArray</text>
<text text-anchor="start" x="120.734" y="-230" font-family="Times,serif" font-size="14.00">device_info</text>
<polyline fill="none" stroke="black" points="112.734,-223.2 207.266,-223.2 "/>
<text text-anchor="middle" x="160" y="-205.2" font-family="Times,serif" font-size="14.00"> </text>
</g>
<!-- 3&#45;&gt;0 -->
<g id="edge6" class="edge"><title>3&#45;&gt;0</title>
<path fill="none" stroke="black" d="M185.687,-289.813C194.195,-302.003 204.475,-314.458 216,-324 251.71,-353.565 300.98,-374.021 336.175,-386.014"/>
<polygon fill="none" stroke="black" points="335.112,-389.349 345.706,-389.173 337.314,-382.704 335.112,-389.349"/>
</g>
<!-- 4 -->
<g id="node5" class="node"><title>4</title>
<polygon fill="none" stroke="black" points="225.341,-190 225.341,-298 320.659,-298 320.659,-190 225.341,-190"/>
<text text-anchor="middle" x="273" y="-280" font-family="Times,serif" font-size="14.00">Linear</text>
<polyline fill="none" stroke="black" points="225.341,-273.2 320.659,-273.2 "/>
<text text-anchor="start" x="233.341" y="-255.2" font-family="Times,serif" font-size="14.00">a : FloatArray</text>
<text text-anchor="start" x="233.341" y="-238.4" font-family="Times,serif" font-size="14.00">device_info</text>
<text text-anchor="start" x="233.341" y="-221.6" font-family="Times,serif" font-size="14.00">b : FloatArray</text>
<polyline fill="none" stroke="black" points="225.341,-214.8 320.659,-214.8 "/>
<text text-anchor="middle" x="273" y="-196.8" font-family="Times,serif" font-size="14.00"> </text>
</g>
<!-- 4&#45;&gt;0 -->
<g id="edge8" class="edge"><title>4&#45;&gt;0</title>
<path fill="none" stroke="black" d="M310.123,-298.43C322.884,-316.795 337.02,-337.14 349.22,-354.699"/>
<polygon fill="none" stroke="black" points="346.458,-356.859 355.039,-363.075 352.207,-352.865 346.458,-356.859"/>
</g>
<!-- 5 -->
<g id="node6" class="node"><title>5</title>
<polygon fill="none" stroke="black" points="338.958,-198.4 338.958,-289.6 421.042,-289.6 421.042,-198.4 338.958,-198.4"/>
<text text-anchor="middle" x="380" y="-271.6" font-family="Times,serif" font-size="14.00">Scaling</text>
<polyline fill="none" stroke="black" points="338.958,-264.8 421.042,-264.8 "/>
<text text-anchor="start" x="346.958" y="-246.8" font-family="Times,serif" font-size="14.00">a : Float</text>
<text text-anchor="start" x="346.958" y="-230" font-family="Times,serif" font-size="14.00">device_info</text>
<polyline fill="none" stroke="black" points="338.958,-223.2 421.042,-223.2 "/>
<text text-anchor="middle" x="380" y="-205.2" font-family="Times,serif" font-size="14.00"> </text>
</g>
<!-- 5&#45;&gt;0 -->
<g id="edge10" class="edge"><title>5&#45;&gt;0</title>
<path fill="none" stroke="black" d="M380,-289.957C380,-309.765 380,-333.015 380,-352.947"/>
<polygon fill="none" stroke="black" points="376.5,-353.032 380,-363.032 383.5,-353.032 376.5,-353.032"/>
</g>
<!-- 6 -->
<g id="node7" class="node"><title>6</title>
<polygon fill="none" stroke="black" points="438.562,-164.8 438.562,-323.2 577.438,-323.2 577.438,-164.8 438.562,-164.8"/>
<text text-anchor="middle" x="508" y="-305.2" font-family="Times,serif" font-size="14.00">Sigmoidal</text>
<polyline fill="none" stroke="black" points="438.562,-298.4 577.438,-298.4 "/>
<text text-anchor="start" x="446.562" y="-280.4" font-family="Times,serif" font-size="14.00">pi_on_sqrt3</text>
<text text-anchor="start" x="446.562" y="-263.6" font-family="Times,serif" font-size="14.00">sigma : FloatArray</text>
<text text-anchor="start" x="446.562" y="-246.8" font-family="Times,serif" font-size="14.00">device_info</text>
<text text-anchor="start" x="446.562" y="-230" font-family="Times,serif" font-size="14.00">cmax : FloatArray</text>
<text text-anchor="start" x="446.562" y="-213.2" font-family="Times,serif" font-size="14.00">midpoint : FloatArray</text>
<text text-anchor="start" x="446.562" y="-196.4" font-family="Times,serif" font-size="14.00">cmin : FloatArray</text>
<polyline fill="none" stroke="black" points="438.562,-189.6 577.438,-189.6 "/>
<text text-anchor="middle" x="508" y="-171.6" font-family="Times,serif" font-size="14.00"> </text>
</g>
<!-- 6&#45;&gt;0 -->
<g id="edge12" class="edge"><title>6&#45;&gt;0</title>
<path fill="none" stroke="black" d="M442.875,-323.353C433.811,-334.259 424.777,-345.128 416.501,-355.085"/>
<polygon fill="none" stroke="black" points="413.74,-352.931 410.039,-362.859 419.123,-357.406 413.74,-352.931"/>
</g>
<!-- 7 -->
<g id="node8" class="node"><title>7</title>
<polygon fill="none" stroke="black" points="595.238,-164.8 595.238,-323.2 710.762,-323.2 710.762,-164.8 595.238,-164.8"/>
<text text-anchor="middle" x="653" y="-305.2" font-family="Times,serif" font-size="14.00">StaticSigmoidal</text>
<polyline fill="none" stroke="black" points="595.238,-298.4 710.762,-298.4 "/>
<text text-anchor="start" x="603.238" y="-280.4" font-family="Times,serif" font-size="14.00">G : FloatArray</text>
<text text-anchor="start" x="603.238" y="-263.6" font-family="Times,serif" font-size="14.00">H : FloatArray</text>
<text text-anchor="start" x="603.238" y="-246.8" font-family="Times,serif" font-size="14.00">Q : FloatArray</text>
<text text-anchor="start" x="603.238" y="-230" font-family="Times,serif" font-size="14.00">P : FloatArray</text>
<text text-anchor="start" x="603.238" y="-213.2" font-family="Times,serif" font-size="14.00">device_info</text>
<text text-anchor="start" x="603.238" y="-196.4" font-family="Times,serif" font-size="14.00">theta : FloatArray</text>
<polyline fill="none" stroke="black" points="595.238,-189.6 710.762,-189.6 "/>
<text text-anchor="middle" x="653" y="-171.6" font-family="Times,serif" font-size="14.00"> </text>
</g>
<!-- 7&#45;&gt;0 -->
<g id="edge14" class="edge"><title>7&#45;&gt;0</title>
<path fill="none" stroke="black" d="M595.113,-317.037C592.141,-319.506 589.099,-321.842 586,-324 536.016,-358.807 468.022,-379.406 424.069,-389.958"/>
<polygon fill="none" stroke="black" points="423.201,-386.566 414.255,-392.242 424.788,-393.384 423.201,-386.566"/>
</g>
<!-- 8 -->
<g id="node9" class="node"><title>8</title>
<polygon fill="none" stroke="black" points="256.962,-1 256.962,-109 395.038,-109 395.038,-1 256.962,-1"/>
<text text-anchor="middle" x="326" y="-91" font-family="Times,serif" font-size="14.00">coupling_device_info</text>
<polyline fill="none" stroke="black" points="256.962,-84.2 395.038,-84.2 "/>
<text text-anchor="start" x="264.962" y="-66.2" font-family="Times,serif" font-size="14.00">inst</text>
<polyline fill="none" stroke="black" points="256.962,-59.4 395.038,-59.4 "/>
<text text-anchor="start" x="264.962" y="-41.4" font-family="Times,serif" font-size="14.00">cfpr()</text>
<text text-anchor="start" x="264.962" y="-24.6" font-family="Times,serif" font-size="14.00">n_cfpr()</text>
<text text-anchor="start" x="264.962" y="-7.8" font-family="Times,serif" font-size="14.00">kernel()</text>
</g>
<!-- 8&#45;&gt;1 -->
<g id="edge16" class="edge"><title>8&#45;&gt;1</title>
<path fill="none" stroke="black" d="M256.696,-71.1405C217.102,-82.2197 168.094,-100.252 130.917,-128 109.555,-143.944 91.2977,-166.865 77.3211,-188.054"/>
<polygon fill="black" stroke="black" points="77.2553,-188.158 77.4059,-195.367 70.8088,-198.279 70.6582,-191.07 77.2553,-188.158"/>
<text text-anchor="middle" x="164.042" y="-131.4" font-family="Times,serif" font-size="14.00" fill="green">device_info</text>
</g>
<!-- 8&#45;&gt;3 -->
<g id="edge18" class="edge"><title>8&#45;&gt;3</title>
<path fill="none" stroke="black" d="M256.799,-91.2169C240.99,-101.526 225.236,-113.884 212.917,-128 198.05,-145.035 186.586,-166.952 178.191,-187.075"/>
<polygon fill="black" stroke="black" points="178.145,-187.19 179.651,-194.242 173.72,-198.345 172.214,-191.293 178.145,-187.19"/>
<text text-anchor="middle" x="246.042" y="-131.4" font-family="Times,serif" font-size="14.00" fill="green">device_info</text>
</g>
<!-- 8&#45;&gt;4 -->
<g id="edge20" class="edge"><title>8&#45;&gt;4</title>
<path fill="none" stroke="black" d="M294.264,-109.279C291.442,-115.449 288.906,-121.767 286.917,-128 281.924,-143.649 278.7,-161.019 276.625,-177.419"/>
<polygon fill="black" stroke="black" points="276.582,-177.8 279.892,-184.207 275.252,-189.726 271.942,-183.32 276.582,-177.8"/>
<text text-anchor="middle" x="320.042" y="-131.4" font-family="Times,serif" font-size="14.00" fill="green">device_info</text>
</g>
<!-- 8&#45;&gt;5 -->
<g id="edge22" class="edge"><title>8&#45;&gt;5</title>
<path fill="none" stroke="black" d="M346.822,-109.212C349.026,-115.505 351.139,-121.868 353,-128 358.692,-146.754 363.897,-167.532 368.186,-186.21"/>
<polygon fill="black" stroke="black" points="368.235,-186.43 373.454,-191.407 370.867,-198.138 365.649,-193.161 368.235,-186.43"/>
<text text-anchor="middle" x="391.042" y="-131.4" font-family="Times,serif" font-size="14.00" fill="green">device_info</text>
</g>
<!-- 8&#45;&gt;6 -->
<g id="edge24" class="edge"><title>8&#45;&gt;6</title>
<path fill="none" stroke="black" d="M395.299,-99.9388C406.786,-108.588 418.148,-118.08 428,-128 436.226,-136.283 444.181,-145.503 451.675,-155.017"/>
<polygon fill="black" stroke="black" points="451.719,-155.074 458.541,-157.41 459.01,-164.606 452.187,-162.27 451.719,-155.074"/>
<text text-anchor="middle" x="477.042" y="-131.4" font-family="Times,serif" font-size="14.00" fill="green">device_info</text>
</g>
<!-- 8&#45;&gt;7 -->
<g id="edge26" class="edge"><title>8&#45;&gt;7</title>
<path fill="none" stroke="black" d="M395.115,-73.5129C450.826,-90.1165 529.002,-119.257 586,-164 586.097,-164.076 586.194,-164.153 586.292,-164.23"/>
<polygon fill="black" stroke="black" points="586.042,-164.018 593.206,-164.843 595.2,-171.773 588.036,-170.948 586.042,-164.018"/>
<text text-anchor="middle" x="588.042" y="-131.4" font-family="Times,serif" font-size="14.00" fill="green">device_info</text>
</g>
</g>
</svg>
