<?xml version="1.0" encoding="UTF-8" standalone="no"?>
<!DOCTYPE svg PUBLIC "-//W3C//DTD SVG 1.1//EN"
 "http://www.w3.org/Graphics/SVG/1.1/DTD/svg11.dtd">
<!-- Generated by graphviz version 2.28.0 (20111211.2114)
 -->
<!-- Title: classes_models Pages: 1 -->
<svg width="1821pt" height="1524pt"
 viewBox="0.00 0.00 1821.00 1524.00" xmlns="http://www.w3.org/2000/svg" xmlns:xlink="http://www.w3.org/1999/xlink">
<g id="graph1" class="graph" transform="scale(1 1) rotate(0) translate(4 1520)">
<title>classes_models</title>
<polygon fill="white" stroke="white" points="-4,5 -4,-1520 1818,-1520 1818,5 -4,5"/>
<!-- 2 -->
<g id="node1" class="node"><title>2</title>
<polygon fill="none" stroke="black" points="-0.5,-512.5 -0.5,-971.5 210.5,-971.5 210.5,-512.5 -0.5,-512.5"/>
<text text-anchor="middle" x="105" y="-956.3" font-family="Times,serif" font-size="14.00">ReducedSetFitzHughNagumo</text>
<polyline fill="none" stroke="black" points="-0.5,-948.5 210.5,-948.5 "/>
<text text-anchor="start" x="7.5" y="-933.3" font-family="Times,serif" font-size="14.00">cvar</text>
<text text-anchor="start" x="7.5" y="-918.3" font-family="Times,serif" font-size="14.00">number_of_modes : int</text>
<text text-anchor="start" x="7.5" y="-903.3" font-family="Times,serif" font-size="14.00">Bik : NoneType</text>
<text text-anchor="start" x="7.5" y="-888.3" font-family="Times,serif" font-size="14.00">Cik : NoneType</text>
<text text-anchor="start" x="7.5" y="-873.3" font-family="Times,serif" font-size="14.00">Aik : NoneType</text>
<text text-anchor="start" x="7.5" y="-858.3" font-family="Times,serif" font-size="14.00">f_i : NoneType</text>
<text text-anchor="start" x="7.5" y="-843.3" font-family="Times,serif" font-size="14.00">m_i : NoneType</text>
<text text-anchor="start" x="7.5" y="-828.3" font-family="Times,serif" font-size="14.00">n_i : NoneType</text>
<text text-anchor="start" x="7.5" y="-813.3" font-family="Times,serif" font-size="14.00">II_i : NoneType</text>
<text text-anchor="start" x="7.5" y="-798.3" font-family="Times,serif" font-size="14.00">e_i : NoneType</text>
<text text-anchor="start" x="7.5" y="-783.3" font-family="Times,serif" font-size="14.00">nu : int</text>
<text text-anchor="start" x="7.5" y="-768.3" font-family="Times,serif" font-size="14.00">nv : int</text>
<text text-anchor="start" x="7.5" y="-753.3" font-family="Times,serif" font-size="14.00">IE_i : NoneType</text>
<text text-anchor="start" x="7.5" y="-738.3" font-family="Times,serif" font-size="14.00">a : FloatArray</text>
<text text-anchor="start" x="7.5" y="-723.3" font-family="Times,serif" font-size="14.00">tau : FloatArray</text>
<text text-anchor="start" x="7.5" y="-708.3" font-family="Times,serif" font-size="14.00">K11 : FloatArray</text>
<text text-anchor="start" x="7.5" y="-693.3" font-family="Times,serif" font-size="14.00">b : FloatArray</text>
<text text-anchor="start" x="7.5" y="-678.3" font-family="Times,serif" font-size="14.00">K12 : FloatArray</text>
<text text-anchor="start" x="7.5" y="-663.3" font-family="Times,serif" font-size="14.00">state_variable_range : Dict</text>
<text text-anchor="start" x="7.5" y="-648.3" font-family="Times,serif" font-size="14.00">K21 : FloatArray</text>
<text text-anchor="start" x="7.5" y="-633.3" font-family="Times,serif" font-size="14.00">mu : FloatArray</text>
<text text-anchor="start" x="7.5" y="-618.3" font-family="Times,serif" font-size="14.00">ui_configurable_parameters : list</text>
<text text-anchor="start" x="7.5" y="-603.3" font-family="Times,serif" font-size="14.00">device_info</text>
<text text-anchor="start" x="7.5" y="-588.3" font-family="Times,serif" font-size="14.00">variables_of_interest : IntegerArray</text>
<text text-anchor="start" x="7.5" y="-573.3" font-family="Times,serif" font-size="14.00">sigma : FloatArray</text>
<polyline fill="none" stroke="black" points="-0.5,-565.5 210.5,-565.5 "/>
<text text-anchor="start" x="7.5" y="-550.3" font-family="Times,serif" font-size="14.00">configure()</text>
<text text-anchor="start" x="7.5" y="-535.3" font-family="Times,serif" font-size="14.00">dfun()</text>
<text text-anchor="start" x="7.5" y="-520.3" font-family="Times,serif" font-size="14.00">update_derived_parameters()</text>
</g>
<!-- 8 -->
<g id="node7" class="node"><title>8</title>
<polygon fill="none" stroke="black" points="807.5,-1311 807.5,-1515 1004.5,-1515 1004.5,-1311 807.5,-1311"/>
<text text-anchor="middle" x="906" y="-1499.8" font-family="Times,serif" font-size="14.00">Model</text>
<polyline fill="none" stroke="black" points="807.5,-1492 1004.5,-1492 "/>
<text text-anchor="start" x="815.5" y="-1476.8" font-family="Times,serif" font-size="14.00">number_of_modes : int</text>
<text text-anchor="start" x="815.5" y="-1461.8" font-family="Times,serif" font-size="14.00">noise : Noise</text>
<text text-anchor="start" x="815.5" y="-1446.8" font-family="Times,serif" font-size="14.00">ui_configurable_parameters : list</text>
<polyline fill="none" stroke="black" points="807.5,-1439 1004.5,-1439 "/>
<text text-anchor="start" x="815.5" y="-1423.8" font-family="Times,serif" font-size="14.00">dfun()</text>
<text text-anchor="start" x="815.5" y="-1408.8" font-family="Times,serif" font-size="14.00">configure_initial()</text>
<text text-anchor="start" x="815.5" y="-1393.8" font-family="Times,serif" font-size="14.00">configure()</text>
<text text-anchor="start" x="815.5" y="-1378.8" font-family="Times,serif" font-size="14.00">stationary_trajectory()</text>
<text text-anchor="start" x="815.5" y="-1363.8" font-family="Times,serif" font-size="14.00">nvar()</text>
<text text-anchor="start" x="815.5" y="-1348.8" font-family="Times,serif" font-size="14.00">initial()</text>
<text text-anchor="start" x="815.5" y="-1333.8" font-family="Times,serif" font-size="14.00">state_variables()</text>
<text text-anchor="start" x="815.5" y="-1318.8" font-family="Times,serif" font-size="14.00">update_derived_parameters()</text>
</g>
<!-- 2&#45;&gt;8 -->
<g id="edge2" class="edge"><title>2&#45;&gt;8</title>
<path fill="none" stroke="black" d="M100.073,-971.817C110.051,-1076.57 140.506,-1194.38 219,-1272 299.353,-1351.46 624.548,-1389.3 797.147,-1404.1"/>
<polygon fill="none" stroke="black" points="797.018,-1407.6 807.277,-1404.96 797.608,-1400.62 797.018,-1407.6"/>
</g>
<!-- 3 -->
<g id="node2" class="node"><title>3</title>
<polygon fill="none" stroke="black" points="228.5,-662.5 228.5,-821.5 439.5,-821.5 439.5,-662.5 228.5,-662.5"/>
<text text-anchor="middle" x="334" y="-806.3" font-family="Times,serif" font-size="14.00">Kuramoto</text>
<polyline fill="none" stroke="black" points="228.5,-798.5 439.5,-798.5 "/>
<text text-anchor="start" x="236.5" y="-783.3" font-family="Times,serif" font-size="14.00">derivative</text>
<text text-anchor="start" x="236.5" y="-768.3" font-family="Times,serif" font-size="14.00">cvar</text>
<text text-anchor="start" x="236.5" y="-753.3" font-family="Times,serif" font-size="14.00">state_variable_range : Dict</text>
<text text-anchor="start" x="236.5" y="-738.3" font-family="Times,serif" font-size="14.00">ui_configurable_parameters : list</text>
<text text-anchor="start" x="236.5" y="-723.3" font-family="Times,serif" font-size="14.00">device_info</text>
<text text-anchor="start" x="236.5" y="-708.3" font-family="Times,serif" font-size="14.00">variables_of_interest : IntegerArray</text>
<text text-anchor="start" x="236.5" y="-693.3" font-family="Times,serif" font-size="14.00">omega : FloatArray</text>
<polyline fill="none" stroke="black" points="228.5,-685.5 439.5,-685.5 "/>
<text text-anchor="start" x="236.5" y="-670.3" font-family="Times,serif" font-size="14.00">dfun()</text>
</g>
<!-- 3&#45;&gt;8 -->
<g id="edge4" class="edge"><title>3&#45;&gt;8</title>
<path fill="none" stroke="black" d="M327.939,-821.789C323.673,-935.953 333.415,-1147.31 448,-1272 537.429,-1369.31 692.382,-1399.76 797.008,-1408.85"/>
<polygon fill="none" stroke="black" points="797.037,-1412.36 807.289,-1409.69 797.607,-1405.39 797.037,-1412.36"/>
</g>
<!-- 4 -->
<g id="node3" class="node"><title>4</title>
<polygon fill="none" stroke="black" points="1373.5,-212.5 1373.5,-1271.5 1584.5,-1271.5 1584.5,-212.5 1373.5,-212.5"/>
<text text-anchor="middle" x="1479" y="-1256.3" font-family="Times,serif" font-size="14.00">BrunelWang</text>
<polyline fill="none" stroke="black" points="1373.5,-1248.5 1584.5,-1248.5 "/>
<text text-anchor="start" x="1381.5" y="-1233.3" font-family="Times,serif" font-size="14.00">csigma_e : NoneType</text>
<text text-anchor="start" x="1381.5" y="-1218.3" font-family="Times,serif" font-size="14.00">crho2_i : NoneType</text>
<text text-anchor="start" x="1381.5" y="-1203.3" font-family="Times,serif" font-size="14.00">cvar</text>
<text text-anchor="start" x="1381.5" y="-1188.3" font-family="Times,serif" font-size="14.00">Text_e : NoneType</text>
<text text-anchor="start" x="1381.5" y="-1173.3" font-family="Times,serif" font-size="14.00">TAMPA_i : NoneType</text>
<text text-anchor="start" x="1381.5" y="-1158.3" font-family="Times,serif" font-size="14.00">ve</text>
<text text-anchor="start" x="1381.5" y="-1143.3" font-family="Times,serif" font-size="14.00">Text_i : NoneType</text>
<text text-anchor="start" x="1381.5" y="-1128.3" font-family="Times,serif" font-size="14.00">TAMPA_e : NoneType</text>
<text text-anchor="start" x="1381.5" y="-1113.3" font-family="Times,serif" font-size="14.00">T_ei : NoneType</text>
<text text-anchor="start" x="1381.5" y="-1098.3" font-family="Times,serif" font-size="14.00">dfun</text>
<text text-anchor="start" x="1381.5" y="-1083.3" font-family="Times,serif" font-size="14.00">csigma_i : NoneType</text>
<text text-anchor="start" x="1381.5" y="-1068.3" font-family="Times,serif" font-size="14.00">crho2_e : NoneType</text>
<text text-anchor="start" x="1381.5" y="-1053.3" font-family="Times,serif" font-size="14.00">T_ii : NoneType</text>
<text text-anchor="start" x="1381.5" y="-1038.3" font-family="Times,serif" font-size="14.00">crho1_i : NoneType</text>
<text text-anchor="start" x="1381.5" y="-1023.3" font-family="Times,serif" font-size="14.00">tauNMDA : NoneType</text>
<text text-anchor="start" x="1381.5" y="-1008.3" font-family="Times,serif" font-size="14.00">crho1_e : NoneType</text>
<text text-anchor="start" x="1381.5" y="-993.3" font-family="Times,serif" font-size="14.00">pool_fractions : NoneType</text>
<text text-anchor="start" x="1381.5" y="-978.3" font-family="Times,serif" font-size="14.00">vi</text>
<text text-anchor="start" x="1381.5" y="-963.3" font-family="Times,serif" font-size="14.00">NMAX : IntegerArray</text>
<text text-anchor="start" x="1381.5" y="-948.3" font-family="Times,serif" font-size="14.00">tau : FloatArray</text>
<text text-anchor="start" x="1381.5" y="-933.3" font-family="Times,serif" font-size="14.00">ve : FloatArray</text>
<text text-anchor="start" x="1381.5" y="-918.3" font-family="Times,serif" font-size="14.00">gGABA_i : FloatArray</text>
<text text-anchor="start" x="1381.5" y="-903.3" font-family="Times,serif" font-size="14.00">vi : FloatArray</text>
<text text-anchor="start" x="1381.5" y="-888.3" font-family="Times,serif" font-size="14.00">gGABA_e : FloatArray</text>
<text text-anchor="start" x="1381.5" y="-873.3" font-family="Times,serif" font-size="14.00">cbeta : FloatArray</text>
<text text-anchor="start" x="1381.5" y="-858.3" font-family="Times,serif" font-size="14.00">nerf_table : NerfTable</text>
<text text-anchor="start" x="1381.5" y="-843.3" font-family="Times,serif" font-size="14.00">Vreset : FloatArray</text>
<text text-anchor="start" x="1381.5" y="-828.3" font-family="Times,serif" font-size="14.00">wplus : FloatArray</text>
<text text-anchor="start" x="1381.5" y="-813.3" font-family="Times,serif" font-size="14.00">calpha : FloatArray</text>
<text text-anchor="start" x="1381.5" y="-798.3" font-family="Times,serif" font-size="14.00">state_variable_range : Dict</text>
<text text-anchor="start" x="1381.5" y="-783.3" font-family="Times,serif" font-size="14.00">taurp_e : FloatArray</text>
<text text-anchor="start" x="1381.5" y="-768.3" font-family="Times,serif" font-size="14.00">variables_of_interest : IntegerArray</text>
<text text-anchor="start" x="1381.5" y="-753.3" font-family="Times,serif" font-size="14.00">tauNMDArise : FloatArray</text>
<text text-anchor="start" x="1381.5" y="-738.3" font-family="Times,serif" font-size="14.00">pool_nodes : FloatArray</text>
<text text-anchor="start" x="1381.5" y="-723.3" font-family="Times,serif" font-size="14.00">cgamma : FloatArray</text>
<text text-anchor="start" x="1381.5" y="-708.3" font-family="Times,serif" font-size="14.00">gAMPAext_i : FloatArray</text>
<text text-anchor="start" x="1381.5" y="-693.3" font-family="Times,serif" font-size="14.00">C : IntegerArray</text>
<text text-anchor="start" x="1381.5" y="-678.3" font-family="Times,serif" font-size="14.00">Cext : IntegerArray</text>
<text text-anchor="start" x="1381.5" y="-663.3" font-family="Times,serif" font-size="14.00">VE : FloatArray</text>
<text text-anchor="start" x="1381.5" y="-648.3" font-family="Times,serif" font-size="14.00">VI : FloatArray</text>
<text text-anchor="start" x="1381.5" y="-633.3" font-family="Times,serif" font-size="14.00">tauGABA : FloatArray</text>
<text text-anchor="start" x="1381.5" y="-618.3" font-family="Times,serif" font-size="14.00">VL : FloatArray</text>
<text text-anchor="start" x="1381.5" y="-603.3" font-family="Times,serif" font-size="14.00">tauAMPA : FloatArray</text>
<text text-anchor="start" x="1381.5" y="-588.3" font-family="Times,serif" font-size="14.00">gAMPAext_e : FloatArray</text>
<text text-anchor="start" x="1381.5" y="-573.3" font-family="Times,serif" font-size="14.00">psi_table : PsiTable</text>
<text text-anchor="start" x="1381.5" y="-558.3" font-family="Times,serif" font-size="14.00">W : FloatArray</text>
<text text-anchor="start" x="1381.5" y="-543.3" font-family="Times,serif" font-size="14.00">taum_e : FloatArray</text>
<text text-anchor="start" x="1381.5" y="-528.3" font-family="Times,serif" font-size="14.00">gAMPArec_i : FloatArray</text>
<text text-anchor="start" x="1381.5" y="-513.3" font-family="Times,serif" font-size="14.00">tauNMDAdecay : FloatArray</text>
<text text-anchor="start" x="1381.5" y="-498.3" font-family="Times,serif" font-size="14.00">a : FloatArray</text>
<text text-anchor="start" x="1381.5" y="-483.3" font-family="Times,serif" font-size="14.00">nuext : FloatArray</text>
<text text-anchor="start" x="1381.5" y="-468.3" font-family="Times,serif" font-size="14.00">b : FloatArray</text>
<text text-anchor="start" x="1381.5" y="-453.3" font-family="Times,serif" font-size="14.00">gm_e : FloatArray</text>
<text text-anchor="start" x="1381.5" y="-438.3" font-family="Times,serif" font-size="14.00">gNMDA_e : FloatArray</text>
<text text-anchor="start" x="1381.5" y="-423.3" font-family="Times,serif" font-size="14.00">Vthr : FloatArray</text>
<text text-anchor="start" x="1381.5" y="-408.3" font-family="Times,serif" font-size="14.00">gNMDA_i : FloatArray</text>
<text text-anchor="start" x="1381.5" y="-393.3" font-family="Times,serif" font-size="14.00">gm_i : FloatArray</text>
<text text-anchor="start" x="1381.5" y="-378.3" font-family="Times,serif" font-size="14.00">wminus : FloatArray</text>
<text text-anchor="start" x="1381.5" y="-363.3" font-family="Times,serif" font-size="14.00">Cm_i : FloatArray</text>
<text text-anchor="start" x="1381.5" y="-348.3" font-family="Times,serif" font-size="14.00">taum_i : FloatArray</text>
<text text-anchor="start" x="1381.5" y="-333.3" font-family="Times,serif" font-size="14.00">ui_configurable_parameters : list</text>
<text text-anchor="start" x="1381.5" y="-318.3" font-family="Times,serif" font-size="14.00">Cm_e : FloatArray</text>
<text text-anchor="start" x="1381.5" y="-303.3" font-family="Times,serif" font-size="14.00">gAMPArec_e : FloatArray</text>
<text text-anchor="start" x="1381.5" y="-288.3" font-family="Times,serif" font-size="14.00">taurp_i : FloatArray</text>
<polyline fill="none" stroke="black" points="1373.5,-280.5 1584.5,-280.5 "/>
<text text-anchor="start" x="1381.5" y="-265.3" font-family="Times,serif" font-size="14.00">configure()</text>
<text text-anchor="start" x="1381.5" y="-250.3" font-family="Times,serif" font-size="14.00">dfun()</text>
<text text-anchor="start" x="1381.5" y="-235.3" font-family="Times,serif" font-size="14.00">update_derived_parameters()</text>
<text text-anchor="start" x="1381.5" y="-220.3" font-family="Times,serif" font-size="14.00">optimize()</text>
</g>
<!-- 4&#45;&gt;8 -->
<g id="edge6" class="edge"><title>4&#45;&gt;8</title>
<path fill="none" stroke="black" d="M1373.31,-1261.43C1370.29,-1265.02 1367.18,-1268.54 1364,-1272 1274.48,-1369.23 1119.55,-1399.69 1014.95,-1408.82"/>
<polygon fill="none" stroke="black" points="1014.36,-1405.35 1004.68,-1409.66 1014.93,-1412.33 1014.36,-1405.35"/>
</g>
<!-- 5 -->
<g id="node4" class="node"><title>5</title>
<polygon fill="none" stroke="black" points="457.5,-437.5 457.5,-1046.5 668.5,-1046.5 668.5,-437.5 457.5,-437.5"/>
<text text-anchor="middle" x="563" y="-1031.3" font-family="Times,serif" font-size="14.00">ReducedSetHindmarshRose</text>
<polyline fill="none" stroke="black" points="457.5,-1023.5 668.5,-1023.5 "/>
<text text-anchor="start" x="465.5" y="-1008.3" font-family="Times,serif" font-size="14.00">b_i : NoneType</text>
<text text-anchor="start" x="465.5" y="-993.3" font-family="Times,serif" font-size="14.00">cvar</text>
<text text-anchor="start" x="465.5" y="-978.3" font-family="Times,serif" font-size="14.00">number_of_modes : int</text>
<text text-anchor="start" x="465.5" y="-963.3" font-family="Times,serif" font-size="14.00">p_i : NoneType</text>
<text text-anchor="start" x="465.5" y="-948.3" font-family="Times,serif" font-size="14.00">c_i : NoneType</text>
<text text-anchor="start" x="465.5" y="-933.3" font-family="Times,serif" font-size="14.00">B_ik : NoneType</text>
<text text-anchor="start" x="465.5" y="-918.3" font-family="Times,serif" font-size="14.00">f_i : NoneType</text>
<text text-anchor="start" x="465.5" y="-903.3" font-family="Times,serif" font-size="14.00">C_ik : NoneType</text>
<text text-anchor="start" x="465.5" y="-888.3" font-family="Times,serif" font-size="14.00">nu : int</text>
<text text-anchor="start" x="465.5" y="-873.3" font-family="Times,serif" font-size="14.00">d_i : NoneType</text>
<text text-anchor="start" x="465.5" y="-858.3" font-family="Times,serif" font-size="14.00">m_i : NoneType</text>
<text text-anchor="start" x="465.5" y="-843.3" font-family="Times,serif" font-size="14.00">n_i : NoneType</text>
<text text-anchor="start" x="465.5" y="-828.3" font-family="Times,serif" font-size="14.00">II_i : NoneType</text>
<text text-anchor="start" x="465.5" y="-813.3" font-family="Times,serif" font-size="14.00">A_ik : NoneType</text>
<text text-anchor="start" x="465.5" y="-798.3" font-family="Times,serif" font-size="14.00">e_i : NoneType</text>
<text text-anchor="start" x="465.5" y="-783.3" font-family="Times,serif" font-size="14.00">h_i : NoneType</text>
<text text-anchor="start" x="465.5" y="-768.3" font-family="Times,serif" font-size="14.00">IE_i : NoneType</text>
<text text-anchor="start" x="465.5" y="-753.3" font-family="Times,serif" font-size="14.00">a_i : NoneType</text>
<text text-anchor="start" x="465.5" y="-738.3" font-family="Times,serif" font-size="14.00">nv : int</text>
<text text-anchor="start" x="465.5" y="-723.3" font-family="Times,serif" font-size="14.00">a : FloatArray</text>
<text text-anchor="start" x="465.5" y="-708.3" font-family="Times,serif" font-size="14.00">K12 : FloatArray</text>
<text text-anchor="start" x="465.5" y="-693.3" font-family="Times,serif" font-size="14.00">c : FloatArray</text>
<text text-anchor="start" x="465.5" y="-678.3" font-family="Times,serif" font-size="14.00">b : FloatArray</text>
<text text-anchor="start" x="465.5" y="-663.3" font-family="Times,serif" font-size="14.00">d : FloatArray</text>
<text text-anchor="start" x="465.5" y="-648.3" font-family="Times,serif" font-size="14.00">state_variable_range : Dict</text>
<text text-anchor="start" x="465.5" y="-633.3" font-family="Times,serif" font-size="14.00">K21 : FloatArray</text>
<text text-anchor="start" x="465.5" y="-618.3" font-family="Times,serif" font-size="14.00">K11 : FloatArray</text>
<text text-anchor="start" x="465.5" y="-603.3" font-family="Times,serif" font-size="14.00">mu : FloatArray</text>
<text text-anchor="start" x="465.5" y="-588.3" font-family="Times,serif" font-size="14.00">ui_configurable_parameters : list</text>
<text text-anchor="start" x="465.5" y="-573.3" font-family="Times,serif" font-size="14.00">s : FloatArray</text>
<text text-anchor="start" x="465.5" y="-558.3" font-family="Times,serif" font-size="14.00">r : FloatArray</text>
<text text-anchor="start" x="465.5" y="-543.3" font-family="Times,serif" font-size="14.00">variables_of_interest : IntegerArray</text>
<text text-anchor="start" x="465.5" y="-528.3" font-family="Times,serif" font-size="14.00">device_info</text>
<text text-anchor="start" x="465.5" y="-513.3" font-family="Times,serif" font-size="14.00">sigma : FloatArray</text>
<text text-anchor="start" x="465.5" y="-498.3" font-family="Times,serif" font-size="14.00">xo : FloatArray</text>
<polyline fill="none" stroke="black" points="457.5,-490.5 668.5,-490.5 "/>
<text text-anchor="start" x="465.5" y="-475.3" font-family="Times,serif" font-size="14.00">dfun()</text>
<text text-anchor="start" x="465.5" y="-460.3" font-family="Times,serif" font-size="14.00">update_derived_parameters()</text>
<text text-anchor="start" x="465.5" y="-445.3" font-family="Times,serif" font-size="14.00">configure()</text>
</g>
<!-- 5&#45;&gt;8 -->
<g id="edge8" class="edge"><title>5&#45;&gt;8</title>
<path fill="none" stroke="black" d="M585.337,-1046.53C602.198,-1125.26 630.377,-1206.3 677,-1272 707.086,-1314.4 754.44,-1346.43 798.299,-1369.08"/>
<polygon fill="none" stroke="black" points="796.802,-1372.24 807.307,-1373.63 799.957,-1366 796.802,-1372.24"/>
</g>
<!-- 6 -->
<g id="node5" class="node"><title>6</title>
<polygon fill="none" stroke="black" points="1602.5,-550 1602.5,-934 1813.5,-934 1813.5,-550 1602.5,-550"/>
<text text-anchor="middle" x="1708" y="-918.8" font-family="Times,serif" font-size="14.00">WongWang</text>
<polyline fill="none" stroke="black" points="1602.5,-911 1813.5,-911 "/>
<text text-anchor="start" x="1610.5" y="-895.8" font-family="Times,serif" font-size="14.00">cvar</text>
<text text-anchor="start" x="1610.5" y="-880.8" font-family="Times,serif" font-size="14.00">I_2 : NoneType</text>
<text text-anchor="start" x="1610.5" y="-865.8" font-family="Times,serif" font-size="14.00">I_1 : NoneType</text>
<text text-anchor="start" x="1610.5" y="-850.8" font-family="Times,serif" font-size="14.00">I_o : FloatArray</text>
<text text-anchor="start" x="1610.5" y="-835.8" font-family="Times,serif" font-size="14.00">a : FloatArray</text>
<text text-anchor="start" x="1610.5" y="-820.8" font-family="Times,serif" font-size="14.00">c : FloatArray</text>
<text text-anchor="start" x="1610.5" y="-805.8" font-family="Times,serif" font-size="14.00">b : FloatArray</text>
<text text-anchor="start" x="1610.5" y="-790.8" font-family="Times,serif" font-size="14.00">d : FloatArray</text>
<text text-anchor="start" x="1610.5" y="-775.8" font-family="Times,serif" font-size="14.00">state_variable_range : Dict</text>
<text text-anchor="start" x="1610.5" y="-760.8" font-family="Times,serif" font-size="14.00">J_ext : FloatArray</text>
<text text-anchor="start" x="1610.5" y="-745.8" font-family="Times,serif" font-size="14.00">mu_o : FloatArray</text>
<text text-anchor="start" x="1610.5" y="-730.8" font-family="Times,serif" font-size="14.00">sigma_noise : FloatArray</text>
<text text-anchor="start" x="1610.5" y="-715.8" font-family="Times,serif" font-size="14.00">tau_ampa : FloatArray</text>
<text text-anchor="start" x="1610.5" y="-700.8" font-family="Times,serif" font-size="14.00">J22 : FloatArray</text>
<text text-anchor="start" x="1610.5" y="-685.8" font-family="Times,serif" font-size="14.00">J21 : FloatArray</text>
<text text-anchor="start" x="1610.5" y="-670.8" font-family="Times,serif" font-size="14.00">variables_of_interest : IntegerArray</text>
<text text-anchor="start" x="1610.5" y="-655.8" font-family="Times,serif" font-size="14.00">J12 : FloatArray</text>
<text text-anchor="start" x="1610.5" y="-640.8" font-family="Times,serif" font-size="14.00">tau_s : FloatArray</text>
<text text-anchor="start" x="1610.5" y="-625.8" font-family="Times,serif" font-size="14.00">gamma : FloatArray</text>
<text text-anchor="start" x="1610.5" y="-610.8" font-family="Times,serif" font-size="14.00">J11 : FloatArray</text>
<polyline fill="none" stroke="black" points="1602.5,-603 1813.5,-603 "/>
<text text-anchor="start" x="1610.5" y="-587.8" font-family="Times,serif" font-size="14.00">update_derived_parameters()</text>
<text text-anchor="start" x="1610.5" y="-572.8" font-family="Times,serif" font-size="14.00">dfun()</text>
<text text-anchor="start" x="1610.5" y="-557.8" font-family="Times,serif" font-size="14.00">configure()</text>
</g>
<!-- 6&#45;&gt;8 -->
<g id="edge10" class="edge"><title>6&#45;&gt;8</title>
<path fill="none" stroke="black" d="M1715.32,-934.085C1709.06,-1047.19 1681.21,-1184.93 1593,-1272 1512.57,-1351.38 1187.41,-1389.26 1014.84,-1404.08"/>
<polygon fill="none" stroke="black" points="1014.38,-1400.61 1004.71,-1404.94 1014.97,-1407.58 1014.38,-1400.61"/>
</g>
<!-- 7 -->
<g id="node6" class="node"><title>7</title>
<polygon fill="none" stroke="black" points="686.5,-632.5 686.5,-851.5 897.5,-851.5 897.5,-632.5 686.5,-632.5"/>
<text text-anchor="middle" x="792" y="-836.3" font-family="Times,serif" font-size="14.00">Generic2dOscillator</text>
<polyline fill="none" stroke="black" points="686.5,-828.5 897.5,-828.5 "/>
<text text-anchor="start" x="694.5" y="-813.3" font-family="Times,serif" font-size="14.00">derivative</text>
<text text-anchor="start" x="694.5" y="-798.3" font-family="Times,serif" font-size="14.00">cvar</text>
<text text-anchor="start" x="694.5" y="-783.3" font-family="Times,serif" font-size="14.00">a : FloatArray</text>
<text text-anchor="start" x="694.5" y="-768.3" font-family="Times,serif" font-size="14.00">tau : FloatArray</text>
<text text-anchor="start" x="694.5" y="-753.3" font-family="Times,serif" font-size="14.00">c : FloatArray</text>
<text text-anchor="start" x="694.5" y="-738.3" font-family="Times,serif" font-size="14.00">b : FloatArray</text>
<text text-anchor="start" x="694.5" y="-723.3" font-family="Times,serif" font-size="14.00">state_variable_range : Dict</text>
<text text-anchor="start" x="694.5" y="-708.3" font-family="Times,serif" font-size="14.00">ui_configurable_parameters : list</text>
<text text-anchor="start" x="694.5" y="-693.3" font-family="Times,serif" font-size="14.00">device_info</text>
<text text-anchor="start" x="694.5" y="-678.3" font-family="Times,serif" font-size="14.00">Iext : FloatArray</text>
<text text-anchor="start" x="694.5" y="-663.3" font-family="Times,serif" font-size="14.00">variables_of_interest : IntegerArray</text>
<polyline fill="none" stroke="black" points="686.5,-655.5 897.5,-655.5 "/>
<text text-anchor="start" x="694.5" y="-640.3" font-family="Times,serif" font-size="14.00">dfun()</text>
</g>
<!-- 7&#45;&gt;8 -->
<g id="edge12" class="edge"><title>7&#45;&gt;8</title>
<path fill="none" stroke="black" d="M810.506,-851.602C831.579,-975.266 865.828,-1176.25 887.074,-1300.93"/>
<polygon fill="none" stroke="black" points="883.641,-1301.62 888.771,-1310.89 890.541,-1300.45 883.641,-1301.62"/>
</g>
<!-- 9 -->
<g id="node8" class="node"><title>9</title>
<polygon fill="none" stroke="black" points="915.5,-565 915.5,-919 1126.5,-919 1126.5,-565 915.5,-565"/>
<text text-anchor="middle" x="1021" y="-903.8" font-family="Times,serif" font-size="14.00">JansenRit</text>
<polyline fill="none" stroke="black" points="915.5,-896 1126.5,-896 "/>
<text text-anchor="start" x="923.5" y="-880.8" font-family="Times,serif" font-size="14.00">cvar</text>
<text text-anchor="start" x="923.5" y="-865.8" font-family="Times,serif" font-size="14.00">A : FloatArray</text>
<text text-anchor="start" x="923.5" y="-850.8" font-family="Times,serif" font-size="14.00">v0 : FloatArray</text>
<text text-anchor="start" x="923.5" y="-835.8" font-family="Times,serif" font-size="14.00">r : FloatArray</text>
<text text-anchor="start" x="923.5" y="-820.8" font-family="Times,serif" font-size="14.00">a_4 : FloatArray</text>
<text text-anchor="start" x="923.5" y="-805.8" font-family="Times,serif" font-size="14.00">a_3 : FloatArray</text>
<text text-anchor="start" x="923.5" y="-790.8" font-family="Times,serif" font-size="14.00">a_2 : FloatArray</text>
<text text-anchor="start" x="923.5" y="-775.8" font-family="Times,serif" font-size="14.00">a_1 : FloatArray</text>
<text text-anchor="start" x="923.5" y="-760.8" font-family="Times,serif" font-size="14.00">ui_configurable_parameters : list</text>
<text text-anchor="start" x="923.5" y="-745.8" font-family="Times,serif" font-size="14.00">state_variable_range : Dict</text>
<text text-anchor="start" x="923.5" y="-730.8" font-family="Times,serif" font-size="14.00">nu_max : FloatArray</text>
<text text-anchor="start" x="923.5" y="-715.8" font-family="Times,serif" font-size="14.00">J : FloatArray</text>
<text text-anchor="start" x="923.5" y="-700.8" font-family="Times,serif" font-size="14.00">p_min : FloatArray</text>
<text text-anchor="start" x="923.5" y="-685.8" font-family="Times,serif" font-size="14.00">mu : FloatArray</text>
<text text-anchor="start" x="923.5" y="-670.8" font-family="Times,serif" font-size="14.00">device_info</text>
<text text-anchor="start" x="923.5" y="-655.8" font-family="Times,serif" font-size="14.00">B : FloatArray</text>
<text text-anchor="start" x="923.5" y="-640.8" font-family="Times,serif" font-size="14.00">a : FloatArray</text>
<text text-anchor="start" x="923.5" y="-625.8" font-family="Times,serif" font-size="14.00">variables_of_interest : IntegerArray</text>
<text text-anchor="start" x="923.5" y="-610.8" font-family="Times,serif" font-size="14.00">b : FloatArray</text>
<text text-anchor="start" x="923.5" y="-595.8" font-family="Times,serif" font-size="14.00">p_max : FloatArray</text>
<polyline fill="none" stroke="black" points="915.5,-588 1126.5,-588 "/>
<text text-anchor="start" x="923.5" y="-572.8" font-family="Times,serif" font-size="14.00">dfun()</text>
</g>
<!-- 9&#45;&gt;8 -->
<g id="edge14" class="edge"><title>9&#45;&gt;8</title>
<path fill="none" stroke="black" d="M990.71,-919.209C969.919,-1040.16 942.96,-1196.99 925.102,-1300.88"/>
<polygon fill="none" stroke="black" points="921.648,-1300.31 923.403,-1310.76 928.547,-1301.5 921.648,-1300.31"/>
</g>
<!-- 10 -->
<g id="node9" class="node"><title>10</title>
<polygon fill="none" stroke="black" points="1144.5,-572.5 1144.5,-911.5 1355.5,-911.5 1355.5,-572.5 1144.5,-572.5"/>
<text text-anchor="middle" x="1250" y="-896.3" font-family="Times,serif" font-size="14.00">WilsonCowan</text>
<polyline fill="none" stroke="black" points="1144.5,-888.5 1355.5,-888.5 "/>
<text text-anchor="start" x="1152.5" y="-873.3" font-family="Times,serif" font-size="14.00">cvar</text>
<text text-anchor="start" x="1152.5" y="-858.3" font-family="Times,serif" font-size="14.00">c_1 : FloatArray</text>
<text text-anchor="start" x="1152.5" y="-843.3" font-family="Times,serif" font-size="14.00">theta_e : FloatArray</text>
<text text-anchor="start" x="1152.5" y="-828.3" font-family="Times,serif" font-size="14.00">ui_configurable_parameters : list</text>
<text text-anchor="start" x="1152.5" y="-813.3" font-family="Times,serif" font-size="14.00">tau_i : FloatArray</text>
<text text-anchor="start" x="1152.5" y="-798.3" font-family="Times,serif" font-size="14.00">state_variable_range : Dict</text>
<text text-anchor="start" x="1152.5" y="-783.3" font-family="Times,serif" font-size="14.00">tau_e : FloatArray</text>
<text text-anchor="start" x="1152.5" y="-768.3" font-family="Times,serif" font-size="14.00">c_3 : FloatArray</text>
<text text-anchor="start" x="1152.5" y="-753.3" font-family="Times,serif" font-size="14.00">theta_i : FloatArray</text>
<text text-anchor="start" x="1152.5" y="-738.3" font-family="Times,serif" font-size="14.00">k_i : FloatArray</text>
<text text-anchor="start" x="1152.5" y="-723.3" font-family="Times,serif" font-size="14.00">r_i : FloatArray</text>
<text text-anchor="start" x="1152.5" y="-708.3" font-family="Times,serif" font-size="14.00">a_e : FloatArray</text>
<text text-anchor="start" x="1152.5" y="-693.3" font-family="Times,serif" font-size="14.00">c_2 : FloatArray</text>
<text text-anchor="start" x="1152.5" y="-678.3" font-family="Times,serif" font-size="14.00">c_4 : FloatArray</text>
<text text-anchor="start" x="1152.5" y="-663.3" font-family="Times,serif" font-size="14.00">variables_of_interest : IntegerArray</text>
<text text-anchor="start" x="1152.5" y="-648.3" font-family="Times,serif" font-size="14.00">device_info</text>
<text text-anchor="start" x="1152.5" y="-633.3" font-family="Times,serif" font-size="14.00">k_e : FloatArray</text>
<text text-anchor="start" x="1152.5" y="-618.3" font-family="Times,serif" font-size="14.00">r_e : FloatArray</text>
<text text-anchor="start" x="1152.5" y="-603.3" font-family="Times,serif" font-size="14.00">a_i : FloatArray</text>
<polyline fill="none" stroke="black" points="1144.5,-595.5 1355.5,-595.5 "/>
<text text-anchor="start" x="1152.5" y="-580.3" font-family="Times,serif" font-size="14.00">dfun()</text>
</g>
<!-- 10&#45;&gt;8 -->
<g id="edge16" class="edge"><title>10&#45;&gt;8</title>
<path fill="none" stroke="black" d="M1246.92,-911.624C1237.3,-1022.94 1209.61,-1167.06 1135,-1272 1104.88,-1314.37 1057.52,-1346.4 1013.66,-1369.05"/>
<polygon fill="none" stroke="black" points="1012.01,-1365.97 1004.66,-1373.6 1015.16,-1372.22 1012.01,-1365.97"/>
</g>
<!-- 11 -->
<g id="node10" class="node"><title>11</title>
<polygon fill="none" stroke="black" points="616,-0.5 616,-159.5 738,-159.5 738,-0.5 616,-0.5"/>
<text text-anchor="middle" x="677" y="-144.3" font-family="Times,serif" font-size="14.00">model_device_info</text>
<polyline fill="none" stroke="black" points="616,-136.5 738,-136.5 "/>
<text text-anchor="start" x="624" y="-121.3" font-family="Times,serif" font-size="14.00">inst</text>
<polyline fill="none" stroke="black" points="616,-113.5 738,-113.5 "/>
<text text-anchor="start" x="624" y="-98.3" font-family="Times,serif" font-size="14.00">n_cvar()</text>
<text text-anchor="start" x="624" y="-83.3" font-family="Times,serif" font-size="14.00">cvar()</text>
<text text-anchor="start" x="624" y="-68.3" font-family="Times,serif" font-size="14.00">kernel()</text>
<text text-anchor="start" x="624" y="-53.3" font-family="Times,serif" font-size="14.00">n_mode()</text>
<text text-anchor="start" x="624" y="-38.3" font-family="Times,serif" font-size="14.00">n_svar()</text>
<text text-anchor="start" x="624" y="-23.3" font-family="Times,serif" font-size="14.00">n_mmpr()</text>
<text text-anchor="start" x="624" y="-8.3" font-family="Times,serif" font-size="14.00">mmpr()</text>
</g>
<!-- 11&#45;&gt;2 -->
<g id="edge18" class="edge"><title>11&#45;&gt;2</title>
<path fill="none" stroke="black" d="M615.609,-90.5992C503.749,-109.327 273.248,-154.029 219,-212 147.06,-288.877 116.259,-399.825 104.365,-500.279"/>
<polygon fill="black" stroke="black" points="104.335,-500.549 107.647,-506.955 103.007,-512.475 99.6958,-506.069 104.335,-500.549"/>
<text text-anchor="middle" x="298" y="-182.3" font-family="Times,serif" font-size="14.00" fill="green">device_info</text>
</g>
<!-- 11&#45;&gt;3 -->
<g id="edge20" class="edge"><title>11&#45;&gt;3</title>
<path fill="none" stroke="black" d="M615.973,-99.9937C563.339,-119.583 489.451,-155.354 448,-212 352.45,-342.577 333.867,-536.885 331.937,-650.075"/>
<polygon fill="black" stroke="black" points="331.937,-650.119 335.863,-656.168 331.79,-662.118 327.864,-656.07 331.937,-650.119"/>
<text text-anchor="middle" x="509" y="-182.3" font-family="Times,serif" font-size="14.00" fill="green">device_info</text>
</g>
<!-- 11&#45;&gt;5 -->
<g id="edge22" class="edge"><title>11&#45;&gt;5</title>
<path fill="none" stroke="black" d="M663.419,-159.629C651.902,-226.306 634.584,-326.566 617.557,-425.141"/>
<polygon fill="black" stroke="black" points="617.525,-425.327 620.446,-431.92 615.483,-437.152 612.563,-430.559 617.525,-425.327"/>
<text text-anchor="middle" x="690" y="-182.3" font-family="Times,serif" font-size="14.00" fill="green">device_info</text>
</g>
<!-- 11&#45;&gt;7 -->
<g id="edge24" class="edge"><title>11&#45;&gt;7</title>
<path fill="none" stroke="black" d="M719.576,-159.735C721.996,-165.818 724.179,-171.948 726,-178 770.565,-326.133 785.286,-504.613 790.01,-620.324"/>
<polygon fill="black" stroke="black" points="790.012,-620.378 794.241,-626.22 790.475,-632.369 786.247,-626.528 790.012,-620.378"/>
<text text-anchor="middle" x="763" y="-182.3" font-family="Times,serif" font-size="14.00" fill="green">device_info</text>
</g>
<!-- 11&#45;&gt;9 -->
<g id="edge26" class="edge"><title>11&#45;&gt;9</title>
<path fill="none" stroke="black" d="M738.002,-100.012C790.62,-119.613 864.498,-155.391 906,-212 977.907,-310.081 1006.5,-444.166 1017.2,-552.798"/>
<polygon fill="black" stroke="black" points="1017.21,-552.956 1021.75,-558.559 1018.33,-564.905 1013.79,-559.302 1017.21,-552.956"/>
<text text-anchor="middle" x="920" y="-182.3" font-family="Times,serif" font-size="14.00" fill="green">device_info</text>
</g>
<!-- 11&#45;&gt;10 -->
<g id="edge28" class="edge"><title>11&#45;&gt;10</title>
<path fill="none" stroke="black" d="M738.381,-90.6084C850.225,-109.351 1080.7,-154.078 1135,-212 1221.75,-304.536 1248.99,-446.524 1255.37,-560.107"/>
<polygon fill="black" stroke="black" points="1255.38,-560.421 1259.68,-566.213 1255.98,-572.406 1251.69,-566.613 1255.38,-560.421"/>
<text text-anchor="middle" x="1144" y="-182.3" font-family="Times,serif" font-size="14.00" fill="green">device_info</text>
</g>
</g>
</svg>
